<?xml version="1.0" encoding="UTF-8"?>
<svg version="1.1" xmlns="http://www.w3.org/2000/svg" width="600" height="600">
<path d="M0 0 C198 0 396 0 600 0 C600 198 600 396 600 600 C402 600 204 600 0 600 C0 402 0 204 0 0 Z " fill="#7B11F7" transform="translate(0,0)"/>
<path d="M0 0 C1.1060336 -0.00384115 2.21206721 -0.00768229 3.35161698 -0.01163983 C5.17405405 -0.01034011 5.17405405 -0.01034011 7.03330803 -0.00901413 C8.32415617 -0.01198525 9.61500431 -0.01495637 10.94496906 -0.01801753 C14.5309284 -0.02608617 18.11686773 -0.02787703 21.70283508 -0.028615 C25.56939163 -0.03046582 29.43593779 -0.03801338 33.30248833 -0.04475021 C41.75926334 -0.05833379 50.2160336 -0.06435849 58.67281771 -0.06876087 C63.95416457 -0.07152364 69.23550961 -0.07576109 74.51685524 -0.08026505 C89.14138296 -0.09245847 103.76590921 -0.10275717 118.39044189 -0.10614014 C119.32651856 -0.1063597 120.26259522 -0.10657927 121.22703784 -0.10680549 C122.63450512 -0.10713291 122.63450512 -0.10713291 124.07040608 -0.10746694 C125.97176687 -0.1079104 127.87312766 -0.10835696 129.77448845 -0.10880661 C131.18919811 -0.10913875 131.18919811 -0.10913875 132.63248776 -0.10947761 C147.90913514 -0.11342423 163.18573479 -0.13087378 178.46236373 -0.15416613 C194.1493727 -0.17789093 209.83635773 -0.19034253 225.52338493 -0.19150805 C234.32991248 -0.19242426 243.13637785 -0.19816266 251.94288826 -0.21632767 C259.44324774 -0.23174398 266.94352584 -0.23684014 274.44389816 -0.22858956 C278.26892946 -0.22468828 282.09379694 -0.22558699 285.91880798 -0.23964691 C290.07094333 -0.25476927 294.22271106 -0.24650379 298.37486076 -0.23606491 C300.17722134 -0.24814952 300.17722134 -0.24814952 302.01599324 -0.26047826 C315.75347441 -0.17977088 328.4467511 4.39522546 338.60847282 13.90877151 C353.00222902 30.09463569 354.17159513 47.0275538 354.21003532 67.75642776 C354.28919325 82.6683847 354.72009087 97.32525722 356.58503532 112.13142776 C356.72554314 113.24985062 356.86605095 114.36827347 357.01081657 115.52058792 C360.09036703 137.87374643 366.69526475 164.62214716 384.67097282 179.90486526 C392.16046988 185.23133068 400.56043357 188.62732747 409.58503532 190.13142776 C409.58503532 198.71142776 409.58503532 207.29142776 409.58503532 216.13142776 C405.62503532 217.12142776 401.66503532 218.11142776 397.58503532 219.13142776 C380.68052646 226.25983512 372.38339793 239.52623915 365.44807243 255.88435745 C361.79311976 265.40067554 359.61784954 275.10824655 357.89753532 285.13142776 C357.68548454 286.29931839 357.47343376 287.46720901 357.2549572 288.67049026 C355.2032954 300.3461934 354.54058597 311.79305243 354.40925407 323.62752151 C354.39715401 324.67106796 354.38505394 325.71461441 354.3725872 326.78978348 C354.324421 331.144644 354.27690731 335.49922201 354.25910759 339.85432816 C354.16329088 359.55866629 352.61527738 376.7386555 338.58503532 391.88142776 C326.97540906 402.95254477 313.51686036 406.43980014 297.78982353 406.3988533 C296.50992505 406.40338441 295.23002656 406.40791553 293.91134328 406.41258395 C290.37439568 406.42477247 286.83754297 406.4245584 283.30057919 406.4221952 C279.47969819 406.42178597 275.65884718 406.43283629 271.83798027 406.44231033 C264.35765528 406.45889893 256.87736181 406.46441893 249.39701996 406.46553509 C243.3136981 406.46648666 237.2303866 406.47060238 231.14706802 406.47693634 C213.88419765 406.49454354 196.6213521 406.50377612 179.35847268 406.50227539 C178.4284947 406.50219548 177.49851672 406.50211557 176.54035759 406.50203323 C175.6092386 406.50195147 174.67811961 406.50186971 173.71878489 406.50178547 C158.63516015 406.5009729 143.55163534 406.52010467 128.46803949 406.54830997 C112.96507621 406.57706972 97.46216162 406.59084854 81.959171 406.58912241 C73.26157897 406.58845954 64.56409168 406.59390661 55.86652374 406.61547852 C48.46001376 406.63373112 41.053656 406.63800434 33.64713321 406.62445967 C29.87228881 406.61795028 26.09773611 406.61773866 22.32291985 406.63516617 C18.22011665 406.65391211 14.11798251 406.64128953 10.01516533 406.62590408 C8.83673146 406.63619121 7.65829759 406.64647834 6.44415361 406.65707719 C-8.27020459 406.53567031 -20.67193571 401.61540077 -31.53996468 391.75642776 C-42.83164994 379.98386631 -46.70656898 365.51416007 -46.68840218 349.60799026 C-46.70548612 347.35961084 -46.72350528 345.11123837 -46.74235725 342.86287308 C-46.74941689 341.70066238 -46.75647652 340.53845169 -46.76375008 339.34102249 C-46.90800618 319.61538528 -47.28969257 300.48100724 -51.41496468 281.13142776 C-51.72878271 279.5285663 -52.0425855 277.92570186 -52.35637093 276.32283401 C-55.1366748 262.858073 -59.52783574 249.49525082 -67.41496468 238.13142776 C-67.93703499 237.35283401 -68.4591053 236.57424026 -68.99699593 235.77205276 C-77.39202273 224.05440411 -88.855157 219.52137968 -102.41496468 216.13142776 C-102.41496468 207.55142776 -102.41496468 198.97142776 -102.41496468 190.13142776 C-99.96058968 189.43017776 -97.50621468 188.72892776 -94.97746468 188.00642776 C-88.33056517 185.98363302 -82.78587416 183.65941785 -77.41496468 179.13142776 C-76.74336311 178.58099808 -76.07176155 178.03056839 -75.37980843 177.46345901 C-54.10595897 158.23911336 -48.67810586 120.83599848 -47.24202156 93.88591385 C-46.93915491 84.94872457 -46.93291711 76.00689784 -46.90373421 67.0655098 C-46.8077198 46.62607961 -46.06108229 29.7320864 -31.35246468 13.94002151 C-22.734963 5.89586168 -11.96239421 0.01559687 0 0 Z " fill="#7B11F6" transform="translate(146.41496467590332,96.86857223510742)"/>
<path d="M0 0 C1.1060336 -0.00384115 2.21206721 -0.00768229 3.35161698 -0.01163983 C5.17405405 -0.01034011 5.17405405 -0.01034011 7.03330803 -0.00901413 C8.32415617 -0.01198525 9.61500431 -0.01495637 10.94496906 -0.01801753 C14.5309284 -0.02608617 18.11686773 -0.02787703 21.70283508 -0.028615 C25.56939163 -0.03046582 29.43593779 -0.03801338 33.30248833 -0.04475021 C41.75926334 -0.05833379 50.2160336 -0.06435849 58.67281771 -0.06876087 C63.95416457 -0.07152364 69.23550961 -0.07576109 74.51685524 -0.08026505 C89.14138296 -0.09245847 103.76590921 -0.10275717 118.39044189 -0.10614014 C119.32651856 -0.1063597 120.26259522 -0.10657927 121.22703784 -0.10680549 C122.63450512 -0.10713291 122.63450512 -0.10713291 124.07040608 -0.10746694 C125.97176687 -0.1079104 127.87312766 -0.10835696 129.77448845 -0.10880661 C131.18919811 -0.10913875 131.18919811 -0.10913875 132.63248776 -0.10947761 C147.90913514 -0.11342423 163.18573479 -0.13087378 178.46236373 -0.15416613 C194.1493727 -0.17789093 209.83635773 -0.19034253 225.52338493 -0.19150805 C234.32991248 -0.19242426 243.13637785 -0.19816266 251.94288826 -0.21632767 C259.44324774 -0.23174398 266.94352584 -0.23684014 274.44389816 -0.22858956 C278.26892946 -0.22468828 282.09379694 -0.22558699 285.91880798 -0.23964691 C290.07094333 -0.25476927 294.22271106 -0.24650379 298.37486076 -0.23606491 C300.17722134 -0.24814952 300.17722134 -0.24814952 302.01599324 -0.26047826 C315.75347441 -0.17977088 328.4467511 4.39522546 338.60847282 13.90877151 C353.00222902 30.09463569 354.17159513 47.0275538 354.21003532 67.75642776 C354.28919325 82.6683847 354.72009087 97.32525722 356.58503532 112.13142776 C356.72554314 113.24985062 356.86605095 114.36827347 357.01081657 115.52058792 C360.09036703 137.87374643 366.69526475 164.62214716 384.67097282 179.90486526 C392.16046988 185.23133068 400.56043357 188.62732747 409.58503532 190.13142776 C409.58503532 198.71142776 409.58503532 207.29142776 409.58503532 216.13142776 C405.62503532 217.12142776 401.66503532 218.11142776 397.58503532 219.13142776 C380.68052646 226.25983512 372.38339793 239.52623915 365.44807243 255.88435745 C361.79311976 265.40067554 359.61784954 275.10824655 357.89753532 285.13142776 C357.68548454 286.29931839 357.47343376 287.46720901 357.2549572 288.67049026 C355.2032954 300.3461934 354.54058597 311.79305243 354.40925407 323.62752151 C354.39715401 324.67106796 354.38505394 325.71461441 354.3725872 326.78978348 C354.324421 331.144644 354.27690731 335.49922201 354.25910759 339.85432816 C354.16329088 359.55866629 352.61527738 376.7386555 338.58503532 391.88142776 C326.97540906 402.95254477 313.51686036 406.43980014 297.78982353 406.3988533 C296.50992505 406.40338441 295.23002656 406.40791553 293.91134328 406.41258395 C290.37439568 406.42477247 286.83754297 406.4245584 283.30057919 406.4221952 C279.47969819 406.42178597 275.65884718 406.43283629 271.83798027 406.44231033 C264.35765528 406.45889893 256.87736181 406.46441893 249.39701996 406.46553509 C243.3136981 406.46648666 237.2303866 406.47060238 231.14706802 406.47693634 C213.88419765 406.49454354 196.6213521 406.50377612 179.35847268 406.50227539 C178.4284947 406.50219548 177.49851672 406.50211557 176.54035759 406.50203323 C175.6092386 406.50195147 174.67811961 406.50186971 173.71878489 406.50178547 C158.63516015 406.5009729 143.55163534 406.52010467 128.46803949 406.54830997 C112.96507621 406.57706972 97.46216162 406.59084854 81.959171 406.58912241 C73.26157897 406.58845954 64.56409168 406.59390661 55.86652374 406.61547852 C48.46001376 406.63373112 41.053656 406.63800434 33.64713321 406.62445967 C29.87228881 406.61795028 26.09773611 406.61773866 22.32291985 406.63516617 C18.22011665 406.65391211 14.11798251 406.64128953 10.01516533 406.62590408 C8.83673146 406.63619121 7.65829759 406.64647834 6.44415361 406.65707719 C-8.27020459 406.53567031 -20.67193571 401.61540077 -31.53996468 391.75642776 C-42.83164994 379.98386631 -46.70656898 365.51416007 -46.68840218 349.60799026 C-46.70548612 347.35961084 -46.72350528 345.11123837 -46.74235725 342.86287308 C-46.74941689 341.70066238 -46.75647652 340.53845169 -46.76375008 339.34102249 C-46.90800618 319.61538528 -47.28969257 300.48100724 -51.41496468 281.13142776 C-51.72878271 279.5285663 -52.0425855 277.92570186 -52.35637093 276.32283401 C-55.1366748 262.858073 -59.52783574 249.49525082 -67.41496468 238.13142776 C-67.93703499 237.35283401 -68.4591053 236.57424026 -68.99699593 235.77205276 C-77.39202273 224.05440411 -88.855157 219.52137968 -102.41496468 216.13142776 C-102.41496468 207.55142776 -102.41496468 198.97142776 -102.41496468 190.13142776 C-99.96058968 189.43017776 -97.50621468 188.72892776 -94.97746468 188.00642776 C-88.33056517 185.98363302 -82.78587416 183.65941785 -77.41496468 179.13142776 C-76.74336311 178.58099808 -76.07176155 178.03056839 -75.37980843 177.46345901 C-54.10595897 158.23911336 -48.67810586 120.83599848 -47.24202156 93.88591385 C-46.93915491 84.94872457 -46.93291711 76.00689784 -46.90373421 67.0655098 C-46.8077198 46.62607961 -46.06108229 29.7320864 -31.35246468 13.94002151 C-22.734963 5.89586168 -11.96239421 0.01559687 0 0 Z M-14.22746468 33.88142776 C-15.04150764 34.80181839 -15.04150764 34.80181839 -15.87199593 35.74080276 C-20.33190879 42.65084497 -20.83803983 48.97691986 -20.78605843 56.97908401 C-20.80015003 59.11832929 -20.81482074 61.25757082 -20.83000374 63.39680862 C-20.83294441 64.5073259 -20.83588509 65.61784317 -20.83891487 66.76201248 C-21.01629645 111.68949125 -24.5339656 162.70973493 -57.72746468 196.63142776 C-59.911578 198.79338983 -61.83732442 200.41300093 -64.41496468 202.13142776 C-64.41496468 202.79142776 -64.41496468 203.45142776 -64.41496468 204.13142776 C-62.92818806 205.59554899 -62.92818806 205.59554899 -60.97746468 207.13142776 C-41.88440382 223.56893966 -33.07826373 246.11396345 -27.41496468 270.13142776 C-27.12750374 271.28384964 -26.8400428 272.43627151 -26.54387093 273.62361526 C-22.62488283 290.88340742 -21.43993967 308.85279152 -21.14543343 326.51033401 C-21.12865547 327.4903186 -21.11187752 328.47030319 -21.09459114 329.47998428 C-21.01860015 334.36315638 -20.97408973 339.24450253 -20.96916389 344.12825394 C-20.89682262 355.93321822 -20.20706116 365.16379403 -12.36808968 374.56111526 C-5.13925676 380.37309693 1.31848407 380.70872377 10.28654289 380.64609146 C12.19118968 380.65650975 12.19118968 380.65650975 14.13431418 380.66713852 C17.6429581 380.68571442 21.15117849 380.6794786 24.65983963 380.66898549 C28.45001048 380.66197893 32.24009558 380.67800249 36.03024101 380.69098282 C43.44943985 380.71260442 50.86848519 380.71250056 58.28770517 380.70435727 C64.31957589 380.69805221 70.35140192 380.69919895 76.38327217 380.70562935 C77.67202147 380.70698183 77.67202147 380.70698183 78.9868061 380.70836164 C80.73232353 380.71021288 82.47784094 380.71207544 84.22335835 380.7139492 C100.58544926 380.73052154 116.94745391 380.72181358 133.30953963 380.70496362 C148.26912646 380.69027022 163.22851237 380.70489096 178.18807332 380.73373378 C193.55882547 380.76314805 208.92948495 380.77409395 224.300264 380.76455158 C226.0398983 380.76352906 227.77953262 380.76253445 229.51916695 380.76156807 C230.80297385 380.76085348 230.80297385 380.76085348 232.11271625 380.76012446 C238.13395494 380.75796285 244.15510566 380.76775106 250.17632484 380.7823391 C257.51928262 380.79988158 264.86198439 380.79971784 272.2049322 380.77698744 C275.9490761 380.76586196 279.69276929 380.76264362 283.43689346 380.78128815 C287.50148493 380.80126746 291.56498314 380.78227066 295.62956047 380.75961685 C296.80506002 380.77145258 297.98055957 380.78328831 299.19168031 380.7954827 C307.44843523 380.70209791 314.17299537 379.01315677 320.49198568 373.45368582 C326.94723229 366.82252981 328.02471374 358.34268265 327.99128532 349.46345901 C328.01083535 347.59700242 328.03053521 345.7305474 328.05036736 343.86409378 C328.05789024 342.41475952 328.05789024 342.41475952 328.06556511 340.93614578 C328.3761641 293.2027289 332.09744754 242.09423878 367.92097282 206.62752151 C369.58503532 205.13142776 369.58503532 205.13142776 371.58503532 204.13142776 C370.46777093 200.77963458 369.63053566 200.11435371 366.96003532 197.94392776 C339.52558422 174.46355235 331.8282999 133.93865438 329.00300407 99.74080276 C328.59660035 93.57380784 328.46474648 87.41591265 328.37409782 81.23689651 C328.3524733 79.7880381 328.3524733 79.7880381 328.33041191 78.30990982 C328.27322159 74.29578535 328.21835524 70.281804 328.18366814 66.26741409 C328.15594213 63.29858046 328.11013334 60.33045347 328.06159782 57.36189651 C328.05671852 56.02097191 328.05671852 56.02097191 328.05174065 54.65295792 C327.90601222 47.13128929 326.60140622 39.61849349 321.46003532 33.81892776 C320.68273064 32.89660355 320.68273064 32.89660355 319.88972282 31.95564651 C312.4583297 26.07350992 304.95548114 25.55378829 295.74981499 25.62349319 C294.47778491 25.61725323 293.20575482 25.61101327 291.89517838 25.60458422 C288.38492246 25.5879627 284.87510431 25.59610406 281.3648473 25.60852909 C277.57133157 25.61760683 273.77788932 25.60359647 269.98438835 25.59260941 C262.56131092 25.57484907 255.13839552 25.57865289 247.71531182 25.59025997 C241.68154245 25.59930314 235.6478184 25.60051447 229.61404419 25.5961647 C228.75443604 25.59555177 227.89482788 25.59493884 227.009171 25.59430733 C225.26276364 25.5930284 223.5163563 25.59173155 221.76994897 25.59041697 C205.40504855 25.57901863 189.04023786 25.59211351 172.67535216 25.61361843 C158.63942365 25.63149193 144.60362747 25.6283818 130.56770134 25.60994339 C114.25876518 25.58852899 97.94990758 25.58011384 81.64095932 25.59239244 C79.90137646 25.59366661 78.16179358 25.5949241 76.42221069 25.5961647 C75.13842413 25.59709036 75.13842413 25.59709036 73.82870249 25.59803471 C67.80302259 25.60148566 61.7773926 25.59566483 55.75172043 25.58624649 C48.40729095 25.57501893 41.06303244 25.57808255 33.7186225 25.59936947 C29.97275529 25.60986929 26.22717297 25.61402013 22.48130798 25.60077286 C18.41838218 25.58662175 14.35617334 25.6035381 10.29327202 25.62349319 C9.11262891 25.61457031 7.9319858 25.60564742 6.71556562 25.59645414 C-1.75638721 25.677253 -8.47356233 27.10554276 -14.22746468 33.88142776 Z " fill="#F5EDFD" transform="translate(146.41496467590332,96.86857223510742)"/>
<path d="M0 0 C0.92868896 -0.0065712 1.85737793 -0.0131424 2.81420898 -0.01991272 C5.90869218 -0.03972465 9.00312632 -0.05133508 12.09765625 -0.0612793 C13.15671173 -0.06535482 14.21576721 -0.06943035 15.30691528 -0.07362938 C20.92856656 -0.09453859 26.55019318 -0.10881073 32.171875 -0.11816406 C37.9423924 -0.12914804 43.71251553 -0.16343995 49.4828949 -0.20333576 C53.94605142 -0.22969 58.40911751 -0.23787319 62.87234497 -0.24144554 C64.9962933 -0.246275 67.12023861 -0.25778304 69.24411011 -0.27648354 C84.85217337 -0.40519943 100.49407628 0.29078013 114.59765625 7.80200195 C115.57774658 8.31077881 115.57774658 8.31077881 116.57763672 8.82983398 C128.44715711 15.32303914 136.06420128 25.71191695 140.53515625 38.30200195 C144.1993351 51.31826907 143.15001112 65.67808554 137.03515625 77.80200195 C130.64911279 88.42605607 121.5772217 96.46125753 110.16015625 101.17700195 C107.76166203 101.76386756 105.63387043 102.01567277 103.16015625 102.17700195 C103.16015625 102.83700195 103.16015625 103.49700195 103.16015625 104.17700195 C103.73121094 104.19118164 104.30226563 104.20536133 104.890625 104.2199707 C119.05395225 105.0531076 131.34452201 111.70825577 140.97265625 121.98950195 C151.16430649 134.50299098 154.51776608 148.33822059 153.16015625 164.17700195 C150.95031639 179.83804094 144.66065004 194.04038359 132.16015625 204.17700195 C111.86188553 218.10617242 89.52893848 219.49558634 65.609375 219.4074707 C63.45701627 219.4062764 61.30465702 219.40582627 59.15229797 219.40608215 C54.67351961 219.40452828 50.19482243 219.39631622 45.71606445 219.3828125 C39.96355648 219.36569011 34.21113625 219.36200254 28.45860577 219.36275768 C24.02957821 219.36248671 19.60056999 219.35701941 15.17154884 219.34975624 C13.04835977 219.34656827 10.9251685 219.34460187 8.80197716 219.34386253 C5.85321628 219.34170788 2.90455105 219.33298674 -0.04418945 219.32226562 C-1.36633705 219.3229454 -1.36633705 219.3229454 -2.7151947 219.32363892 C-8.72535623 219.29148947 -8.72535623 219.29148947 -9.83984375 218.17700195 C-9.93996321 215.38505654 -9.97423657 212.61777547 -9.96682739 209.82531738 C-9.96838738 208.93903766 -9.96994737 208.05275794 -9.97155464 207.13962126 C-9.9755686 204.14620559 -9.97237347 201.15283994 -9.96923828 198.15942383 C-9.97059215 196.02299469 -9.97237199 193.88656579 -9.97454834 191.75013733 C-9.97912443 185.93006129 -9.97733239 180.11000289 -9.97416925 174.28992653 C-9.97164656 168.21383235 -9.97398294 162.13773974 -9.97555542 156.06164551 C-9.97737738 145.8557915 -9.97497011 135.64994471 -9.97021484 125.4440918 C-9.96477217 113.62607033 -9.96653481 101.80806612 -9.97204125 89.99004507 C-9.97657163 79.86355233 -9.9772233 69.73706481 -9.97460258 59.61057138 C-9.97303939 53.55360538 -9.97284718 47.4966475 -9.97613907 41.43968201 C-9.97901669 35.74675624 -9.9770441 30.05385283 -9.97124481 24.36092949 C-9.96991663 22.26502456 -9.97031231 20.16911777 -9.97250748 18.07321358 C-9.9752167 15.22501204 -9.97184066 12.37688335 -9.96682739 9.52868652 C-9.96905811 8.6879457 -9.97128884 7.84720489 -9.97358716 6.98098707 C-9.94519302 -1.26446776 -7.41415735 0.02249932 0 0 Z " fill="#F5EDFD" transform="translate(231.83984375,191.822998046875)"/>
<path d="M0 0 C8.765625 -0.061875 17.53125 -0.12375 26.5625 -0.1875 C29.29732666 -0.21481201 32.03215332 -0.24212402 34.84985352 -0.27026367 C53.75295525 -0.38192305 71.97694523 -0.21122907 87 13 C88.51171875 14.9296875 88.51171875 14.9296875 89.6875 16.875 C90.08324219 17.51179688 90.47898437 18.14859375 90.88671875 18.8046875 C95.54685755 27.99415419 95.62788099 40.21499177 92.5 50 C88.47561094 59.20858469 82.215312 64.46020263 73.3203125 68.80859375 C64.27022671 72.05597748 55.43912729 72.27376298 45.8984375 72.1953125 C44.14430542 72.19229126 44.14430542 72.19229126 42.35473633 72.18920898 C38.02811708 72.17882398 33.70155418 72.15090202 29.375 72.125 C14.834375 72.063125 14.834375 72.063125 0 72 C0 48.24 0 24.48 0 0 Z " fill="#7912F3" transform="translate(256,311)"/>
<path d="M0 0 C8.8275 -0.061875 17.655 -0.12375 26.75 -0.1875 C29.51213867 -0.21481201 32.27427734 -0.24212402 35.12011719 -0.27026367 C37.3456987 -0.27903763 39.57128508 -0.2866794 41.796875 -0.29296875 C42.92303223 -0.30831665 44.04918945 -0.32366455 45.20947266 -0.33947754 C56.39943635 -0.34311537 67.46790133 1.17750162 76 9 C83.47949885 18.12016312 84.93386228 26.44345427 84 38 C82.48822733 44.9919486 79.70382914 51.48211554 74 56 C70.11332519 58.27821373 66.12966167 60.20473658 62 62 C61.21753906 62.36480469 60.43507813 62.72960937 59.62890625 63.10546875 C52.53763458 65.51839774 44.89711388 65.13486448 37.5 65.09765625 C36.54480469 65.09664917 35.58960938 65.09564209 34.60546875 65.09460449 C31.07030012 65.08941067 27.53514873 65.07544968 24 65.0625 C16.08 65.041875 8.16 65.02125 0 65 C0 43.55 0 22.1 0 0 Z " fill="#7C12F3" transform="translate(256,220)"/>
</svg>
