<?xml version="1.0" encoding="UTF-8"?>
<svg version="1.1" xmlns="http://www.w3.org/2000/svg" width="559" height="779">
<path d="M0 0 C183.81 0 367.62 0 557 0 C555.851373 20.67528597 555.851373 20.67528597 555.09887695 28.66271591 C555.01360402 29.59678607 554.92833109 30.53085622 554.84047413 31.49323153 C554.55947924 34.56265282 554.27390675 37.63162901 553.98828125 40.70062256 C553.78161391 42.94749774 553.5752327 45.19439925 553.36911011 47.44132447 C552.80615408 53.56899843 552.2391529 59.69629215 551.67144394 65.82352734 C551.12140639 71.76703832 550.57446459 77.710834 550.02741826 83.65462087 C548.84070694 96.54718874 547.65030757 109.43941402 546.45834649 122.33149747 C545.41591317 133.60648045 544.37479577 144.88158402 543.33496094 156.15680695 C543.23130573 157.28074478 543.23130573 157.28074478 543.12555647 158.42738844 C542.84502381 161.46924202 542.56449801 164.51109624 542.28398204 167.55295136 C539.65632034 196.04660018 537.02501993 224.53991192 534.39194965 253.0330614 C532.05290304 278.34471188 529.71662615 303.65661649 527.3828125 328.96875 C527.23279071 330.59585118 527.08276883 332.22295235 526.93274689 333.85005352 C526.85857835 334.65446729 526.78440981 335.45888107 526.70799375 336.28767102 C526.33463288 340.33703354 525.96126535 344.38639544 525.58789062 348.43575668 C525.51422822 349.2346496 525.44056582 350.03354252 525.36467123 350.85664432 C523.4130862 372.02180321 521.4594105 393.18676911 519.50506592 414.35167336 C519.29485798 416.62817499 519.08465039 418.90467666 518.87444353 421.18117839 C518.73500369 422.69128085 518.59556221 424.20138316 518.45611906 425.71148532 C517.48390638 436.24026348 516.5125036 446.76911609 515.54165351 457.29801999 C514.29140978 470.85693274 513.03973076 484.41571168 511.78549862 497.97425613 C511.18071016 504.51258125 510.57667136 511.05097399 509.97451782 517.58954239 C509.4237505 523.56988221 508.87095145 529.55003055 508.31650162 535.53003004 C508.11587799 537.69775003 507.91600599 539.86553974 507.71694565 542.03340384 C507.44703921 544.97158771 507.17442965 547.90950853 506.90112305 550.84737778 C506.78516643 552.12034962 506.78516643 552.12034962 506.66686726 553.41903806 C506.27018752 557.65059331 505.7647757 561.81489711 505 566 C487.49496507 571.2410179 469.88170164 576.03173089 452.21893311 580.70492554 C444.02278174 582.8735734 435.82990874 585.05457161 427.63671875 587.234375 C426.77554192 587.463402 425.91436508 587.69242901 425.02709198 587.92839622 C403.92374621 593.54151527 382.83851253 599.22162777 361.75544357 604.91035843 C358.91955269 605.67547972 356.08358302 606.44030829 353.24758911 607.20504761 C349.61285033 608.18517582 345.97827703 609.16591423 342.34382629 610.14710999 C338.85655792 611.08851141 335.36870754 612.02771094 331.88041687 612.96531677 C324.50363263 614.95091536 317.13234628 616.94991195 309.7842617 619.03960323 C306.75712023 619.90043543 303.72741296 620.75205096 300.69769669 621.6037693 C298.651075 622.18412944 296.60933627 622.77971448 294.56735229 623.37614441 C280.2744841 627.39255365 269.71692553 625.53997943 255.7265625 621.62890625 C254.00169535 621.15796956 252.27647508 620.68832463 250.55093384 620.21986389 C246.84637336 619.21137444 243.14430436 618.19435641 239.44396973 617.17047119 C233.55066724 615.5399162 227.65230632 613.92824362 221.75292969 612.31982422 C215.55517813 610.62917216 209.3577706 608.9373125 203.16210938 607.23901367 C188.36110073 603.18246583 173.54856779 599.17053152 158.7265625 595.19140625 C157.69495121 594.91444727 156.66333992 594.63748829 155.60046768 594.35213661 C150.47348424 592.9759643 145.3462797 591.60061817 140.21893311 590.22579956 C126.39649676 586.51934538 112.57645668 582.80395397 98.75708199 579.08610249 C94.36206646 577.90378416 89.96679237 576.72244115 85.57104492 575.54284668 C81.18029867 574.36458181 76.79010024 573.18429696 72.40029144 572.0025444 C70.76195041 571.56188825 69.12340882 571.12197698 67.48465729 570.68284988 C65.24541907 570.08269848 63.00690545 569.4799163 60.76855469 568.87646484 C59.50420593 568.53674652 58.23985718 568.1970282 56.93719482 567.84701538 C54 567 54 567 52 566 C51.57434338 564.13837034 51.57434338 564.13837034 51.31854534 561.5988512 C51.21484389 560.60907565 51.11114243 559.6193001 51.00429851 558.59953135 C50.8964266 557.46967871 50.78855469 556.33982607 50.67741394 555.17573547 C50.55352521 553.95019811 50.42963648 552.72466075 50.30199355 551.46198589 C49.85163993 546.97620037 49.4256959 542.48818157 49 538 C48.83044907 536.22335669 48.66087615 534.44671548 48.49128366 532.67007613 C47.13615354 518.43610229 45.82102419 504.19846684 44.50919664 489.96044838 C43.97319279 484.14731485 43.43524095 478.33436177 42.89737794 472.52140001 C41.6647144 459.19841586 40.43479659 445.87517913 39.20577518 432.55185857 C38.25732911 422.27029823 37.30814415 411.98880634 36.35844994 401.70736122 C36.22149386 400.22463191 36.08453807 398.74190258 35.94758257 397.25917322 C35.74116363 395.02441331 35.53474452 392.78965341 35.32832395 390.55489365 C33.41346067 369.82390127 31.49943801 349.09283142 29.58718586 328.36159801 C29.51532375 327.58252419 29.44346165 326.80345037 29.3694219 326.00076824 C29.00527703 322.05296006 28.64114025 318.10515114 28.2770066 314.15734192 C28.16854607 312.98145132 28.16854607 312.98145132 28.05789441 311.78180536 C27.91167362 310.19653007 27.76545323 308.61125474 27.61923325 307.02597938 C25.33885297 282.30296681 23.05565386 257.58021596 20.77026367 232.85766602 C18.19790937 205.03078794 15.62768723 177.20371412 13.0606038 149.37634927 C12.78710991 146.41173482 12.51360866 143.44712105 12.24010277 140.48250771 C12.1727679 139.75262877 12.10543302 139.02274984 12.0360577 138.27075336 C11.01973934 127.25481204 10.00174742 116.23902619 8.98290443 105.2233181 C7.82583632 92.71310048 6.67105301 80.20267443 5.51914064 67.69198098 C4.93138436 61.30915353 4.3425882 54.92642646 3.75102043 48.54395103 C3.20991583 42.70563515 2.67175177 36.86705606 2.13596036 31.02825025 C1.94134283 28.91312638 1.74563704 26.7981023 1.54875008 24.68318846 C1.28183951 21.81436999 1.01885853 18.94521749 0.75687122 16.07594585 C0.67911584 15.25043125 0.60136046 14.42491665 0.52124885 13.57438645 C0.45178008 12.80468517 0.38231131 12.03498388 0.31073743 11.24195832 C0.25026425 10.5867092 0.18979106 9.93146009 0.12748535 9.25635494 C-0.04658336 6.17552424 0 3.08574427 0 0 Z " fill="#1F62AE" transform="translate(1,153)"/>
<path d="M0 0 C115.17 0 230.34 0 349 0 C349 11.25092424 349 11.25092424 348.55688477 15.79760742 C348.4600087 16.81533737 348.36313263 17.83306732 348.26332092 18.88163757 C348.15708908 19.94550186 348.05085724 21.00936615 347.94140625 22.10546875 C347.8327977 23.2289119 347.72418915 24.35235504 347.61228943 25.50984192 C347.38333274 27.86900299 347.15210241 30.22794442 346.91870117 32.58666992 C346.56256242 36.18686904 346.21328989 39.78768317 345.86523438 43.38867188 C345.64102358 45.69014303 345.41642744 47.99157669 345.19140625 50.29296875 C345.08719864 51.36290573 344.98299103 52.43284271 344.87562561 53.53520203 C344.68005803 55.50650162 344.47031556 57.47647082 344.24330139 59.44439697 C343.930724 62.2213475 343.930724 62.2213475 344.06835938 65.91186523 C342.78483731 69.62193622 342.0448972 69.88445868 338.65600586 71.63623047 C336.68776919 72.49173257 334.70603757 73.31657111 332.71484375 74.1171875 C331.64842148 74.57167267 330.58199921 75.02615784 329.48326111 75.49441528 C325.97843813 76.98087123 322.45865096 78.42769977 318.9375 79.875 C316.50492356 80.89843439 314.07345128 81.92449704 311.64306641 82.953125 C306.74339023 85.02212129 301.83797199 87.07600192 296.92626953 89.11621094 C290.87327193 91.63165337 284.83608297 94.18191786 278.80859375 96.7578125 C277.96376434 97.11870972 277.11893494 97.47960693 276.24850464 97.85144043 C274.59821715 98.55645042 272.9479581 99.26152699 271.29772949 99.9666748 C267.27860691 101.68088212 263.25438763 103.38302723 259.23046875 105.0859375 C244.46453631 111.33823988 229.73579631 117.67700377 215 124 C203.45 128.95 191.9 133.9 180 139 C257.715 139.495 257.715 139.495 337 140 C331.35752992 207.70964093 331.35752992 207.70964093 329.45758057 229.28359985 C328.84298418 236.26686531 328.23333656 243.2505617 327.625 250.234375 C327.56114231 250.96736628 327.49728462 251.70035755 327.43149185 252.45556068 C325.62252326 273.23778247 323.87451104 294.02520416 322.125 314.8125 C322.04609779 315.74993671 321.96719559 316.68737343 321.8859024 317.65321732 C320.92239572 329.10201573 319.960401 340.55094065 319 352 C317.82392181 352.33553139 317.82392181 352.33553139 316.62408447 352.67784119 C313.65266016 353.52574017 310.68131601 354.37391939 307.71002197 355.22227478 C305.81666935 355.76277207 303.92322847 356.30296014 302.02978516 356.84313965 C291.31960711 359.90142782 280.6251259 363.01171581 269.93554688 366.14111328 C264.95801478 367.59744711 259.97892033 369.04842091 255 370.5 C252.99999271 371.08330834 250.99999271 371.66664166 249 372.25 C236.99999997 375.75000001 236.99999997 375.75000001 233.99829102 376.62548828 C232.00398033 377.207169 230.00967692 377.78887461 228.01538086 378.37060547 C222.92839441 379.85443108 217.84127145 381.33778594 212.75390625 382.8203125 C211.72644287 383.12001953 210.69897949 383.41972656 209.64038086 383.72851562 C207.60916107 384.32014242 205.57743185 384.91002336 203.54516602 385.49804688 C199.00162556 386.81547388 194.47005615 388.1547278 189.9609375 389.5859375 C189.19064209 389.82618652 188.42034668 390.06643555 187.62670898 390.31396484 C186.22654591 390.7527357 184.82976646 391.20255311 183.43774414 391.66650391 C174.87262515 394.32606405 166.98932254 390.9446579 158.75 388.4375 C156.32164911 387.70821837 153.89326269 386.97905503 151.46484375 386.25 C150.22589355 385.87617187 148.98694336 385.50234375 147.71044922 385.1171875 C141.91645008 383.37265927 136.1146234 381.654777 130.3125 379.9375 C128.63595337 379.44056641 128.63595337 379.44056641 126.92553711 378.93359375 C119.55928865 376.75179384 112.18812876 374.58736591 104.8125 372.4375 C103.35432861 372.01223022 103.35432861 372.01223022 101.86669922 371.57836914 C96.81180598 370.105601 91.75482834 368.64040418 86.6953125 367.18359375 C76.95096203 364.37087727 67.27848954 361.48436872 57.68359375 358.1953125 C52.43978865 356.49371721 47.13404601 355.04248587 41.81103516 353.61083984 C36.18519646 352.09259823 36.18519646 352.09259823 34 351 C33.14132042 348.42396126 32.79197991 346.5680489 32.58276367 343.90722656 C32.51552597 343.07645096 32.44828827 342.24567535 32.37901306 341.38972473 C32.30936844 340.48252182 32.23972382 339.57531891 32.16796875 338.640625 C32.09135513 337.68391403 32.01474152 336.72720306 31.93580627 335.74150085 C31.68302245 332.57792384 31.43528328 329.41397227 31.1875 326.25 C30.8338311 321.79803277 30.47756488 317.34627488 30.12109375 312.89453125 C30.02998322 311.75266861 29.93887268 310.61080597 29.84500122 309.43434143 C29.20745785 301.4784346 28.5381015 293.52569986 27.84765625 285.57421875 C27.75497971 284.50396454 27.66230316 283.43371033 27.56681824 282.33102417 C27.20743584 278.18607974 26.84753539 274.04119517 26.48129272 269.89685059 C26.22938744 267.0447625 25.98156285 264.19234396 25.734375 261.33984375 C25.65957413 260.50853439 25.58477325 259.67722504 25.50770569 258.82072449 C25.44038742 258.03675797 25.37306915 257.25279144 25.30371094 256.44506836 C25.24471619 255.77567734 25.18572144 255.10628632 25.12493896 254.41661072 C24.9456523 250.94878887 25 247.47245332 25 244 C48.43 244 71.86 244 96 244 C96.99 255.385 96.99 255.385 98 267 C98.31324219 270.57134766 98.31324219 270.57134766 98.6328125 274.21484375 C98.79714566 276.12237254 98.96122493 278.02992322 99.125 279.9375 C99.21136719 280.91138672 99.29773438 281.88527344 99.38671875 282.88867188 C99.84632698 288.28359711 100.08949474 293.58556836 100 299 C101.09054688 299.23074219 102.18109375 299.46148438 103.3046875 299.69921875 C104.82818475 300.02836939 106.35161873 300.35781301 107.875 300.6875 C108.58269531 300.83638672 109.29039062 300.98527344 110.01953125 301.13867188 C115.55183045 302.34442939 120.9926144 303.80828967 126.44140625 305.33984375 C135.15233419 307.78620577 143.89003675 310.09795686 152.67163086 312.27734375 C154.28324898 312.68020714 155.89326435 313.08953028 157.50170898 313.50488281 C159.88439979 314.11961656 162.27136772 314.71415386 164.66015625 315.3046875 C165.36656754 315.49102753 166.07297882 315.67736755 166.80079651 315.86935425 C174.17493423 317.64397341 180.86100567 316.49546377 188.109375 314.51171875 C189.18646729 314.21974609 190.26355957 313.92777344 191.37329102 313.62695312 C192.48760498 313.31693359 193.60191895 313.00691406 194.75 312.6875 C196.4978479 312.20893555 196.4978479 312.20893555 198.28100586 311.72070312 C204.68789098 309.95551797 211.05959196 308.11126738 217.39453125 306.1015625 C222.82293269 304.44304765 228.28582488 302.91090177 233.75 301.375 C234.81677979 301.07335937 235.88355957 300.77171875 236.98266602 300.4609375 C242.95872442 298.78855573 248.92819832 297.28295391 255 296 C254.97752197 295.13753662 254.95504395 294.27507324 254.93188477 293.38647461 C254.73453346 278.77793094 255.81299675 264.24077147 256.79595947 249.67474365 C256.98542084 246.84736561 257.16942986 244.01964422 257.3532629 241.19189548 C257.57570943 237.774917 257.80145325 234.35815848 258.02734375 230.94140625 C258.10967758 229.69017471 258.19201141 228.43894318 258.27684021 227.14979553 C258.35684769 225.96413498 258.43685516 224.77847443 258.51928711 223.55688477 C258.62254555 222.01497215 258.62254555 222.01497215 258.72789001 220.44190979 C259.08259551 215.9552523 259.55216791 211.47832087 260 207 C180.47 207 100.94 207 19 207 C15 151 15 151 15 139 C17.18109375 138.09121094 17.18109375 138.09121094 19.40625 137.1640625 C20.36394287 136.76501709 21.32163574 136.36597168 22.30834961 135.95483398 C24.47841508 135.05065387 26.64850045 134.14652152 28.81860352 133.24243164 C34.04488061 131.06503484 39.2709997 128.88726565 44.49609375 126.70703125 C71.51299587 115.43649252 98.56129351 104.24113852 125.61419678 93.05734253 C127.59335796 92.23904129 129.57240595 91.4204662 131.55133057 90.60159302 C141.63435422 86.42973471 151.72233401 82.27851616 161.87207031 78.27124023 C165.84769754 76.65548228 169.74551377 74.89461973 173.6328125 73.078125 C176.05489417 71.9749987 178.52889679 70.98844128 181 70 C123.91 69.67 66.82 69.34 8 69 C3.275 33.5625 3.275 33.5625 1.75 21 C1.57556384 19.5976509 1.40108438 18.19530719 1.2265625 16.79296875 C1.06215422 15.44535464 0.89807658 14.09770014 0.734375 12.75 C0.59225586 11.58984375 0.45013672 10.4296875 0.30371094 9.234375 C0.01578235 6.16807437 0 3.07978935 0 0 Z " fill="#F7F7F7" transform="translate(103,268)"/>
<path d="M0 0 C74.58 0 149.16 0 226 0 C226 10.12290884 226 10.12290884 225.54443359 14.95361328 C225.4434285 16.04806763 225.3424234 17.14252197 225.23835754 18.2701416 C225.07009712 20.0274762 225.07009712 20.0274762 224.8984375 21.8203125 C224.71916085 23.75159091 224.53989053 25.68286991 224.36084843 27.61417007 C224.16849926 29.68198123 223.97427036 31.74960854 223.77957153 33.81719971 C223.07715694 41.28331133 222.39224824 48.75104382 221.70703125 56.21875 C221.63579733 56.99396626 221.56456341 57.76918251 221.49117088 58.56789017 C219.99623971 74.85283638 218.60678136 91.14593599 217.24493027 107.44247818 C216.68574359 114.13236102 216.12446238 120.82206856 215.5625 127.51171875 C215.49952414 128.26155722 215.43654827 129.01139568 215.37166405 129.78395653 C213.81206164 148.33892492 212.19034722 166.8884133 210.5625 185.4375 C210.4895232 186.2692701 210.4165464 187.10104019 210.34135818 187.95801544 C209.67419979 195.56180308 209.00653889 203.1655465 208.33815002 210.76922607 C207.3048505 222.52430798 206.27433392 234.27963072 205.24609375 246.03515625 C205.17402269 246.85910826 205.10195164 247.68306026 205.02769661 248.53198051 C204.66392177 252.69100473 204.30019624 256.85003325 203.93649292 261.00906372 C203.28087971 268.50587816 202.62482851 276.00265428 201.96881294 283.49943352 C201.60419093 287.66628746 201.23959687 291.83314385 200.875 296 C200.7291668 297.66666668 200.58333347 299.33333335 200.4375 301 C200.3653125 301.825 200.293125 302.65 200.21875 303.5 C200 306 199.78125 308.5 199.5625 311 C199.49031093 311.82501983 199.41812185 312.65003965 199.34374523 313.50006008 C199.19792909 315.16652659 199.05211165 316.83299298 198.90629292 318.49945927 C198.54143599 322.66918743 198.17660163 326.83891756 197.81181335 331.00865173 C197.15885377 338.472096 196.50574764 345.93552727 195.85177517 353.39888287 C195.49091362 357.51721405 195.13018738 361.63555707 194.76953125 365.75390625 C194.66216109 366.97992648 194.66216109 366.97992648 194.55262184 368.2307148 C193.54918569 379.69159735 192.55213424 391.15302177 191.55941772 402.61483765 C191.00129898 409.05850051 190.44149451 415.50201664 189.88132286 421.94550133 C189.42674987 427.17612521 188.97439388 432.40693433 188.52377605 437.63790035 C188.24381224 440.88137489 187.96165489 444.12465604 187.6789341 447.36789131 C187.54997978 448.85223104 187.42189779 450.3366469 187.29483604 451.82114983 C186.40226897 462.24206914 185.27266942 472.61918702 184 483 C175.04057468 485.7049054 166.0924519 488.2798322 157 490.5 C150.86516822 491.9986384 144.79276174 493.60246404 138.75 495.4375 C130.85839637 497.83073104 122.88065001 499.80270126 114.87304688 501.76708984 C108.26617329 503.39993146 101.74137407 505.19858176 95.23046875 507.17578125 C89.11882769 509.01280631 82.94743697 510.56173771 76.73925781 512.03735352 C71.43424215 513.31971782 66.20548121 514.80991941 60.9765625 516.37109375 C52.16488416 518.99654169 43.28759891 521.30780127 34.375 523.5625 C31.42415279 524.3125232 28.47378737 525.06442954 25.5234375 525.81640625 C24.81274109 525.99692535 24.10204468 526.17744446 23.36981201 526.36343384 C17.18437028 527.93931493 11.02298443 529.59866483 4.86572266 531.28100586 C2 532 2 532 0 532 C0 508.9 0 485.8 0 462 C23.99471831 454.3653169 23.99471831 454.3653169 32.15625 452.08203125 C37.23918222 450.65116517 42.30660693 449.16891877 47.375 447.6875 C48.40133545 447.38787354 49.4276709 447.08824707 50.48510742 446.77954102 C54.68776594 445.55250407 58.89015792 444.32455827 63.09228516 443.09570312 C73.49071216 440.05485773 83.89089022 437.02303629 94.3125 434.0625 C103.84760607 431.35287353 113.35195442 428.54232645 122.8527832 425.71508789 C124.98306188 425.08116468 127.11380899 424.44881257 129.24511719 423.81835938 C130.89902378 423.32705355 132.55131256 422.83017713 134.20019531 422.32226562 C137.35433656 421.36748044 139.63981387 421 143 421 C142.97747665 420.26445892 142.95495331 419.52891785 142.93174744 418.77108765 C142.73971765 406.87296869 143.87815623 395.1280869 144.94140625 383.2890625 C145.14722435 380.9466108 145.35249275 378.60411075 145.55725098 376.26156616 C146.10544895 370.0068575 146.66099418 363.75282228 147.21809769 357.49890137 C147.79393614 351.02176315 148.363403 344.54406511 148.93334961 338.06640625 C149.6227742 330.2356385 150.31294418 322.40493912 151.00636292 314.57452393 C152.33233229 299.59993781 153.64473113 284.62429623 154.93460274 269.64655685 C155.18309894 266.76202478 155.43213021 263.87753946 155.68138123 260.99307251 C155.76074197 260.07464506 155.84010271 259.15621761 155.92186832 258.20995903 C156.07764509 256.40738254 156.23343389 254.60480709 156.3892355 252.80223274 C156.76208383 248.48638759 157.13382035 244.17045221 157.50320435 239.85430908 C157.84357973 235.87843053 158.18735072 231.90286054 158.53382874 227.92750931 C158.65796874 226.49595938 158.78082948 225.06429785 158.90229797 223.63251877 C159.06570906 221.70784996 159.23400434 219.78359765 159.40258789 217.859375 C159.49455948 216.79170898 159.58653107 215.72404297 159.68128967 214.62402344 C160 212 160 212 161 209 C108.53 209 56.06 209 2 209 C5.54840048 206.33869964 8.78869469 204.63711019 12.81640625 202.953125 C13.49104919 202.66580505 14.16569214 202.37848511 14.86077881 202.0824585 C17.09258328 201.13326532 19.32753382 200.19172161 21.5625 199.25 C23.15348346 198.57479463 24.7442181 197.89900271 26.3347168 197.22265625 C29.62519044 195.8239222 32.91671082 194.42769503 36.20898438 193.03320312 C40.54527931 191.1949676 44.87581073 189.34364095 49.203125 187.484375 C49.86549667 187.19979431 50.52786835 186.91521362 51.21031189 186.62200928 C52.55964788 186.04219343 53.90896725 185.46233887 55.25827026 184.88244629 C73.48753685 177.05160421 91.74534816 169.28749333 110.00219727 161.52124023 C120.40029851 157.09687811 130.7954075 152.66630903 141.171875 148.19140625 C142.00730835 147.83150604 142.8427417 147.47160583 143.70349121 147.10079956 C147.51261122 145.45967269 151.3202199 143.81522618 155.125 142.1640625 C156.4322276 141.60011189 157.73951504 141.03629995 159.046875 140.47265625 C160.15901367 139.99062744 161.27115234 139.50859863 162.41699219 139.01196289 C165 138 165 138 167 138 C167.33 131.73 167.66 125.46 168 119 C170.475 94.25 170.475 94.25 173 69 C115.91 69 58.82 69 0 69 C0 46.23 0 23.46 0 0 Z " fill="#3C9BD4" transform="translate(279,199)"/>
<path d="M0 0 C23.43 0 46.86 0 71 0 C71.99 11.385 71.99 11.385 73 23 C73.31324219 26.57134766 73.31324219 26.57134766 73.6328125 30.21484375 C73.79714566 32.12237254 73.96122493 34.02992322 74.125 35.9375 C74.25455078 37.39833008 74.25455078 37.39833008 74.38671875 38.88867188 C74.84632698 44.28359711 75.08949474 49.58556836 75 55 C76.09054688 55.23074219 77.18109375 55.46148438 78.3046875 55.69921875 C79.82818475 56.02836939 81.35161873 56.35781301 82.875 56.6875 C83.58269531 56.83638672 84.29039062 56.98527344 85.01953125 57.13867188 C90.50042067 58.3332247 95.88545723 59.78779321 101.28125 61.3125 C111.66682341 64.24062315 122.13623717 66.7837223 132.625 69.3125 C139.01875 70.859375 145.4125 72.40625 152 74 C151.67 98.75 151.34 123.5 151 149 C143.02265081 147.0056627 135.12943645 144.94643502 127.25 142.625 C126.20070313 142.31755859 125.15140625 142.01011719 124.0703125 141.69335938 C117.08987633 139.63953325 110.14474739 137.49427132 103.20703125 135.30078125 C98.05498168 133.69131459 92.87082623 132.1925255 87.6875 130.6875 C51.82248135 120.27230545 51.82248135 120.27230545 35.68457031 115.08886719 C29.37083509 113.07704234 23.00524634 111.28317059 16.60717773 109.55981445 C11.18939641 108.0946982 11.18939641 108.0946982 9 107 C8.14132042 104.42396126 7.79197991 102.5680489 7.58276367 99.90722656 C7.51552597 99.07645096 7.44828827 98.24567535 7.37901306 97.38972473 C7.27454613 96.02892036 7.27454613 96.02892036 7.16796875 94.640625 C7.09135513 93.68391403 7.01474152 92.72720306 6.93580627 91.74150085 C6.68302245 88.57792384 6.43528328 85.41397227 6.1875 82.25 C5.8338311 77.79803277 5.47756488 73.34627488 5.12109375 68.89453125 C4.98442795 67.18173729 4.98442795 67.18173729 4.84500122 65.43434143 C4.20745785 57.4784346 3.5381015 49.52569986 2.84765625 41.57421875 C2.75497971 40.50396454 2.66230316 39.43371033 2.56681824 38.33102417 C2.20743584 34.18607974 1.84753539 30.04119517 1.48129272 25.89685059 C1.22938744 23.0447625 0.98156285 20.19234396 0.734375 17.33984375 C0.65957413 16.50853439 0.58477325 15.67722504 0.50770569 14.82072449 C0.44038742 14.03675797 0.37306915 13.25279144 0.30371094 12.44506836 C0.24471619 11.77567734 0.18572144 11.10628632 0.12493896 10.41661072 C-0.0543477 6.94878887 0 3.47245332 0 0 Z " fill="#E1E1E0" transform="translate(128,512)"/>
<path d="M0 0 C58.08 0 116.16 0 176 0 C176 22.44 176 44.88 176 68 C178.97 68 181.94 68 185 68 C183 70 183 70 180.02086449 70.23047829 C178.7321979 70.22126036 177.4435313 70.21204243 176.11581421 70.20254517 C175.04131844 70.19898311 175.04131844 70.19898311 173.94511569 70.1953491 C171.53275314 70.18489052 169.12075124 70.16000792 166.70849609 70.13525391 C164.98409009 70.12483309 163.25967854 70.11529688 161.53526306 70.10658264 C156.84328866 70.08035021 152.15148801 70.04168543 147.45962095 70.00085878 C142.5602545 69.96031758 137.66082112 69.93111231 132.76138306 69.90072632 C123.47885582 69.84142301 114.19643464 69.77186255 104.91400778 69.69865549 C94.34831342 69.61582432 83.78255183 69.5443691 73.21676898 69.47388959 C51.47774692 69.32862257 29.73884963 69.16900398 8 69 C7.45312243 64.90955219 6.90665348 60.81905004 6.36053848 56.72850037 C6.17528797 55.34133992 5.98993209 53.95419354 5.80446243 52.56706238 C4.39850275 42.05109354 3.02853925 31.53222904 1.75 21 C1.57556384 19.5976509 1.40108438 18.19530719 1.2265625 16.79296875 C1.06215422 15.44535464 0.89807658 14.09770014 0.734375 12.75 C0.59225586 11.58984375 0.45013672 10.4296875 0.30371094 9.234375 C0.01578235 6.16807437 0 3.07978935 0 0 Z " fill="#E1E0E0" transform="translate(103,268)"/>
<path d="M0 0 C53.13 0.33 106.26 0.66 161 1 C161 23.11 161 45.22 161 68 C109.19 68 57.38 68 4 68 C0 12 0 12 0 0 Z " fill="#E2E1E1" transform="translate(118,407)"/>
<path d="M0 0 C41.91 0 83.82 0 127 0 C127 11.24946348 127 11.24946348 126.64868164 16.55688477 C126.53339867 18.3353756 126.53339867 18.3353756 126.41578674 20.14979553 C126.28924965 22.02664284 126.28924965 22.02664284 126.16015625 23.94140625 C126.07257093 25.27642384 125.98529204 26.61146156 125.89830017 27.94651794 C125.66970624 31.44339764 125.43734576 34.94001635 125.20404053 38.43658447 C124.8339715 43.99496058 124.4703299 49.55376404 124.10523605 55.11246872 C123.97384824 57.11077697 123.84198307 59.10905381 123.71011353 61.10733032 C123.09842522 70.40267211 122.52043402 79.69908814 122 89 C111.65230435 92.70111615 101.16706053 95.61034748 90.53762817 98.38775635 C80.81995728 100.92979459 71.18462266 103.66200694 61.62109375 106.74169922 C55.35379984 108.72404047 49.5951946 109.80087371 43 111 C43 74.7 43 38.4 43 1 C28.81 1 14.62 1 0 1 C0 0.67 0 0.34 0 0 Z " fill="#3D9BD4" transform="translate(236,475)"/>
<path d="M0 0 C28.71 0 57.42 0 87 0 C87 12.54 87 25.08 87 38 C71.655 38.495 71.655 38.495 56 39 C58.2378125 40.83175781 60.475625 42.66351563 62.78125 44.55078125 C64.95751653 46.45175675 67.1010944 48.38427946 69.24462891 50.32202148 C70.7175425 51.62194187 72.22075342 52.88852538 73.75537109 54.11499023 C79.93523883 59.08451521 82.25819926 62.86817872 87 70 C87 81.55 87 93.1 87 105 C58.29 105 29.58 105 0 105 C0 93.45 0 81.9 0 70 C10.56 69.67 21.12 69.34 32 69 C22.44041473 59.34154973 22.44041473 59.34154973 11.71875 51.15234375 C7.5 47.9375 7.5 47.9375 0 38 C0 25.46 0 12.92 0 0 Z " fill="#231F20" transform="translate(358,0)"/>
<path d="M0 0 C28.38 0 56.76 0 86 0 C86 12.54 86 25.08 86 38 C70.655 38.495 70.655 38.495 55 39 C58.465 42.485625 61.93 45.97125 65.5 49.5625 C66.57572266 50.64732666 67.65144531 51.73215332 68.75976562 52.84985352 C74.00544427 58.11053364 79.33684934 63.18651352 85 68 C93.72416822 76.72416822 86 92.66216298 86 105 C57.62 105 29.24 105 0 105 C0 93.45 0 81.9 0 70 C15.345 69.505 15.345 69.505 31 69 C27.8733226 65.85018107 24.74507887 62.70208066 21.61279297 59.55786133 C20.55099139 58.49107703 19.49009442 57.42339147 18.43017578 56.35473633 C16.89341087 54.80563666 15.35325887 53.25996989 13.8125 51.71484375 C12.42998047 50.32446899 12.42998047 50.32446899 11.01953125 48.90600586 C7.46074829 45.48102255 3.71710778 42.2524693 0 39 C0 26.13 0 13.26 0 0 Z " fill="#231F20" transform="translate(237,0)"/>
<path d="M0 0 C28.71 0 57.42 0 87 0 C87 12.54 87 25.08 87 38 C70.83 38 54.66 38 38 38 C38 48.56 38 59.12 38 70 C54.17 70 70.34 70 87 70 C87 81.55 87 93.1 87 105 C58.29 105 29.58 105 0 105 C0 70.35 0 35.7 0 0 Z " fill="#231F20" transform="translate(114,0)"/>
</svg>
