<?xml version="1.0" encoding="UTF-8"?>
<svg version="1.1" xmlns="http://www.w3.org/2000/svg" width="512" height="731">
<path d="M0 0 C168.3 0 336.6 0 510 0 C508.85134941 19.52705997 508.85134941 19.52705997 508.17975712 26.9021492 C508.10322565 27.76614179 508.02669418 28.63013437 507.94784358 29.52030855 C507.69592747 32.35728701 507.44040391 35.19392756 507.18482971 38.03057861 C506.99956079 40.10819289 506.81451425 42.18582701 506.62966865 44.26347899 C506.12505422 49.92781593 505.61722698 55.59186075 505.10881793 61.25585818 C504.55957732 67.38097404 504.01331261 73.50635546 503.46661377 79.63169861 C502.21108185 93.69194782 500.95118108 107.75180343 499.69062862 121.81160315 C499.06739051 128.7634349 498.4448193 135.71532632 497.82232873 142.66722504 C495.6900907 166.47967358 493.55678085 190.29202571 491.41967869 214.10403824 C491.28583595 215.59536993 491.15199326 217.08670162 491.01815062 218.57803331 C490.88399554 220.07283529 490.74984034 221.56763725 490.61568505 223.0624392 C490.34657126 226.06099445 490.07745971 229.05954989 489.80834961 232.05810547 C489.74162609 232.8015588 489.67490258 233.54501212 489.60615713 234.31099434 C487.43875216 258.46135104 485.27768896 282.61226939 483.12040069 306.76353175 C480.83744893 332.32136147 478.5489391 357.8786874 476.25398964 383.43544269 C476.00230809 386.23842104 475.750649 389.0414014 475.49900627 391.84438324 C475.43704585 392.53451401 475.37508542 393.22464478 475.31124741 393.9356886 C474.313733 405.04770902 473.32127897 416.16017585 472.3306224 427.27280951 C471.33608772 438.42748391 470.3357434 449.58162613 469.32984895 460.73528287 C468.78494768 466.77907568 468.24257134 472.8230678 467.70684624 478.8676815 C467.21684578 484.39570333 466.71981245 489.92304506 466.21706151 495.44992146 C466.03603294 497.45395822 465.85762944 499.45823413 465.68205471 501.46275607 C465.44380143 504.17851349 465.19616321 506.89325436 464.94608402 509.60794449 C464.87942835 510.39372708 464.81277268 511.17950967 464.74409714 511.98910385 C464.36830204 515.95261133 463.94736803 519.48802811 462 523 C459.38780554 524.1623003 457.12791946 524.93803695 454.39086914 525.65283203 C453.59948233 525.87702914 452.80809551 526.10122625 451.99272728 526.33221722 C449.34523826 527.07698018 446.69064872 527.79215906 444.03515625 528.5078125 C442.15777952 529.02988207 440.28092193 529.55382167 438.40455627 530.07951355 C433.34765739 531.49105215 428.28424488 532.87775593 423.21936798 534.26034927 C417.94785077 535.7041921 412.68288096 537.17148902 407.41748047 538.63745117 C399.982557 540.70556951 392.5459381 542.76734061 385.10672379 544.81997204 C369.98235346 548.99356377 354.88400916 553.25506719 339.79530144 557.55554962 C335.03986965 558.91079907 330.28270393 560.25980221 325.52441406 561.60498047 C314.45876952 564.73441997 303.3966452 567.87350632 292.35754395 571.09562683 C288.01300778 572.36293881 283.6655544 573.62005747 279.31781006 574.87631226 C276.42219981 575.71810866 273.53172589 576.57604703 270.64111328 577.43481445 C268.923762 577.93139926 267.20616713 578.42714275 265.48828125 578.921875 C264.73649094 579.15096054 263.98470062 579.38004608 263.21012878 579.61607361 C262.50310318 579.81592361 261.79607758 580.01577362 261.06762695 580.22167969 C260.47029251 580.39753601 259.87295807 580.57339233 259.25752258 580.75457764 C253.13808326 581.41984109 247.04110542 579.63058969 241.20727539 577.95654297 C240.09607503 577.64526836 240.09607503 577.64526836 238.96242619 577.32770538 C236.50591185 576.63805052 234.05181908 575.94015988 231.59765625 575.2421875 C229.83492523 574.74541328 228.07205333 574.24913875 226.30905151 573.75332642 C221.54936948 572.41314247 216.79176532 571.0657166 212.03452682 569.71688843 C207.04639389 568.303896 202.0563926 566.897531 197.06665039 565.49023438 C185.71798834 562.28784363 174.3723626 559.07478375 163.02766418 555.85838318 C160.05929641 555.01681132 157.09087325 554.17543506 154.12243652 553.33410645 C138.11437654 548.79674275 122.10717042 544.25637478 106.10375977 539.70263672 C105.30531647 539.47548792 104.50687317 539.24833912 103.68423462 539.01430702 C100.02334395 537.97280224 96.36256457 536.93091215 92.70211792 535.8878479 C77.47892358 531.55354493 62.23817032 527.28127935 47 523 C38.26794581 429.02813756 29.71256536 335.0404685 20.32530975 231.27098846 C20.22778987 230.19278958 20.13026999 229.1145907 20.02979496 228.00371912 C19.93215264 226.92416066 19.83451031 225.8446022 19.73390913 224.73232985 C19.63614744 223.65145186 19.53838575 222.57057388 19.43766159 221.45694202 C19.23990806 219.27052483 19.04215658 217.08410744 18.84440714 214.89768988 C17.22745388 197.02047006 15.60784113 179.14349217 13.98718461 161.26660773 C12.29880271 142.64230175 10.61241673 124.01781596 8.92810941 105.39314103 C7.99171757 95.03921646 7.05450457 84.6853678 6.11507416 74.33171844 C5.3246518 65.62018972 4.536058 56.90849796 3.74989894 48.19658342 C3.35017369 43.76757903 2.94957641 39.33865807 2.5466404 34.90994453 C2.17842321 30.86259791 1.8126803 26.81503568 1.44892564 22.76728562 C1.31698223 21.30396359 1.18412732 19.84072341 1.05027351 18.37757489 C0.86872744 16.39163507 0.69081717 14.40536389 0.51308823 12.41907883 C0.41327141 11.31621245 0.31345459 10.21334608 0.21061301 9.07705951 C0.00394409 6.05762323 0 3.02650086 0 0 Z M276 153 C276 160.92 276 168.84 276 177 C276.33 177 276.66 177 277 177 C277 169.08 277 161.16 277 153 C276.67 153 276.34 153 276 153 Z M277 255 C277 262.92 277 270.84 277 279 C277.33 279 277.66 279 278 279 C278 271.08 278 263.16 278 255 C277.67 255 277.34 255 277 255 Z M376 319 C376 321.64 376 324.28 376 327 C376.33 327 376.66 327 377 327 C377 324.36 377 321.72 377 319 C376.67 319 376.34 319 376 319 Z M87 354 C88 358 88 358 88 358 Z M375 355 C375 357.64 375 360.28 375 363 C375.33 363 375.66 363 376 363 C376 360.36 376 357.72 376 355 C375.67 355 375.34 355 375 355 Z M276 418 C276 422.62 276 427.24 276 432 C276.33 432 276.66 432 277 432 C277 427.38 277 422.76 277 418 C276.67 418 276.34 418 276 418 Z M234 444 C234 447.3 234 450.6 234 454 C234.33 454 234.66 454 235 454 C235 450.7 235 447.4 235 444 C234.67 444 234.34 444 234 444 Z " fill="#E3BD22" transform="translate(1,135)"/>
<path d="M0 0 C68.97 0 137.94 0 209 0 C209 8.98253725 209 8.98253725 208.46811867 13.52488232 C208.35111874 14.55804634 208.23411881 15.59121036 208.11357343 16.65568238 C207.98405715 17.77390482 207.85454087 18.89212726 207.72109985 20.04423523 C206.45250626 31.45236976 205.3341618 42.86676143 204.31723022 54.29988098 C204.2445864 55.11572562 204.17194258 55.93157025 204.09709743 56.77213745 C203.63084821 62.01748399 203.16868538 67.26318551 202.70745754 72.50897563 C202.2840314 77.31811803 201.85754336 82.12698913 201.43147278 86.93589783 C200.60119724 96.31229725 199.77367255 105.68893741 198.94714664 115.06566802 C197.98248597 126.00840142 197.01511318 136.95089458 196.0476727 147.89338251 C194.32128052 167.42132495 192.59743602 186.94949145 190.875 206.4777832 C189.20680914 225.39105121 187.53660424 244.30413999 185.86425781 263.21704102 C184.03763599 283.87471169 182.21201655 304.53247044 180.38823092 325.19039172 C180.29171323 326.28364093 180.19519555 327.37689014 180.09575308 328.50326812 C179.90195893 330.69836267 179.70816683 332.89345741 179.51437681 335.08855233 C178.8420755 342.70317853 178.16910163 350.31774512 177.49589157 357.93229103 C176.6756345 367.21044166 175.85658099 376.48869766 175.03901909 385.76708619 C174.62247001 390.49415723 174.20542408 395.22118295 173.78697014 399.94808578 C173.40321922 404.28317202 173.02098513 408.61838935 172.63991006 412.95371159 C172.50258583 414.51307271 172.36473277 416.07238739 172.22626571 417.63164745 C171.35792953 427.41427849 170.61271425 437.19791116 170 447 C162.99423806 449.80576869 155.84288699 451.78380974 148.5625 453.75 C146.60805863 454.28227866 144.65398686 454.81589944 142.69993591 455.34960938 C141.37759271 455.71071043 140.05513341 456.07138656 138.7325592 456.43164062 C132.66573316 458.08556505 126.61398986 459.79103722 120.5625 461.5 C110.5620548 464.31317078 100.53201803 467.00479069 90.49072266 469.66796875 C79.91780142 472.47553997 69.36024501 475.33825632 58.80657959 478.21731567 C56.89898985 478.73770577 54.9913161 479.25778802 53.08355713 479.77755737 C43.68546172 482.33822043 34.2906884 484.90855386 24.9140625 487.546875 C23.5573901 487.92714417 22.20070127 488.30735473 20.84399414 488.6875 C18.39886561 489.37451655 15.95522606 490.06686452 13.51342773 490.765625 C11.91543335 491.21421875 11.91543335 491.21421875 10.28515625 491.671875 C8.92209351 492.06004395 8.92209351 492.06004395 7.53149414 492.45605469 C5 493 5 493 0 493 C0 330.31 0 167.62 0 0 Z M21 107 C21 114.92 21 122.84 21 131 C21.33 131 21.66 131 22 131 C22 123.08 22 115.16 22 107 C21.67 107 21.34 107 21 107 Z M22 209 C22 216.92 22 224.84 22 233 C22.33 233 22.66 233 23 233 C23 225.08 23 217.16 23 209 C22.67 209 22.34 209 22 209 Z M121 273 C121 275.64 121 278.28 121 281 C121.33 281 121.66 281 122 281 C122 278.36 122 275.72 122 273 C121.67 273 121.34 273 121 273 Z M120 309 C120 311.64 120 314.28 120 317 C120.33 317 120.66 317 121 317 C121 314.36 121 311.72 121 309 C120.67 309 120.34 309 120 309 Z M21 372 C21 376.62 21 381.24 21 386 C21.33 386 21.66 386 22 386 C22 381.38 22 376.76 22 372 C21.67 372 21.34 372 21 372 Z " fill="#FCD601" transform="translate(256,181)"/>
<path d="M0 0 C0.11770642 19.35049098 0.11770642 19.35049098 -0.62109375 27.89453125 C-0.71741844 29.10371468 -0.71741844 29.10371468 -0.81568909 30.33732605 C-0.94935214 31.99802706 -1.08634462 33.65846374 -1.22680664 35.31860352 C-1.4411488 37.85568945 -1.64419458 40.39350589 -1.84570312 42.93164062 C-1.97852722 44.56515629 -2.11196685 46.19862204 -2.24609375 47.83203125 C-2.3065538 48.58096146 -2.36701385 49.32989166 -2.42930603 50.10151672 C-2.7475866 53.82788137 -3.26360029 57.31800147 -4 61 C-39.64 61 -75.28 61 -112 61 C-112 90.7 -112 120.4 -112 151 C-107.545 150.01 -107.545 150.01 -103 149 C-101.39045972 148.74115318 -99.77594601 148.50916859 -98.15625 148.32421875 C-97.26317139 148.22093262 -96.37009277 148.11764648 -95.44995117 148.01123047 C-94.47646729 147.90439941 -93.5029834 147.79756836 -92.5 147.6875 C-91.44208252 147.56777832 -90.38416504 147.44805664 -89.29418945 147.32470703 C-81.05945036 146.40892648 -72.81726538 145.56772049 -64.57421875 144.73046875 C-62.93158554 144.56356789 -62.93158554 144.56356789 -61.25576782 144.39329529 C-55.68662363 143.8284256 -50.11708293 143.26790626 -44.546875 142.71362305 C-42.46223918 142.50439852 -40.37760375 142.29517017 -38.29296875 142.0859375 C-37.32936935 141.9912468 -36.36576996 141.89655609 -35.37297058 141.79899597 C-34.47540543 141.70854507 -33.57784027 141.61809418 -32.65307617 141.52490234 C-31.87212082 141.44734711 -31.09116547 141.36979187 -30.2865448 141.28988647 C-27.93845736 141.02084432 -27.93845736 141.02084432 -25.40376282 140.47329712 C-22.45766898 139.89321588 -19.68732724 139.90453487 -16.6875 139.9375 C-15.68307861 139.9485376 -14.67865723 139.9595752 -13.64379883 139.97094727 C-12.77134521 139.98053467 -11.8988916 139.99012207 -11 140 C-10.71818061 150.15825514 -11.48831625 160.10366998 -12.4236145 170.20822144 C-12.8911548 175.26530207 -13.33810768 180.32423088 -13.7890625 185.3828125 C-13.93466362 187.00675179 -13.93466362 187.00675179 -14.08320618 188.66349792 C-15.2983258 202.25015025 -16.43141122 215.84363747 -17.5625 229.4375 C-17.66883759 230.71244324 -17.77517517 231.98738647 -17.88473511 233.30096436 C-19.35913993 250.99354106 -20.78617278 268.689001 -22.09985352 286.39428711 C-22.61340349 293.27991672 -23.16902615 300.14446571 -24 307 C-24.89082275 307.22139648 -25.78164551 307.44279297 -26.69946289 307.67089844 C-30.08252707 308.51234125 -33.4653012 309.35493284 -36.84790039 310.19824219 C-38.29733435 310.55936232 -39.74687458 310.92005624 -41.1965332 311.28027344 C-50.00863906 313.47030044 -58.7982082 315.72413215 -67.56762695 318.08007812 C-72.39204563 319.37308684 -77.22725391 320.62324025 -82.0625 321.875 C-89.62121317 323.83688437 -97.16034478 325.85808357 -104.6875 327.9375 C-114.43682763 330.62537379 -124.23645274 333.0908584 -134.05322266 335.51953125 C-141.53463403 337.37240903 -148.98610638 339.30067611 -156.41015625 341.37109375 C-159 342 -159 342 -162 342 C-162.62807745 321.99506501 -163.17662302 302.01727573 -163 282 C-156.70383988 279.47408488 -150.40483697 277.76096206 -143.8125 276.1875 C-135.99110869 274.27996019 -128.22603 272.26318051 -120.5 270 C-112.04855999 267.52952954 -103.54537691 265.35931997 -94.99414062 263.26318359 C-84.91862738 260.77388115 -74.95652717 257.92472986 -65 255 C-63.74315965 251.08382286 -63.7935717 247.12148711 -63.71875 243.05078125 C-63.70034058 242.27872849 -63.68193115 241.50667572 -63.66296387 240.71122742 C-63.60437703 238.24506042 -63.55155741 235.77882332 -63.5 233.3125 C-63.44825999 230.86403678 -63.39507829 228.41565334 -63.33703613 225.96733093 C-63.30100545 224.44691695 -63.26844962 222.92641484 -63.2401123 221.40583801 C-63.11755361 216.22156833 -62.62690628 211.14818227 -62 206 C-64.79236448 206.47535969 -67.58384991 206.9551067 -70.375 207.4375 C-71.1690625 207.57220703 -71.963125 207.70691406 -72.78125 207.84570312 C-77.01394983 208.51417589 -77.01394983 208.51417589 -81 210 C-83.2036832 210.32493988 -85.41335585 210.6096027 -87.625 210.875 C-92.78987237 211.52614284 -97.88813945 212.31382526 -103 213.3125 C-108.59732973 214.4018007 -114.20490867 215.37136571 -119.8359375 216.26953125 C-120.88192108 216.43643211 -120.88192108 216.43643211 -121.94903564 216.60670471 C-125.50293931 217.17209848 -129.05769499 217.73166952 -132.61328125 218.28637695 C-133.93750795 218.49555512 -135.26172704 218.70478155 -136.5859375 218.9140625 C-137.7723584 219.0992041 -138.9587793 219.2843457 -140.18115234 219.47509766 C-142.93894781 219.85450812 -142.93894781 219.85450812 -145 221 C-147.71262116 221.2322646 -150.40773126 221.41936235 -153.125 221.5625 C-153.87910156 221.60568359 -154.63320313 221.64886719 -155.41015625 221.69335938 C-157.27321888 221.7994832 -159.13658524 221.90025001 -161 222 C-161.26355117 199.09139071 -161.52443159 176.18275232 -161.78230286 153.27407837 C-161.90215009 142.63241164 -162.02280677 131.99075534 -162.14550781 121.34912109 C-162.25270095 112.05226792 -162.35823416 102.75539749 -162.46193409 93.45850468 C-162.51667672 88.55554383 -162.57214117 83.65259404 -162.62960815 78.74966431 C-162.93272501 52.83196978 -163.06035495 26.9194645 -163 1 C-147.35832716 0.86767149 -131.71663972 0.73722605 -116.07493401 0.60884857 C-108.80743564 0.54916043 -101.5399428 0.48891376 -94.27246094 0.42724609 C-62.84831561 0.16089088 -31.42561764 -0.10141196 0 0 Z " fill="#FEFEFE" transform="translate(440,247)"/>
<path d="M0 0 C16.5 0 33 0 50 0 C50.02260763 42.01424669 50.0405103 84.02849193 50.05106533 126.0427435 C50.05231603 131.00318643 50.05361036 135.96362935 50.05493164 140.92407227 C50.05532511 142.40537131 50.05532511 142.40537131 50.05572652 143.91659559 C50.06007753 159.90547059 50.06796197 175.89434201 50.0771528 191.88321488 C50.08650512 208.28990816 50.09205896 224.69659955 50.09408849 241.10329539 C50.09546043 251.22664893 50.09979327 261.34999231 50.10791647 271.47334272 C50.11320339 278.41579244 50.11479985 285.35823691 50.11350138 292.3006885 C50.11286105 296.30576243 50.11384105 300.31081859 50.11920547 304.31588936 C50.12408495 307.98575837 50.12430884 311.65559773 50.12089889 315.32546813 C50.1202788 317.27530297 50.12457977 319.22513749 50.12908131 321.17496723 C50.1182635 327.53685502 49.85161003 333.69359495 49 340 C43.6726584 339.42466192 38.71228515 338.52275707 33.52905273 337.10498047 C32.82516607 336.91406987 32.12127941 336.72315928 31.39606285 336.52646351 C29.07379258 335.89521838 26.75372754 335.25623633 24.43359375 334.6171875 C22.7774491 334.16535798 21.12117048 333.71401922 19.46476746 333.26313782 C15.03557769 332.05606321 10.60823346 330.84234755 6.18122101 329.62731552 C1.60218065 328.37176398 -2.97851907 327.12229742 -7.55908203 325.87231445 C-14.9026886 323.86761995 -22.24537342 321.85958543 -29.58740234 319.84912109 C-38.88530139 317.30335041 -48.18607172 314.76824982 -57.48828125 312.23828125 C-62.45056747 310.88819224 -67.41278555 309.53785275 -72.375 308.1875 C-73.53484406 307.87190125 -74.69468811 307.55630249 -75.88967896 307.23114014 C-79.10118324 306.35683561 -82.31236568 305.48136007 -85.5234375 304.60546875 C-86.45388382 304.35235428 -87.38433014 304.09923981 -88.3429718 303.8384552 C-89.60671883 303.4933918 -89.60671883 303.4933918 -90.89599609 303.14135742 C-91.62209076 302.94346115 -92.34818542 302.74556488 -93.09628296 302.54167175 C-94.74431894 302.07274989 -96.37447877 301.54184041 -98 301 C-98.02533211 293.09798872 -98.04285934 285.1959879 -98.05493164 277.29394531 C-98.05939946 274.60513148 -98.06636119 271.91634118 -98.07543945 269.22753906 C-98.08755371 265.3652275 -98.09323945 261.50295208 -98.09765625 257.640625 C-98.10539818 255.83419525 -98.10539818 255.83419525 -98.11329651 253.99127197 C-98.11340981 252.30998199 -98.11340981 252.30998199 -98.11352539 250.59472656 C-98.115746 249.60877502 -98.11796661 248.62282349 -98.12025452 247.60699463 C-98.01134079 245.2458566 -97.67399991 243.25666764 -97 241 C-87.96362309 242.4131439 -79.22722997 244.72524336 -70.4296875 247.17578125 C-68.93924227 247.58730794 -67.44869025 247.99844809 -65.95803833 248.40922546 C-62.84588636 249.26787277 -59.73461264 250.12960521 -56.62402344 250.99389648 C-52.68909709 252.08720695 -48.75272428 253.1751866 -44.81574821 254.26109028 C-40.99903611 255.3140896 -37.18309039 256.36985396 -33.3671875 257.42578125 C-32.66512051 257.61981348 -31.96305351 257.81384571 -31.23971176 258.01375771 C-30.55473743 258.20324675 -29.86976311 258.39273579 -29.16403198 258.58796692 C-28.57186323 258.75169202 -27.97969448 258.91541712 -27.36958122 259.08410358 C-18.21580681 261.63673862 -9.12110684 264.31732152 0 267 C0 178.89 0 90.78 0 0 Z " fill="#FEFEFE" transform="translate(186,248)"/>
<path d="M0 0 C26.73 0 53.46 0 81 0 C81 7.59 81 15.18 81 23 C61.86 23 42.72 23 23 23 C23 26.3 23 29.6 23 33 C42.14 33 61.28 33 81 33 C81 50.82 81 68.64 81 87 C54.27 87 27.54 87 0 87 C0 79.41 0 71.82 0 64 C19.14 64 38.28 64 58 64 C58 61.03 58 58.06 58 55 C38.86 55 19.72 55 0 55 C0 36.85 0 18.7 0 0 Z " fill="#221F20" transform="translate(252,15)"/>
<path d="M0 0 C7.92 0 15.84 0 24 0 C24 28.71 24 57.42 24 87 C3.21 87 -17.58 87 -39 87 C-39 78.75 -39 70.5 -39 62 C-26.13 62 -13.26 62 0 62 C-0.165 55.833125 -0.33 49.66625 -0.5 43.3125 C-1.10154823 19.72035123 -1.10154823 19.72035123 -1.125 9.0625 C-1.12951172 8.22565674 -1.13402344 7.38881348 -1.13867188 6.52661133 C-1.12455038 1.12455038 -1.12455038 1.12455038 0 0 Z " fill="#221F20" transform="translate(216,15)"/>
</svg>
