<?xml version="1.0" encoding="UTF-8"?>
<svg version="1.1" xmlns="http://www.w3.org/2000/svg" width="460" height="460">
<path d="M0 0 C151.8 0 303.6 0 460 0 C460 151.8 460 303.6 460 460 C308.2 460 156.4 460 0 460 C0 308.2 0 156.4 0 0 Z " fill="#E0234E" transform="translate(0,0)"/>
<path d="M0 0 C4.70712209 0.94142442 6.404734 1.67866042 10.125 4.375 C11.39730469 5.28378906 11.39730469 5.28378906 12.6953125 6.2109375 C14.6401452 7.72065508 16.40179931 9.13020965 18 11 C18 11.66 18 12.32 18 13 C18.66 13 19.32 13 20 13 C20.81498562 14.6029053 21.62689927 16.20737278 22.4375 17.8125 C22.88996094 18.70582031 23.34242188 19.59914062 23.80859375 20.51953125 C27.41172673 28.02113599 27.28763091 39.02923944 24.8125 47 C20.65467114 57.12508325 13.98340853 64.64679684 3.96484375 69.2890625 C0.97513771 70.37082492 -1.83647784 70.73637315 -5 71 C-5 71.66 -5 72.32 -5 73 C8.12653306 72.67427958 18.96271629 71.34505725 29 62 C35.06815645 55.48235047 38.43600487 47.71811146 40 39 C45.15472763 41.95508092 47.6365036 44.91313908 50.5 50.0625 C51.07572754 51.06385986 51.07572754 51.06385986 51.66308594 52.08544922 C52.43226424 53.42941583 53.19510554 54.77703157 53.95117188 56.12841797 C54.86157976 57.75299591 55.7958934 59.36413261 56.734375 60.97265625 C70.36600993 84.82801738 73.48057859 112.34724507 66.625 138.7578125 C63.764683 148.63596755 59.31035194 156.68964806 52 164 C51.67 157.4 51.34 150.8 51 144 C50.67 144 50.34 144 50 144 C49.74605469 145.02480469 49.49210938 146.04960937 49.23046875 147.10546875 C48.88323403 148.46625347 48.53555416 149.82692465 48.1875 151.1875 C48.02185547 151.86103516 47.85621094 152.53457031 47.68554688 153.22851562 C46.63446968 157.2940029 45.30316979 160.50473731 43 164 C42.51402344 164.88816406 42.02804687 165.77632812 41.52734375 166.69140625 C35.45353847 177.6600718 27.87849266 188.34161225 17 195 C16.34 195 15.68 195 15 195 C16.12430641 192.00184957 17.41050275 189.15500844 18.875 186.3125 C22.50629604 179.11765599 25.2516535 171.86755925 27 164 C26.52949219 164.75925781 26.05898438 165.51851562 25.57421875 166.30078125 C24.95160156 167.29464844 24.32898438 168.28851563 23.6875 169.3125 C23.07261719 170.29863281 22.45773437 171.28476562 21.82421875 172.30078125 C20.33074922 174.51060447 19.05255665 176.31540869 17 178 C16.34 178 15.68 178 15 178 C14.72800781 178.59296875 14.45601562 179.1859375 14.17578125 179.796875 C7.92699021 191.50557316 -8.15715222 198.59153904 -20 203 C-34.63352408 207.37407886 -34.63352408 207.37407886 -42 207 C-38.65023731 204.2378087 -35.24471434 201.79811959 -31.5625 199.5 C-30.59957031 198.89027344 -29.63664062 198.28054688 -28.64453125 197.65234375 C-26.69351293 196.43331753 -24.72604432 195.24052642 -22.75 194.0625 C-17.7664979 190.32487343 -13.59311723 185.69468882 -11 180 C-11.89460937 180.34933594 -12.78921875 180.69867188 -13.7109375 181.05859375 C-20.80028045 183.72654478 -27.35436914 185.80621673 -35 186 C-32.35132386 183.27342162 -29.70246599 180.70870428 -26.75 178.3125 C-23.98257806 176.2957678 -23.98257806 176.2957678 -23 174 C-22.34 174 -21.68 174 -21 174 C-20.62875 172.4840625 -20.62875 172.4840625 -20.25 170.9375 C-19.44867507 168.07562526 -18.58769454 166.31711908 -17 163.6875 C-11.73056419 154.76091845 -12.77685302 143.99202609 -13 134 C-13.23783203 134.92619141 -13.23783203 134.92619141 -13.48046875 135.87109375 C-17.69924351 151.18454688 -26.81947922 162.15842265 -40.47265625 170.1484375 C-52.45200718 176.43660178 -68.01622599 177.21252403 -80.9375 173.25 C-84.86325616 171.85859275 -86.75531129 170.52630966 -89 167 C-86.525 166.01 -86.525 166.01 -84 165 C-84.39832031 164.50371094 -84.79664063 164.00742187 -85.20703125 163.49609375 C-90.34068548 156.91352495 -93.74579521 151.06541821 -93.484375 142.50390625 C-92.62581425 138.06570108 -90.21463598 135.07653706 -87 132 C-82.69568073 129.16821101 -78.85354076 130.0452051 -74 131 C-73.34 131.66 -72.68 132.32 -72 133 C-72.1640625 135.64453125 -72.1640625 135.64453125 -72.625 138.8125 C-73.09510512 143.62948482 -73.09510512 143.62948482 -71.625 148.1875 C-67.91203179 150.75121614 -64.43359307 150.89579162 -60 151 C-59.401875 149.906875 -58.80375 148.81375 -58.1875 147.6875 C-56.70955303 145.08925871 -55.30177067 142.95650507 -53 141 C-53 143.31 -53 145.62 -53 148 C-48.47951843 144.86077669 -46.48454089 141.78504172 -44 137 C-40.625 137.3125 -40.625 137.3125 -37 138 C-36.34 138.99 -35.68 139.98 -35 141 C-36.27655332 129.25570942 -40.33104073 116.61803343 -49.65234375 108.765625 C-50.42707031 108.18296875 -51.20179688 107.6003125 -52 107 C-52.556875 106.21625 -53.11375 105.4325 -53.6875 104.625 C-59.64755627 97.85953072 -68.54665402 94.56161999 -77 92 C-78.15242188 91.63648438 -79.30484375 91.27296875 -80.4921875 90.8984375 C-86.40802379 89.45125771 -92.45076069 89.7885823 -98.5 89.875 C-100.30597656 89.88853516 -100.30597656 89.88853516 -102.1484375 89.90234375 C-105.0991679 89.92576225 -108.04947689 89.95856007 -111 90 C-111.28875 90.598125 -111.5775 91.19625 -111.875 91.8125 C-113 94 -113 94 -115 97 C-115.99 97 -116.98 97 -118 97 C-118.33 95.02 -118.66 93.04 -119 91 C-119.474375 91.495 -119.94875 91.99 -120.4375 92.5 C-122 94 -122 94 -123 94 C-123 91.69 -123 89.38 -123 87 C-123.721875 86.79375 -124.44375 86.5875 -125.1875 86.375 C-128.99861399 84.51178872 -130.53480172 82.45127759 -133 79 C-133 78.01 -133 77.02 -133 76 C-134.32 75.67 -135.64 75.34 -137 75 C-137 74.34 -137 73.68 -137 73 C-137.66 73 -138.32 73 -139 73 C-141.77075999 68.33175457 -141.26162711 64.14677019 -140 59 C-136.97025492 54.55006192 -133.61095476 53.27717382 -128.6640625 51.8046875 C-118.34590728 48.68805997 -109.61139283 45.41441506 -102.625 37.0625 C-93.65273403 26.47522616 -80.49253165 22.22659379 -67 21 C-56.0991265 20.26924334 -45.58170332 20.93090722 -34.8125 22.75 C-33.86914795 22.90678223 -32.9257959 23.06356445 -31.95385742 23.22509766 C-25.85499291 24.35586215 -20.54353951 26.22269267 -15 29 C-15.0825 27.824375 -15.165 26.64875 -15.25 25.4375 C-15.23349314 20.77431098 -13.97477015 17.58242137 -11 14 C-5.87179487 10 -5.87179487 10 -3 10 C-2.01 6.7 -1.02 3.4 0 0 Z " fill="#FEFDFD" transform="translate(266,129)"/>
<path d="M0 0 C5.29103056 0.48100278 8.64128382 2.21062911 12.8125 5.375 C14.51024407 7.69822873 14.34036373 9.17923559 14 12 C12.35546875 13.66015625 12.35546875 13.66015625 10.1875 15.0625 C7.11829563 17.08068356 4.96143974 18.86050041 3 22 C2.27518916 25.65274469 2.27518916 25.65274469 2 29 C0 27 0 27 -0.265625 24.9765625 C-0.26046875 24.20054687 -0.2553125 23.42453125 -0.25 22.625 C-0.25515625 21.85414063 -0.2603125 21.08328125 -0.265625 20.2890625 C0.02522582 17.78261281 0.84109191 16.21861004 2 14 C2.48721014 8.73813054 1.66125581 5.54631201 -1 1 C-0.67 0.67 -0.34 0.34 0 0 Z " fill="#FDF4F6" transform="translate(247,125)"/>
<path d="M0 0 C0.66 0.33 1.32 0.66 2 1 C1 4 1 4 -0.875 5.6875 C-3.78547311 8.85477956 -4.64387367 11.93162101 -6 16 C-6.66 15.67 -7.32 15.34 -8 15 C-7.85562749 8.07011948 -4.77744657 4.80239407 0 0 Z " fill="#E2365D" transform="translate(256,139)"/>
<path d="M0 0 C1.0326802 2.78823655 1.04509293 3.8677274 0.0625 6.75 C-0.288125 7.4925 -0.63875 8.235 -1 9 C-1.66 8.67 -2.32 8.34 -3 8 C-2.74438677 5.6568787 -2.40729228 3.32156597 -2 1 C-1.34 0.67 -0.68 0.34 0 0 Z " fill="#E44267" transform="translate(251,146)"/>
</svg>
