<?xml version="1.0" encoding="UTF-8"?>
<svg version="1.1" xmlns="http://www.w3.org/2000/svg" width="500" height="500">
<path d="M0 0 C0.97071442 0.00087616 1.94142883 0.00175232 2.94155884 0.00265503 C61.1627602 0.1756705 115.22705616 22.76554313 157.21191406 62.96240234 C158.57877014 64.27091149 159.9568898 65.56762729 161.3359375 66.86328125 C168.20275133 73.48098354 173.96056433 80.7805853 179.6875 88.375 C180.3990625 89.303125 181.110625 90.23125 181.84375 91.1875 C187.38398316 98.57447754 192.09494078 106.37902637 196.6875 114.375 C197.0278125 114.95701172 197.368125 115.53902344 197.71875 116.13867188 C226.63958008 165.90283457 231.81800048 228.23378515 217.4140625 283.30078125 C209.79839438 310.86914849 197.20294578 336.73574124 179.6875 359.375 C179.06617188 360.18839844 178.44484375 361.00179688 177.8046875 361.83984375 C166.68799437 376.08451328 153.97007594 389.30738941 139.6875 400.375 C139.14528809 400.79894043 138.60307617 401.22288086 138.04443359 401.65966797 C98.79971024 432.14868523 50.8772936 447.85925561 1.375 447.75 C0.40428558 447.74912384 -0.56642883 447.74824768 -1.56655884 447.74734497 C-59.7877602 447.5743295 -113.85205616 424.98445687 -155.83691406 384.78759766 C-157.20377014 383.47908851 -158.5818898 382.18237271 -159.9609375 380.88671875 C-166.82775133 374.26901646 -172.58556433 366.9694147 -178.3125 359.375 C-179.0240625 358.446875 -179.735625 357.51875 -180.46875 356.5625 C-186.00898316 349.17552246 -190.71994078 341.37097363 -195.3125 333.375 C-195.6528125 332.79298828 -195.993125 332.21097656 -196.34375 331.61132812 C-225.26458008 281.84716543 -230.44300048 219.51621485 -216.0390625 164.44921875 C-208.42339438 136.88085151 -195.82794578 111.01425876 -178.3125 88.375 C-177.69117188 87.56160156 -177.06984375 86.74820313 -176.4296875 85.91015625 C-165.31299437 71.66548672 -152.59507594 58.44261059 -138.3125 47.375 C-137.77028809 46.95105957 -137.22807617 46.52711914 -136.66943359 46.09033203 C-97.42471024 15.60131477 -49.5022936 -0.10925561 0 0 Z " fill="#222222" transform="translate(249.3125,29.625)"/>
<path d="M0 0 C1.25490234 0.85078125 1.25490234 0.85078125 2.53515625 1.71875 C8.72090209 6.07841013 14.28494202 10.84738017 19.76000977 16.05078125 C22.63701594 18.85482007 22.63701594 18.85482007 26 21 C26 21.66 26 22.32 26 23 C26.78375 22.175 27.5675 21.35 28.375 20.5 C31 18 31 18 33 18 C33 17.34 33 16.68 33 16 C35.08778524 14.18597334 37.18054214 12.48897812 39.375 10.8125 C40.01695312 10.31709717 40.65890625 9.82169434 41.3203125 9.3112793 C61.51759349 -6.18760921 80.82282168 -18.22161178 107 -16 C116.26060536 -14.42850333 123.02086266 -9.07578933 129 -2 C136.22372905 9.62270051 138.57359378 22.99145239 138.5 36.5 C138.49935547 37.63695312 138.49871094 38.77390625 138.49804688 39.9453125 C138.28288665 52.68835036 135.99989331 64.96360021 133.45898438 77.42578125 C132.91223395 80.05643399 132.91223395 80.05643399 133 83 C133.57443848 83.16081055 134.14887695 83.32162109 134.74072266 83.48730469 C137.37203746 84.23062594 139.99841205 84.99015258 142.625 85.75 C143.52863281 86.00265625 144.43226563 86.2553125 145.36328125 86.515625 C150.582848 88.0395861 154.5391473 89.79868218 159 93 C161.48822637 94.06665205 161.48822637 94.06665205 163.875 94.75 C164.65617187 94.99234375 165.43734375 95.2346875 166.2421875 95.484375 C166.82226562 95.65453125 167.40234375 95.8246875 168 96 C168 96.66 168 97.32 168 98 C168.70898438 98.268125 169.41796875 98.53625 170.1484375 98.8125 C184.1791445 104.65542456 198.45389439 115.59299097 204.875 129.75 C207.7296186 137.99667597 208.71310269 147.84405871 205.10546875 156.0078125 C199.66373656 165.81446769 192.55558691 175.00433763 183 181 C182.34 181 181.68 181 181 181 C181 181.66 181 182.32 181 183 C170.15208159 189.75300881 158.92850947 194.49789096 147 199 C145.81792969 199.45890625 144.63585937 199.9178125 143.41796875 200.390625 C139.27016776 201.96756674 136.49152754 203 132 203 C132.26554687 204.0415625 132.53109375 205.083125 132.8046875 206.15625 C136.34823861 220.37064593 138.15911113 234.09525101 138.25 248.75 C138.26401855 250.29397461 138.26401855 250.29397461 138.27832031 251.86914062 C138.23398916 262.5290774 137.08211378 272.51894183 132 282 C131.55527344 282.84691406 131.11054688 283.69382812 130.65234375 284.56640625 C127.60852809 290.01280707 124.34395648 294.61182141 119 298 C118.34 298 117.68 298 117 298 C116.67 298.99 116.34 299.98 116 301 C104.36309695 305.95230725 91.56319901 305.02647534 79.83984375 301.16796875 C77.01999781 300.00822468 74.59881219 298.58423591 72 297 C71.23558594 296.70996094 70.47117187 296.41992188 69.68359375 296.12109375 C65.86302786 294.52502037 62.52534303 292.31791977 59.0625 290.0625 C58.31758301 289.57813477 57.57266602 289.09376953 56.80517578 288.59472656 C47.94765325 282.75257098 39.15150739 276.51982993 31.875 268.75 C30.92625 267.8425 29.9775 266.935 29 266 C25.69210681 266.24940465 23.9786345 267.64916465 21.625 269.875 C0.62473931 288.81793386 -22.80071973 304.22262996 -52 303 C-60.49966258 302.54561552 -65.37357392 298.13443388 -71 292 C-73.26679103 289.12646619 -75.18908364 286.17764568 -77 283 C-77.58394531 282.01386719 -77.58394531 282.01386719 -78.1796875 281.0078125 C-83.57683324 271.19840163 -83.37280569 260.33715172 -83.37060547 249.42626953 C-83.3749418 247.03213286 -83.41125311 244.63990147 -83.44921875 242.24609375 C-83.54825938 228.53548696 -80.81346631 216.10168977 -77 203 C-78.07636719 202.92136719 -79.15273437 202.84273437 -80.26171875 202.76171875 C-86.08508598 202.02787458 -91.35907171 199.90155623 -96.8125 197.8125 C-97.82892578 197.43802734 -98.84535156 197.06355469 -99.89257812 196.67773438 C-119.87368426 189.12592052 -140.18569154 177.20410603 -149.4375 157.125 C-153.2579819 147.59904073 -152.88590453 138.04566535 -149 128.55859375 C-139.28451472 107.62555803 -115.99514939 95.94101565 -95.328125 88.203125 C-80.93506494 83 -80.93506494 83 -77 83 C-77.2165625 82.20335937 -77.433125 81.40671875 -77.65625 80.5859375 C-77.9346875 79.52632813 -78.213125 78.46671875 -78.5 77.375 C-78.7784375 76.33085937 -79.056875 75.28671875 -79.34375 74.2109375 C-79.99118596 71.04312582 -80.1161292 68.22258533 -80 65 C-80.66 65 -81.32 65 -82 65 C-82.96006073 57.21897844 -83.18309085 49.5225552 -83.1875 41.6875 C-83.19974609 40.55376953 -83.21199219 39.42003906 -83.22460938 38.25195312 C-83.23817175 30.31796381 -82.36743439 22.80557339 -81 15 C-80.88624023 14.16871582 -80.77248047 13.33743164 -80.65527344 12.48095703 C-79.36080632 3.04307398 -72.97347276 -4.89218911 -65.625 -10.5625 C-44.40662172 -24.62040627 -18.88612201 -13.02936013 0 0 Z " fill="#5FD5F5" transform="translate(227,114)"/>
<path d="M0 0 C1.03490067 -0.00315216 2.06980133 -0.00630432 3.13606262 -0.009552 C4.24447006 -0.00752777 5.3528775 -0.00550354 6.49487305 -0.00341797 C7.6452153 -0.00437469 8.79555756 -0.00533142 9.98075867 -0.00631714 C12.41246597 -0.00699702 14.8441751 -0.00515613 17.27587891 -0.00097656 C20.98238244 0.00435968 24.68876398 -0.00092054 28.39526367 -0.00732422 C30.7618004 -0.00666312 33.12833704 -0.00538129 35.49487305 -0.00341797 C36.59720779 -0.0054422 37.69954254 -0.00746643 38.83528137 -0.009552 C54.45428767 0.03759051 54.45428767 0.03759051 57.69018555 2.88720703 C58.16584961 3.66837891 58.64151367 4.44955078 59.1315918 5.25439453 C59.69620117 6.15287109 60.26081055 7.05134766 60.8425293 7.97705078 C61.45354492 9.01732422 62.06456055 10.05759766 62.6940918 11.12939453 C63.43486354 12.35811376 64.17712192 13.58593762 64.9206543 14.81298828 C66.09277838 16.75342016 67.25922962 18.69636828 68.41064453 20.64916992 C70.5447093 24.26736088 72.77320145 27.75504301 75.1940918 31.19189453 C77.43395025 34.45887039 78.48693259 37.08978996 78.6940918 41.12939453 C79.3540918 41.12939453 80.0140918 41.12939453 80.6940918 41.12939453 C82.06316596 43.70577041 83.41437635 46.28907557 84.7565918 48.87939453 C85.1465332 49.60900391 85.53647461 50.33861328 85.93823242 51.09033203 C86.48447266 52.15380859 86.48447266 52.15380859 87.04174805 53.23876953 C87.38214111 53.88813477 87.72253418 54.5375 88.07324219 55.20654297 C89.06956895 58.29229586 88.06988456 60.29636722 86.77709961 63.16210938 C86.40423828 63.88092285 86.03137695 64.59973633 85.6472168 65.34033203 C85.00780151 66.5731189 85.00780151 66.5731189 84.35546875 67.83081055 C83.88971436 68.71309326 83.42395996 69.59537598 82.9440918 70.50439453 C82.459646 71.42470459 81.9752002 72.34501465 81.47607422 73.29321289 C77.80916459 80.18579059 73.97038174 86.96606475 70.0065918 93.69189453 C69.49708984 94.5579834 68.98758789 95.42407227 68.46264648 96.31640625 C67.46934583 97.98257777 66.45689726 99.63753688 65.42243958 101.2784729 C63.64664631 104.12326083 63.64664631 104.12326083 62.14805603 107.20202637 C57.6201756 115.41357028 57.6201756 115.41357028 52.51203918 117.31199646 C48.61900564 117.83320618 44.81585416 117.98730222 40.8972168 117.96923828 C39.45761588 117.9951612 38.01805787 118.02357335 36.57855225 118.05433655 C33.56821503 118.10344492 30.56208296 118.10600531 27.55151367 118.07836914 C24.48121151 118.05500938 21.42623665 118.1033668 18.3581543 118.22192383 C-6.0640028 119.15737131 -6.0640028 119.15737131 -12.81182861 114.34060669 C-16.85855245 109.95068031 -19.24466861 104.96419526 -21.38671875 99.43673706 C-22.57706546 96.44873761 -24.17919621 93.81809806 -25.8918457 91.10205078 C-26.82697842 89.46843702 -27.75691419 87.83183422 -28.6809082 86.19189453 C-29.17494141 85.32072998 -29.66897461 84.44956543 -30.17797852 83.55200195 C-40.3059082 65.57743367 -40.3059082 65.57743367 -40.3059082 62.12939453 C-40.9659082 62.12939453 -41.6259082 62.12939453 -42.3059082 62.12939453 C-43.1507696 59.26792944 -43.56891851 57.72222825 -42.3371582 54.94580078 C-41.57918945 53.83011719 -41.57918945 53.83011719 -40.8059082 52.69189453 C-38.33338221 48.84511719 -36.21518047 45.00578511 -34.2434082 40.87939453 C-31.04147917 34.37569903 -27.48575139 28.1241676 -23.8059082 21.87939453 C-23.00527954 20.51379395 -23.00527954 20.51379395 -22.18847656 19.12060547 C-20.59270354 16.43559997 -18.96322992 13.7768298 -17.3059082 11.12939453 C-16.71551758 10.18515625 -16.12512695 9.24091797 -15.5168457 8.26806641 C-14.92129883 7.36121094 -14.32575195 6.45435547 -13.7121582 5.52001953 C-13.17913086 4.70049805 -12.64610352 3.88097656 -12.09692383 3.03662109 C-8.88857292 -0.37990526 -4.46691057 0.00392124 0 0 Z " fill="#232525" transform="translate(231.305908203125,198.87060546875)"/>
<path d="M0 0 C1.94628906 0.15869141 1.94628906 0.15869141 4 1 C5.06152344 2.92333984 5.06152344 2.92333984 5.859375 5.4609375 C6.32065796 6.8677478 6.32065796 6.8677478 6.79125977 8.30297852 C7.10764404 9.31674561 7.42402832 10.3305127 7.75 11.375 C10.60079577 20.11448145 13.74758449 28.55456489 17.64941406 36.88232422 C17.97264648 37.60307129 18.29587891 38.32381836 18.62890625 39.06640625 C18.91838135 39.68459229 19.20785645 40.30277832 19.50610352 40.93969727 C20.75513629 46.15007174 18.29700912 51.22421637 16.41796875 56.015625 C16.16251785 56.67149597 15.90706696 57.32736694 15.64387512 58.00311279 C14.83048944 60.08757124 14.00911337 62.16877285 13.1875 64.25 C12.64726376 65.6313061 12.10754578 67.01281501 11.56835938 68.39453125 C8.74806965 75.61059403 5.89239137 82.81252023 3 90 C-2.66158292 90.31616632 -6.71668084 89.36787458 -11.875 87.3125 C-12.57608887 87.04211914 -13.27717773 86.77173828 -13.99951172 86.49316406 C-18.6031206 84.67558555 -22.90596906 82.57460388 -27.16015625 80.03515625 C-29.65872692 78.6293787 -32.24877011 77.77598792 -35 77 C-35 76.34 -35 75.68 -35 75 C-36.10214844 74.58814453 -36.10214844 74.58814453 -37.2265625 74.16796875 C-46.79310954 70.13923979 -54.92036054 63.26008579 -59.2734375 53.796875 C-61.46659713 48.37293183 -62.2279653 43.14889026 -60.05859375 37.5859375 C-57.62290074 33.01996753 -54.89690805 29.44377921 -51 26 C-50.4946875 25.49210937 -49.989375 24.98421875 -49.46875 24.4609375 C-45.01698554 20.18490058 -40.08421839 17.10239866 -34.75 14.0625 C-34.05221436 13.66063477 -33.35442871 13.25876953 -32.63549805 12.84472656 C-29.09396539 10.88341989 -27.12625601 10 -23 10 C-23 9.34 -23 8.68 -23 8 C-22.3387915 7.79318604 -21.67758301 7.58637207 -20.99633789 7.37329102 C-18.01737694 6.43956336 -15.03992995 5.5010976 -12.0625 4.5625 C-11.02158203 4.23701172 -9.98066406 3.91152344 -8.90820312 3.57617188 C-7.91884766 3.26357422 -6.92949219 2.95097656 -5.91015625 2.62890625 C-4.99371338 2.34088135 -4.07727051 2.05285645 -3.13305664 1.75610352 C-1.04455074 1.18796063 -1.04455074 1.18796063 0 0 Z " fill="#222424" transform="translate(151,212)"/>
<path d="M0 0 C5.26323926 0.37594566 8.8658361 1.21802885 13.5625 3.77734375 C16.039188 5.0196568 18.56187406 6.02970746 21.14892578 7.01782227 C37.06848411 13.10901331 55.36291615 21.02457977 63.06640625 37.27734375 C65.27059515 43.70545949 64.79179725 48.8786377 62.0625 55.0625 C57.913806 62.54664969 51.45721648 68.81668344 44 73 C43.34 73 42.68 73 42 73 C42 73.66 42 74.32 42 75 C35.0758202 77.96415819 28.18216433 80.72564796 21 83 C21 83.66 21 84.32 21 85 C18.06497405 86.00736628 15.12660539 87.00460504 12.1875 88 C11.35412109 88.28617187 10.52074219 88.57234375 9.66210938 88.8671875 C8.45844727 89.27324219 8.45844727 89.27324219 7.23046875 89.6875 C6.49207764 89.93886719 5.75368652 90.19023437 4.99291992 90.44921875 C3 91 3 91 0 91 C-2.72632956 84.74466518 -4.70368693 78.6421372 -6.09375 71.95703125 C-7.01302809 68.95749025 -8.34699987 66.51166729 -9.95263672 63.82739258 C-11.68139185 60.811138 -12.9998312 57.65172912 -14.3125 54.4375 C-14.58900391 53.80392578 -14.86550781 53.17035156 -15.15039062 52.51757812 C-17.41717715 46.9733723 -16.94872935 43.55952163 -14.9140625 38.0703125 C-14.48867188 37.09835938 -14.06328125 36.12640625 -13.625 35.125 C-11.14928756 29.35305328 -8.90741282 23.56403819 -6.8125 17.64453125 C-2.60104619 5.74968104 -2.60104619 5.74968104 0 0 Z " fill="#222425" transform="translate(354,212)"/>
<path d="M0 0 C5.79140538 4.08522371 9.74962133 8.45450901 11.8828125 15.328125 C12.99327915 21.95914952 13.04175402 28.62241255 13.0078125 35.328125 C13.00297852 36.33343262 12.99814453 37.33874023 12.99316406 38.37451172 C12.96943309 41.35939288 12.93070444 44.3435401 12.8828125 47.328125 C12.87024414 48.15602539 12.85767578 48.98392578 12.84472656 49.83691406 C12.6427287 59.59464742 11.3229496 68.12775832 7.8828125 77.328125 C2.57702452 77.42747334 -2.32612277 77.12942776 -7.58203125 76.26953125 C-8.25964005 76.1609227 -8.93724884 76.05231415 -9.63539124 75.94041443 C-11.77615559 75.59634733 -13.91543811 75.24397775 -16.0546875 74.890625 C-18.18544435 74.54311648 -20.31646249 74.19743023 -22.44802856 73.85491943 C-23.81985057 73.63281357 -25.19087286 73.40570575 -26.56100464 73.17340088 C-30.14300771 72.57866871 -33.59009975 72.2662377 -37.21484375 72.19140625 C-42.120735 71.106119 -43.3295042 69.43720847 -46.07348633 65.39794922 C-46.58290771 64.59115723 -47.0923291 63.78436523 -47.6171875 62.953125 C-48.7331683 61.30038655 -49.85165871 59.64933988 -50.97265625 58 C-51.50810059 57.19626953 -52.04354492 56.39253906 -52.59521484 55.56445312 C-57.91151068 47.75289235 -64.28198129 40.82808949 -71.1171875 34.328125 C-70.3046875 32.390625 -70.3046875 32.390625 -69.1171875 30.328125 C-67.6321875 29.833125 -67.6321875 29.833125 -66.1171875 29.328125 C-66.1171875 28.668125 -66.1171875 28.008125 -66.1171875 27.328125 C-62.64857727 24.09849382 -58.85026296 21.24534008 -55.1171875 18.328125 C-54.13363281 17.55339844 -53.15007812 16.77867187 -52.13671875 15.98046875 C-38.98548602 5.85210854 -17.14426246 -9.85621567 0 0 Z " fill="#222424" transform="translate(336.1171875,114.671875)"/>
<path d="M0 0 C6.11621521 0.36198008 11.9593802 1.13680249 17.9375 2.5 C23.53235255 3.77071624 28.94766737 4.46764977 34.671875 4.7890625 C37 5 37 5 39 6 C40.58326298 6.02562836 42.16661866 6.04570656 43.75 6.0625 C46.79420964 6.34202571 48.44714507 6.50527523 50.74609375 8.5625 C51.73153362 9.92983121 52.67296765 11.32967564 53.57421875 12.75390625 C55.04098023 15.06455789 56.66107712 16.97678419 58.5 19 C60.7667508 21.5439081 62.87182426 24.11924995 64.875 26.875 C67.94860476 31.08666923 71.45915448 34.82859969 75.046875 38.60546875 C77.00921699 41.01130003 78.0223647 43.0722943 79 46 C65.81274298 58.61761309 51.91182775 69.84037794 35 77 C34.34725098 77.28262695 33.69450195 77.56525391 33.02197266 77.85644531 C25.62000558 80.87597507 17.10803153 81.74666732 9.4296875 79.12109375 C2.3920325 75.06708336 -1.04190913 68.84976467 -3.421875 61.30859375 C-8.2754001 41.92728743 -5.08162786 19.0671515 0 0 Z " fill="#222324" transform="translate(164,322)"/>
<path d="M0 0 C8.40245898 5.51189974 16.39214138 11.40491797 24.06640625 17.89453125 C24.96105591 18.64391968 24.96105591 18.64391968 25.8737793 19.40844727 C28.71930757 21.86374586 30.99557697 23.94651871 32.31640625 27.51953125 C31.08277344 28.80923828 31.08277344 28.80923828 29.82421875 30.125 C23.41252588 36.88978941 17.35496582 43.75832532 11.73046875 51.19140625 C11.34270264 51.69349609 10.95493652 52.19558594 10.55541992 52.71289062 C9.21456212 54.57751087 9.21456212 54.57751087 8.0715332 57.02929688 C5.56507462 61.59748638 3.73769067 64.03310031 -1.29882812 65.75683594 C-5.74365413 66.67148997 -10.23276618 67.09844365 -14.74609375 67.51953125 C-16.28237993 67.69374425 -17.81820193 67.87210259 -19.35351562 68.0546875 C-22.35377593 68.40651425 -25.35510894 68.73586827 -28.35986328 69.046875 C-34.49257312 69.69530362 -40.58627722 70.5989044 -46.68359375 71.51953125 C-47.33470972 68.0413322 -47.97850124 64.56181423 -48.62109375 61.08203125 C-48.80349609 60.10814453 -48.98589844 59.13425781 -49.17382812 58.13085938 C-52.45066817 40.31676531 -55.77595001 17.46286058 -46.37109375 1.01953125 C-34.34476503 -16.09902675 -15.11231711 -9.03297892 0 0 Z " fill="#222324" transform="translate(210.68359375,121.48046875)"/>
<path d="M0 0 C8.16650505 17.25618025 8.57456789 47.57397761 2.26171875 65.31640625 C-0.49581202 71.18149491 -3.9407135 76.42628973 -9.8984375 79.37890625 C-22.05757588 82.97240625 -34.79172262 77.73032852 -45.39453125 72.0703125 C-54.558896 66.94460728 -62.7428903 60.37530017 -70.75 53.625 C-71.34683594 53.12524658 -71.94367188 52.62549316 -72.55859375 52.1105957 C-75.40330984 49.65503876 -77.67932017 47.57260826 -79 44 C-76.62074043 41.07690967 -74.29368651 38.2917607 -71.6171875 35.6328125 C-69.03740247 33.03762577 -66.66425487 30.36516985 -64.3125 27.5625 C-63.87808594 27.05605957 -63.44367188 26.54961914 -62.99609375 26.02783203 C-60.622039 23.20006523 -58.5812353 20.39218032 -56.76171875 17.17578125 C-51.31488629 7.8393731 -51.31488629 7.8393731 -46.81982422 6.20947266 C-41.56603849 5.11754264 -36.34724862 5.06237512 -31 5 C-30.67 4.67 -30.34 4.34 -30 4 C-26.32186772 3.16352016 -22.59152634 2.57882741 -18.875 1.9375 C-17.84117187 1.75123047 -16.80734375 1.56496094 -15.7421875 1.37304688 C-10.41779711 0.44603248 -5.40458726 -0.23731191 0 0 Z " fill="#222424" transform="translate(344,322)"/>
<path d="M0 0 C8.12413605 4.97547638 13.27782382 11.08500571 16.13671875 20.30859375 C17.78119869 30.6058046 16.3642313 39.39186371 10.2890625 47.89453125 C4.19908056 55.43240363 -2.47746828 59.46172966 -12.1328125 60.7421875 C-21.94717449 61.12637961 -30.12401508 58.91605637 -37.73828125 52.62109375 C-45.10744418 45.55567768 -47.97006305 38.23146011 -48.23828125 28.18359375 C-48.29884551 19.71896914 -45.95683306 13.98741211 -40.55078125 7.55859375 C-28.80088116 -2.27853191 -14.81683271 -7.27005883 0 0 Z " fill="#60D7F8" transform="translate(269.86328125,228.69140625)"/>
<path d="M0 0 C1.9375 0.6875 1.9375 0.6875 4 2 C4.75 4.625 4.75 4.625 5 7 C5.66 7 6.32 7 7 7 C7.31227539 7.57443848 7.62455078 8.14887695 7.94628906 8.74072266 C9.37796312 11.37040376 10.81394302 13.99771001 12.25 16.625 C12.74113281 17.52863281 13.23226562 18.43226563 13.73828125 19.36328125 C15.8256332 23.17617747 17.890608 26.94220143 20.359375 30.5234375 C22 33 22 33 22 35 C11.03378421 34.55459348 0.48790819 33.4959694 -10 30 C-8.68132387 23.41987237 -6.82135029 17.32932294 -4.4375 11.0625 C-4.12103516 10.21365234 -3.80457031 9.36480469 -3.47851562 8.49023438 C-1.1860119 2.37202381 -1.1860119 2.37202381 0 0 Z " fill="#252C2E" transform="translate(179,277)"/>
<path d="M0 0 C-1.86162734 5.26112074 -4.79954538 9.75645501 -7.72265625 14.47265625 C-9.82244576 17.90300545 -11.65082119 21.18710337 -13 25 C-13.66 25 -14.32 25 -15 25 C-15.268125 25.886875 -15.53625 26.77375 -15.8125 27.6875 C-16.9250635 30.7909666 -18.10195778 33.31110685 -20 36 C-20.66 36 -21.32 36 -22 36 C-23.43255576 32.23115914 -24.85644232 28.45916841 -26.27246094 24.68408203 C-26.75512783 23.40096555 -27.24013237 22.11872585 -27.72753906 20.83740234 C-28.42870823 18.99289815 -29.12071828 17.14492045 -29.8125 15.296875 C-30.23144531 14.18666992 -30.65039062 13.07646484 -31.08203125 11.93261719 C-32 9 -32 9 -32 5 C-25.56392757 3.65050094 -19.10796609 2.47286913 -12.625 1.375 C-11.84012207 1.23989014 -11.05524414 1.10478027 -10.24658203 0.96557617 C-9.12292236 0.77765503 -9.12292236 0.77765503 -7.9765625 0.5859375 C-7.30705566 0.4729834 -6.63754883 0.3600293 -5.94775391 0.24365234 C-4 0 -4 0 0 0 Z " fill="#24292B" transform="translate(201,202)"/>
<path d="M0 0 C8.11019262 3.25155188 15.53709563 13.60574147 20 21 C20.495 22.98 20.495 22.98 21 25 C7.8 25 -5.4 25 -19 25 C-17.31745327 21.63490654 -15.77992332 19.30992618 -13.4375 16.4375 C-12.73496094 15.57253906 -12.03242188 14.70757812 -11.30859375 13.81640625 C-10.54675781 12.88699219 -9.78492188 11.95757812 -9 11 C-7.74896484 9.46666016 -7.74896484 9.46666016 -6.47265625 7.90234375 C-4.31872927 5.26522936 -2.16104978 2.63127821 0 0 Z " fill="#252B2C" transform="translate(253,159)"/>
<path d="M0 0 C0.66 0 1.32 0 2 0 C6.1888704 10.22543432 9.97719253 20.09610447 12 31 C1.93186641 33.76597077 -8.4958039 36.25524215 -19 36 C-19 35.01 -19 34.02 -19 33 C-18.34 33 -17.68 33 -17 33 C-16.95875 32.34 -16.9175 31.68 -16.875 31 C-16.01496904 28.05132241 -15.32227457 26.99111337 -13.4375 24.6875 C-8.88526784 18.94485362 -5.97320235 12.27320085 -2.81835938 5.70117188 C-1.89918738 3.79043486 -0.95602961 1.89254841 0 0 Z " fill="#242728" transform="translate(327,276)"/>
<path d="M0 0 C11.05457753 0.24715519 21.38373309 3.14116848 32 6 C31.33372522 9.82263641 30.26037893 13.31304378 28.93359375 16.95703125 C28.53076172 18.06884766 28.12792969 19.18066406 27.71289062 20.32617188 C27.08157227 22.0519043 27.08157227 22.0519043 26.4375 23.8125 C26.01275391 24.98232422 25.58800781 26.15214844 25.15039062 27.35742188 C24.10344692 30.23945793 23.05321116 33.12024968 22 36 C21.34 36 20.68 36 20 36 C19.67314209 35.39115967 19.34628418 34.78231934 19.00952148 34.1550293 C11.08614425 19.25858981 11.08614425 19.25858981 2.20703125 4.92578125 C1 3 1 3 0 0 Z " fill="#232526" transform="translate(307,202)"/>
<path d="M0 0 C13.2 0 26.4 0 40 0 C37.94698582 4.10602836 35.5796105 7.30195296 32.75 10.875 C32.28464844 11.47441406 31.81929688 12.07382812 31.33984375 12.69140625 C28.13954575 16.75569655 24.71803251 20.40296855 21 24 C11.89603549 20.20668145 5.28033653 8.92769871 0 1 C0 0.67 0 0.34 0 0 Z " fill="#232728" transform="translate(234,331)"/>
<path d="M0 0 C0.66 0.33 1.32 0.66 2 1 C-2.33333333 5.33333333 -6.66666667 9.66666667 -11 14 C-11 12.68 -11 11.36 -11 10 C-9.68 9.34 -8.36 8.68 -7 8 C-7 7.34 -7 6.68 -7 6 C-5.46875 4.4921875 -5.46875 4.4921875 -3.5 2.875 C-2.8503125 2.33617187 -2.200625 1.79734375 -1.53125 1.2421875 C-0.77328125 0.62730469 -0.77328125 0.62730469 0 0 Z " fill="#2E444B" transform="translate(277,136)"/>
<path d="M0 0 C1.91731918 0.11455681 3.8338675 0.24206258 5.75 0.375 C7.35101563 0.47941406 7.35101563 0.47941406 8.984375 0.5859375 C12 1 12 1 16 3 C11.05 3 6.1 3 1 3 C0.67 2.01 0.34 1.02 0 0 Z " fill="#386470" transform="translate(307,202)"/>
<path d="M0 0 C-0.66 1.32 -1.32 2.64 -2 4 C-2 3.34 -2 2.68 -2 2 C-5.3 2 -8.6 2 -12 2 C-12 1.67 -12 1.34 -12 1 C-7.915021 0.45533613 -4.1274515 0 0 0 Z " fill="#386470" transform="translate(201,202)"/>
</svg>
