<?xml version="1.0" encoding="UTF-8"?>
<svg version="1.1" xmlns="http://www.w3.org/2000/svg" width="360" height="360">
<path d="M0 0 C118.8 0 237.6 0 360 0 C360 118.8 360 237.6 360 360 C241.2 360 122.4 360 0 360 C0 241.2 0 122.4 0 0 Z " fill="#017ACB" transform="translate(0,0)"/>
<path d="M0 0 C1.33417969 0.04253906 1.33417969 0.04253906 2.6953125 0.0859375 C17.85607306 0.99299155 28.30785986 8.00968976 38.8359375 18.4375 C41.11801357 21.1397417 42.55139596 23.78503362 44 27 C41.5014983 28.73136465 39.00125758 30.46012442 36.5 32.1875 C35.80390625 32.67025391 35.1078125 33.15300781 34.390625 33.65039062 C32.2692775 35.11372756 30.13593023 36.55805257 28 38 C27.28199219 38.49967285 26.56398438 38.9993457 25.82421875 39.51416016 C25.12941406 39.97999512 24.43460937 40.44583008 23.71875 40.92578125 C23.09935547 41.34899658 22.47996094 41.77221191 21.84179688 42.20825195 C19.47155188 43.22716824 18.36819973 42.93522248 16 42 C14.359375 40.2578125 14.359375 40.2578125 12.75 38.125 C8.55672928 33.15717609 4.89939815 31.4843592 -1.484375 30.69140625 C-7.49760936 30.39074453 -11.21503282 31.3115878 -16 35 C-18.71311108 39.1286473 -18.64520582 44.21189362 -18 49 C-13.88519407 58.5388683 -1.22817488 62.40256922 7.6875 66.3125 C23.91887436 73.60565132 41.31138869 81.52463323 50 98 C55.56066901 112.77924123 55.76965743 127.66607041 49.3125 142.1875 C42.64369656 154.29200738 31.73282158 160.6570221 19 165 C18.02160156 165.35707031 17.04320312 165.71414063 16.03515625 166.08203125 C-0.47997374 170.66351894 -21.56463203 168.13599877 -36.6328125 160.1328125 C-39.88566558 158.22852265 -42.94670341 156.2077683 -46 154 C-46.74636719 153.46761719 -47.49273437 152.93523437 -48.26171875 152.38671875 C-54.48621131 147.45848594 -58.92567512 140.74338492 -63 134 C-63 133.34 -63 132.68 -63 132 C-62.49662109 131.72325439 -61.99324219 131.44650879 -61.47460938 131.16137695 C-59.14844214 129.88075899 -56.82421943 128.59664945 -54.5 127.3125 C-53.31277344 126.65991211 -53.31277344 126.65991211 -52.1015625 125.99414062 C-47.49522674 123.44555321 -43.04848004 120.79357261 -38.70898438 117.80932617 C-37 117 -37 117 -34 118 C-32.52734375 119.8203125 -32.52734375 119.8203125 -30.9375 122.125 C-25.73662369 128.99015673 -19.10666221 134.42009623 -10.41015625 135.78515625 C-1.4841988 136.58082507 6.03466575 136.57743216 14 132 C17.30063961 129.18238082 18.24384063 126.79403439 18.9375 122.625 C19.20102592 118.20362066 18.78990953 114.55528295 16 111 C9.23077923 104.99441982 1.05450239 101.25914268 -7.35546875 98.12109375 C-19.99827948 93.39856981 -31.57612313 86.73019792 -41 77 C-41.87205078 76.14148438 -41.87205078 76.14148438 -42.76171875 75.265625 C-50.7468318 66.81789835 -52.90371193 57.01494821 -52.75 45.6875 C-52.7396875 44.49922607 -52.729375 43.31095215 -52.71875 42.08666992 C-52.35652497 30.28605773 -49.22284933 22.32088246 -41.1875 13.5 C-29.19908649 2.69191292 -15.75519922 -0.51426466 0 0 Z " fill="#FDFEFE" transform="translate(262,131)"/>
<path d="M0 0 C41.91 0 83.82 0 127 0 C127 9.9 127 19.8 127 30 C111.49 30 95.98 30 80 30 C80 73.89 80 117.78 80 163 C69.11 163 58.22 163 47 163 C47 119.11 47 75.22 47 30 C31.49 30 15.98 30 0 30 C0 20.1 0 10.2 0 0 Z " fill="#FEFEFE" transform="translate(63,133)"/>
</svg>
