<?xml version="1.0" encoding="UTF-8"?>
<svg version="1.1" xmlns="http://www.w3.org/2000/svg" width="2100" height="2109">
<path d="M0 0 C2.73818396 0.26657731 5.47735473 0.52061452 8.21685791 0.77325439 C97.88336373 9.13810173 186.35698294 28.92700367 430.60113525 134.25323486 C431.94594971 135.03295654 431.94594971 135.03295654 433.31793213 135.82843018 C453.13130601 147.33319795 472.67890113 159.32843994 491.60113525 172.25323486 C492.22858643 172.68023682 492.8560376 173.10723877 493.50250244 173.54718018 C498.21842606 176.75906854 502.91328312 180.00055392 507.60113525 183.25323486 C508.26838623 183.71423584 508.93563721 184.17523682 509.62310791 184.65020752 C521.08780197 192.5830584 532.20050799 200.93815983 543.24664307 209.44219971 C545.30620037 211.02637599 547.37005579 212.60459561 549.43707275 214.17901611 C556.27770217 219.39669586 562.96753501 224.77541563 569.60113525 230.25323486 C571.37189308 231.69082788 573.14272751 233.12832653 574.91363525 234.56573486 C584.27215538 242.22635205 593.42639382 250.12205716 602.38238525 258.24932861 C604.39421918 260.06635468 606.42773959 261.85267878 608.47613525 263.62823486 C613.36970053 267.8979193 618.15035602 272.28938907 622.9175415 276.69903564 C624.02717767 277.72338945 625.13910837 278.74526406 626.253479 279.76446533 C636.14619346 288.81469978 645.67519416 298.22083307 655.16363525 307.69073486 C655.77618164 308.30069305 656.38872803 308.91065125 657.01983643 309.53909302 C669.09918878 321.57817277 669.09918878 321.57817277 674.20050049 327.63824463 C675.7557927 329.43156135 677.40667909 331.09152539 679.10113525 332.75323486 C682.11527108 335.72058809 684.90030858 338.82668779 687.659729 342.03057861 C689.88917587 344.58300369 692.18114907 347.07211 694.47613525 349.56573486 C698.52634817 354.00574271 702.35647647 358.57257768 706.128479 363.24932861 C709.00997158 366.74990965 711.98858087 370.15580812 714.97613525 373.56573486 C720.58758169 379.99561863 725.91873065 386.59506342 731.12945557 393.35186768 C732.71222516 395.39675977 734.3079305 397.43107806 735.90582275 399.46417236 C753.09308865 421.36808989 769.34857072 443.95918614 784.60113525 467.25323486 C785.2358374 468.21979004 785.2358374 468.21979004 785.88336182 469.20587158 C804.16912469 497.09470533 820.94869678 525.80785772 836.60113525 555.25323486 C837.10209717 556.19199463 837.60305908 557.13075439 838.11920166 558.09796143 C878.92411092 634.71830161 908.40975514 716.76914914 952.38824463 947.86346436 C952.59991996 950.23959275 952.82558836 952.61403888 953.05426025 954.98858643 C958.53613836 1012.92182053 958.64582893 1073.78462127 952.85437012 1131.6963501 C952.586217 1134.40386284 952.33260578 1137.11248513 952.08111572 1139.82159424 C948.25912997 1180.61892926 942.16203672 1221.17748879 933.60113525 1261.25323486 C933.34360474 1262.45994843 933.34360474 1262.45994843 933.08087158 1263.69104004 C923.94665104 1306.26785799 912.06729792 1348.18172673 897.60113525 1389.25323486 C897.37272949 1389.9036676 897.14432373 1390.55410034 896.90899658 1391.22424316 C883.09508302 1430.50771374 866.56342183 1468.55951872 848.22955322 1505.93341064 C847.19137045 1508.04993378 846.15621582 1510.16794683 845.12506104 1512.28790283 C838.60738785 1525.68597585 831.527856 1538.67845498 824.11187744 1551.59893799 C822.32138918 1554.74473442 820.5806719 1557.91568002 818.84576416 1561.09234619 C809.25209124 1578.62923157 798.60673485 1595.57305809 787.60113525 1612.25323486 C787.13530029 1612.96221924 786.66946533 1613.67120361 786.18951416 1614.40167236 C778.22318876 1626.51415089 769.98729843 1638.4281075 761.60113525 1650.25323486 C761.05312256 1651.02699463 760.50510986 1651.80075439 759.94049072 1652.59796143 C748.25312647 1669.0593347 735.82461175 1684.89814896 723.02935791 1700.50909424 C721.74108877 1702.0823241 720.457908 1703.65971734 719.175354 1705.23760986 C710.98437299 1715.3053876 702.64643022 1725.20535042 693.8706665 1734.76885986 C691.89791253 1736.92836335 689.95834346 1739.1091737 688.03863525 1741.31573486 C683.94718023 1746.01193151 679.79866373 1750.65149994 675.60113525 1755.25323486 C675.14432373 1755.75661377 674.68751221 1756.25999268 674.21685791 1756.77862549 C664.83139318 1767.08301226 655.00814968 1776.9532925 645.16363525 1786.81573486 C644.50602203 1787.47593628 643.84840881 1788.1361377 643.17086792 1788.81634521 C630.14729327 1801.88029077 630.14729327 1801.88029077 624.18096924 1806.88775635 C622.39752467 1808.4292191 620.75130244 1810.07062057 619.10113525 1811.75323486 C616.11241189 1814.78918411 612.98407046 1817.59832145 609.75738525 1820.37823486 C607.40150568 1822.4268258 605.09606065 1824.52526488 602.78863525 1826.62823486 C598.51803374 1830.48345872 594.11339856 1834.12906002 589.64019775 1837.74542236 C586.13054914 1840.64155913 582.71108933 1843.63019312 579.28863525 1846.62823486 C572.86018282 1852.23832892 566.26233219 1857.56790871 559.50689697 1862.77716064 C557.4478624 1864.37194966 555.40084636 1865.98135777 553.3550415 1867.59307861 C543.68209969 1875.19710625 533.84005573 1882.51181718 523.82476807 1889.65753174 C521.6436139 1891.22275172 519.4759393 1892.80484766 517.31207275 1894.39385986 C446.82832641 1946.04948282 368.01179371 1987.66345022 247.60113525 2033.25323486 C246.78687073 2033.53231689 245.9726062 2033.81139893 245.13366699 2034.09893799 C219.24720387 2042.94984072 193.12574245 2050.5628545 166.60113525 2057.25323486 C165.8006073 2057.45583923 165.00007935 2057.6584436 164.17529297 2057.8671875 C110.41038042 2071.44451806 55.79380046 2080.1332777 0.60113525 2085.25323486 C-0.29131897 2085.33786987 -1.18377319 2085.42250488 -2.10327148 2085.50970459 C-60.79546352 2091.03274964 -121.72082366 2090.78743942 -180.39886475 2085.25323486 C-181.32487488 2085.1683783 -182.25088501 2085.08352173 -183.20495605 2084.99609375 C-279.65685826 2076.15307817 -375.27056171 2054.83233646 -491.39886475 2009.25323486 C-492.04474548 2008.98380066 -492.69062622 2008.71436646 -493.3560791 2008.43676758 C-507.68635578 2002.44597713 -521.8655744 1996.12879449 -535.93960571 1989.55911255 C-538.09554349 1988.56148755 -540.26102857 1987.58728933 -542.42840576 1986.61480713 C-549.9056132 1983.20515024 -556.63833688 1979.53892202 -563.293396 1974.70635986 C-574.46126982 1966.85995427 -585.14897557 1960.91869565 -599.16543579 1963.00856018 C-611.407079 1965.37898713 -623.28840754 1969.27796207 -635.13931274 1973.10316467 C-646.3343859 1976.70373874 -657.62077952 1979.82273699 -669.00042725 1982.78448486 C-669.9013101 1983.0191427 -670.80219296 1983.25380054 -671.73037529 1983.49556923 C-675.45544022 1984.46464136 -679.18108007 1985.43145188 -682.90760708 1986.39488697 C-692.65435627 1988.91497616 -702.38613949 1991.49085294 -712.11833 1994.06647682 C-737.42326943 2000.75920397 -762.75367354 2007.3540059 -788.08636475 2013.94073486 C-796.13722374 2016.03418601 -804.18804057 2018.12779907 -812.2387085 2020.22198486 C-813.22003754 2020.47724756 -814.20136658 2020.73251026 -815.21243286 2020.99550819 C-835.53214085 2026.28181623 -855.84223195 2031.60444786 -876.14886475 2036.94073486 C-876.96027672 2037.15395386 -877.77168869 2037.36717285 -878.6076889 2037.58685303 C-882.6968253 2038.661391 -886.7859445 2039.73599438 -890.87506104 2040.81060791 C-891.68299606 2041.0229306 -892.49093109 2041.2352533 -893.323349 2041.45401001 C-894.95342948 2041.88239908 -896.58350557 2042.31080482 -898.21357727 2042.73922729 C-910.66045062 2046.01046164 -923.1090656 2049.27500058 -935.559021 2052.53448486 C-936.40347527 2052.75556915 -937.24792953 2052.97665344 -938.11797333 2053.20443726 C-942.41924089 2054.33049862 -946.72053817 2055.45644641 -951.02185059 2056.58233643 C-986.59483762 2065.89376208 -1022.16232451 2075.22602709 -1057.72665405 2084.57046509 C-1058.72997048 2084.83408372 -1059.73328691 2085.09770235 -1060.76700687 2085.36930943 C-1062.76775954 2085.89502183 -1064.76850409 2086.42076513 -1066.76924038 2086.94653988 C-1071.62423659 2088.22230291 -1076.47941205 2089.49737521 -1081.33500671 2090.77085876 C-1090.05706122 2093.058833 -1098.77783374 2095.35123333 -1107.49332619 2097.66409969 C-1111.41881698 2098.70528279 -1115.34526716 2099.74281795 -1119.27184677 2100.77988625 C-1121.12619403 2101.27069558 -1122.98007865 2101.76325658 -1124.83346939 2102.25766563 C-1127.37739336 2102.93615634 -1129.92282949 2103.60866082 -1132.46868896 2104.27984619 C-1133.59228632 2104.5820618 -1133.59228632 2104.5820618 -1134.73858261 2104.89038277 C-1138.1145338 2105.77439182 -1140.87855684 2106.25323486 -1144.39886475 2106.25323486 C-1143.752672 2098.61330817 -1141.67545197 2091.4462938 -1139.6137085 2084.08526611 C-1139.20964805 2082.62604228 -1138.80613706 2081.16666621 -1138.40312195 2079.70715332 C-1137.52237165 2076.5212985 -1136.63825394 2073.3364043 -1135.75158691 2070.15219116 C-1134.30337383 2064.9504483 -1132.8631894 2059.74650445 -1131.42474365 2054.54205322 C-1131.17432941 2053.63605157 -1130.92391518 2052.73004992 -1130.66591263 2051.79659367 C-1130.14664274 2049.9177539 -1129.62740577 2048.03890504 -1129.10820007 2046.16004753 C-1128.29522025 2043.21893296 -1127.48154686 2040.27801089 -1126.66778564 2037.33711243 C-1119.82932838 2012.61442259 -1113.07553359 1987.86854955 -1106.31467056 1963.12455368 C-1103.54891573 1953.00330061 -1100.78134897 1942.88254272 -1098.01414299 1932.76168633 C-1097.00744672 1929.07968987 -1096.00082526 1925.39767296 -1094.99421692 1921.71565247 C-1089.55208074 1901.80978204 -1084.10324917 1881.90575236 -1078.64886475 1862.00323486 C-1078.45275352 1861.28762012 -1078.2566423 1860.57200539 -1078.05458832 1859.83470535 C-1076.31684047 1853.49362042 -1074.57898208 1847.15256579 -1072.84091187 1840.81156921 C-1070.04181221 1830.59961029 -1067.24354525 1820.38742343 -1064.44573975 1810.17510986 C-1064.23815474 1809.41740232 -1064.03056973 1808.65969479 -1063.81669426 1807.87902641 C-1062.76504374 1804.04037631 -1061.71340536 1800.20172289 -1060.66177368 1796.36306763 C-1058.77871902 1789.48957313 -1056.89558811 1782.61609953 -1055.01244926 1775.7426281 C-1054.59538121 1774.22032634 -1054.178314 1772.69802434 -1053.76124763 1771.17572212 C-1050.8795032 1760.65729388 -1047.99757612 1750.13891568 -1045.1155262 1739.62057114 C-1036.31354086 1707.4967211 -1027.51319918 1675.3724209 -1018.71591187 1643.24728394 C-1017.73159047 1639.65284229 -1016.74719454 1636.05842108 -1015.76272583 1632.46401978 C-1015.52851834 1631.60866984 -1015.29431086 1630.75331991 -1015.05300617 1629.87205029 C-1014.5867413 1628.17003081 -1014.12003891 1626.46813114 -1013.6528883 1624.76635456 C-1012.52361474 1620.65015254 -1011.402 1616.53219277 -1010.29777527 1612.40919495 C-1008.39063675 1605.31618 -1006.44200875 1598.25981011 -1004.18049717 1591.27030182 C-1003.22221464 1588.29795974 -1002.30435106 1585.31379634 -1001.38883018 1582.32804871 C-1000.95424989 1580.95327079 -1000.49942918 1579.58468212 -1000.02198219 1578.22419739 C-997.94443873 1572.29794988 -996.34176158 1567.15673328 -998.86988831 1561.19429016 C-1000.77860832 1557.3637415 -1003.05519019 1553.8306601 -1005.39886475 1550.25323486 C-1006.47561066 1548.32445482 -1007.53809779 1546.38750595 -1008.574646 1544.43682861 C-1009.08237549 1543.50886475 -1009.59010498 1542.58090088 -1010.11322021 1541.62481689 C-1052.22220474 1464.31565466 -1084.1630213 1381.99994998 -1095.66778564 751.75201416 C-1092.13166515 739.84823057 -1088.3020468 728.040851 -1084.39886475 716.25323486 C-1083.90809735 714.76317798 -1083.41737435 713.27310648 -1082.92669678 711.78302002 C-1056.89636008 632.9634365 -1021.06509903 557.00894164 -940.39886475 433.25323486 C-939.86422607 432.51572998 -939.3295874 431.7782251 -938.77874756 431.01837158 C-926.6235187 414.27985353 -913.93544743 397.99037405 -900.82269287 381.99298096 C-899.5466017 380.43375159 -898.27699093 378.86922387 -897.00823975 377.30401611 C-888.27753348 366.54766037 -879.25067051 356.08257302 -869.84417725 345.91339111 C-867.84725682 343.7410224 -865.89057741 341.54784323 -863.96136475 339.31573486 C-852.90303944 326.62590938 -841.0434574 314.7398142 -829.13421631 302.85821533 C-826.63428263 300.36401732 -824.13892194 297.86529965 -821.64483261 295.36525917 C-819.69393635 293.41072478 -817.74063457 291.45860828 -815.78662872 289.50718307 C-814.42505469 288.14658242 -813.06546174 286.78400016 -811.70593262 285.4213562 C-807.30719756 281.0390968 -802.85543255 276.78748057 -798.13545227 272.75170898 C-795.20054544 270.21922394 -792.40558282 267.53784383 -789.58636475 264.87823486 C-784.54320656 260.15450377 -779.37195499 255.68489196 -773.97698975 251.36260986 C-771.37460185 249.2333834 -768.88310973 247.01874129 -766.39886475 244.75323486 C-761.22371658 240.04855471 -755.83683635 235.64887143 -750.39886475 231.25323486 C-749.16766387 230.24240719 -747.93723856 229.23063437 -746.7074585 228.21807861 C-738.14206913 221.18165425 -729.42834512 214.3972189 -720.51019287 207.81427002 C-718.32738366 206.20038449 -716.15188322 204.57698717 -713.97698975 202.95245361 C-696.83603458 190.18830022 -679.31345347 177.90950919 -661.39886475 166.25323486 C-660.65539795 165.7677417 -659.91193115 165.28224854 -659.14593506 164.78204346 C-615.24024033 136.20358823 -569.14922217 110.79406119 -521.39886475 89.25323486 C-520.37969971 88.78997803 -519.36053467 88.32672119 -518.31048584 87.84942627 C-439.94667498 52.30387775 -356.93616695 27.11934331 -219.39886475 4.25323486 C-218.61847839 4.15375549 -217.83809204 4.05427612 -217.03405762 3.95178223 C-206.30277781 2.59587301 -195.55903325 1.45461988 -184.78723145 0.4732666 C-182.41886223 0.25507716 -180.05173132 0.02598175 -177.68450928 -0.20428467 C-119.42055107 -5.74702999 -58.24840423 -5.70085974 0 0 Z " fill="#40C351" transform="translate(1144.3988647460938,2.74676513671875)"/>
<path d="M0 0 C2.73818396 0.26657731 5.47735473 0.52061452 8.21685791 0.77325439 C97.88336373 9.13810173 186.35698294 28.92700367 430.60113525 134.25323486 C431.94594971 135.03295654 431.94594971 135.03295654 433.31793213 135.82843018 C453.13130601 147.33319795 472.67890113 159.32843994 491.60113525 172.25323486 C492.22858643 172.68023682 492.8560376 173.10723877 493.50250244 173.54718018 C498.21842606 176.75906854 502.91328312 180.00055392 507.60113525 183.25323486 C508.26838623 183.71423584 508.93563721 184.17523682 509.62310791 184.65020752 C521.08780197 192.5830584 532.20050799 200.93815983 543.24664307 209.44219971 C545.30620037 211.02637599 547.37005579 212.60459561 549.43707275 214.17901611 C556.27770217 219.39669586 562.96753501 224.77541563 569.60113525 230.25323486 C571.37189308 231.69082788 573.14272751 233.12832653 574.91363525 234.56573486 C584.27215538 242.22635205 593.42639382 250.12205716 602.38238525 258.24932861 C604.39421918 260.06635468 606.42773959 261.85267878 608.47613525 263.62823486 C613.36970053 267.8979193 618.15035602 272.28938907 622.9175415 276.69903564 C624.02717767 277.72338945 625.13910837 278.74526406 626.253479 279.76446533 C636.14619346 288.81469978 645.67519416 298.22083307 655.16363525 307.69073486 C655.77618164 308.30069305 656.38872803 308.91065125 657.01983643 309.53909302 C669.09918878 321.57817277 669.09918878 321.57817277 674.20050049 327.63824463 C675.7557927 329.43156135 677.40667909 331.09152539 679.10113525 332.75323486 C682.11527108 335.72058809 684.90030858 338.82668779 687.659729 342.03057861 C689.88917587 344.58300369 692.18114907 347.07211 694.47613525 349.56573486 C698.52634817 354.00574271 702.35647647 358.57257768 706.128479 363.24932861 C709.00997158 366.74990965 711.98858087 370.15580812 714.97613525 373.56573486 C720.58758169 379.99561863 725.91873065 386.59506342 731.12945557 393.35186768 C732.71222516 395.39675977 734.3079305 397.43107806 735.90582275 399.46417236 C753.09308865 421.36808989 769.34857072 443.95918614 784.60113525 467.25323486 C785.2358374 468.21979004 785.2358374 468.21979004 785.88336182 469.20587158 C804.16912469 497.09470533 820.94869678 525.80785772 836.60113525 555.25323486 C837.10209717 556.19199463 837.60305908 557.13075439 838.11920166 558.09796143 C878.92411092 634.71830161 908.40975514 716.76914914 952.38824463 947.86346436 C952.59991996 950.23959275 952.82558836 952.61403888 953.05426025 954.98858643 C958.53613836 1012.92182053 958.64582893 1073.78462127 952.85437012 1131.6963501 C952.586217 1134.40386284 952.33260578 1137.11248513 952.08111572 1139.82159424 C948.25912997 1180.61892926 942.16203672 1221.17748879 933.60113525 1261.25323486 C933.34360474 1262.45994843 933.34360474 1262.45994843 933.08087158 1263.69104004 C923.94665104 1306.26785799 912.06729792 1348.18172673 897.60113525 1389.25323486 C897.37272949 1389.9036676 897.14432373 1390.55410034 896.90899658 1391.22424316 C883.09508302 1430.50771374 866.56342183 1468.55951872 848.22955322 1505.93341064 C847.19137045 1508.04993378 846.15621582 1510.16794683 845.12506104 1512.28790283 C838.60738785 1525.68597585 831.527856 1538.67845498 824.11187744 1551.59893799 C822.32138918 1554.74473442 820.5806719 1557.91568002 818.84576416 1561.09234619 C809.25209124 1578.62923157 798.60673485 1595.57305809 787.60113525 1612.25323486 C787.13530029 1612.96221924 786.66946533 1613.67120361 786.18951416 1614.40167236 C778.22318876 1626.51415089 769.98729843 1638.4281075 761.60113525 1650.25323486 C761.05312256 1651.02699463 760.50510986 1651.80075439 759.94049072 1652.59796143 C748.25312647 1669.0593347 735.82461175 1684.89814896 723.02935791 1700.50909424 C721.74108877 1702.0823241 720.457908 1703.65971734 719.175354 1705.23760986 C710.98437299 1715.3053876 702.64643022 1725.20535042 693.8706665 1734.76885986 C691.89791253 1736.92836335 689.95834346 1739.1091737 688.03863525 1741.31573486 C683.94718023 1746.01193151 679.79866373 1750.65149994 675.60113525 1755.25323486 C675.14432373 1755.75661377 674.68751221 1756.25999268 674.21685791 1756.77862549 C664.83139318 1767.08301226 655.00814968 1776.9532925 645.16363525 1786.81573486 C644.50602203 1787.47593628 643.84840881 1788.1361377 643.17086792 1788.81634521 C630.14729327 1801.88029077 630.14729327 1801.88029077 624.18096924 1806.88775635 C622.39752467 1808.4292191 620.75130244 1810.07062057 619.10113525 1811.75323486 C616.11241189 1814.78918411 612.98407046 1817.59832145 609.75738525 1820.37823486 C607.40150568 1822.4268258 605.09606065 1824.52526488 602.78863525 1826.62823486 C598.51803374 1830.48345872 594.11339856 1834.12906002 589.64019775 1837.74542236 C586.13054914 1840.64155913 582.71108933 1843.63019312 579.28863525 1846.62823486 C572.86018282 1852.23832892 566.26233219 1857.56790871 559.50689697 1862.77716064 C557.4478624 1864.37194966 555.40084636 1865.98135777 553.3550415 1867.59307861 C543.68209969 1875.19710625 533.84005573 1882.51181718 523.82476807 1889.65753174 C521.6436139 1891.22275172 519.4759393 1892.80484766 517.31207275 1894.39385986 C446.82832641 1946.04948282 368.01179371 1987.66345022 247.60113525 2033.25323486 C246.78687073 2033.53231689 245.9726062 2033.81139893 245.13366699 2034.09893799 C219.24720387 2042.94984072 193.12574245 2050.5628545 166.60113525 2057.25323486 C165.8006073 2057.45583923 165.00007935 2057.6584436 164.17529297 2057.8671875 C110.41038042 2071.44451806 55.79380046 2080.1332777 0.60113525 2085.25323486 C-0.29131897 2085.33786987 -1.18377319 2085.42250488 -2.10327148 2085.50970459 C-60.79546352 2091.03274964 -121.72082366 2090.78743942 -180.39886475 2085.25323486 C-181.32487488 2085.1683783 -182.25088501 2085.08352173 -183.20495605 2084.99609375 C-279.65685826 2076.15307817 -375.27056171 2054.83233646 -491.39886475 2009.25323486 C-492.04474548 2008.98380066 -492.69062622 2008.71436646 -493.3560791 2008.43676758 C-507.68635578 2002.44597713 -521.8655744 1996.12879449 -535.93960571 1989.55911255 C-538.09554349 1988.56148755 -540.26102857 1987.58728933 -542.42840576 1986.61480713 C-549.9056132 1983.20515024 -556.63833688 1979.53892202 -563.293396 1974.70635986 C-574.46126982 1966.85995427 -585.14897557 1960.91869565 -599.16543579 1963.00856018 C-611.407079 1965.37898713 -623.28840754 1969.27796207 -635.13931274 1973.10316467 C-646.3343859 1976.70373874 -657.62077952 1979.82273699 -669.00042725 1982.78448486 C-669.9013101 1983.0191427 -670.80219296 1983.25380054 -671.73037529 1983.49556923 C-675.45544022 1984.46464136 -679.18108007 1985.43145188 -682.90760708 1986.39488697 C-692.65435627 1988.91497616 -702.38613949 1991.49085294 -712.11833 1994.06647682 C-737.42326943 2000.75920397 -762.75367354 2007.3540059 -788.08636475 2013.94073486 C-796.13722374 2016.03418601 -804.18804057 2018.12779907 -812.2387085 2020.22198486 C-813.22003754 2020.47724756 -814.20136658 2020.73251026 -815.21243286 2020.99550819 C-835.53214085 2026.28181623 -855.84223195 2031.60444786 -876.14886475 2036.94073486 C-876.96027672 2037.15395386 -877.77168869 2037.36717285 -878.6076889 2037.58685303 C-882.6968253 2038.661391 -886.7859445 2039.73599438 -890.87506104 2040.81060791 C-891.68299606 2041.0229306 -892.49093109 2041.2352533 -893.323349 2041.45401001 C-894.95342948 2041.88239908 -896.58350557 2042.31080482 -898.21357727 2042.73922729 C-910.66045062 2046.01046164 -923.1090656 2049.27500058 -935.559021 2052.53448486 C-936.40347527 2052.75556915 -937.24792953 2052.97665344 -938.11797333 2053.20443726 C-942.41924089 2054.33049862 -946.72053817 2055.45644641 -951.02185059 2056.58233643 C-986.59483762 2065.89376208 -1022.16232451 2075.22602709 -1057.72665405 2084.57046509 C-1058.72997048 2084.83408372 -1059.73328691 2085.09770235 -1060.76700687 2085.36930943 C-1062.76775954 2085.89502183 -1064.76850409 2086.42076513 -1066.76924038 2086.94653988 C-1071.62423659 2088.22230291 -1076.47941205 2089.49737521 -1081.33500671 2090.77085876 C-1090.05706122 2093.058833 -1098.77783374 2095.35123333 -1107.49332619 2097.66409969 C-1111.41881698 2098.70528279 -1115.34526716 2099.74281795 -1119.27184677 2100.77988625 C-1121.12619403 2101.27069558 -1122.98007865 2101.76325658 -1124.83346939 2102.25766563 C-1127.37739336 2102.93615634 -1129.92282949 2103.60866082 -1132.46868896 2104.27984619 C-1133.59228632 2104.5820618 -1133.59228632 2104.5820618 -1134.73858261 2104.89038277 C-1138.1145338 2105.77439182 -1140.87855684 2106.25323486 -1144.39886475 2106.25323486 C-1143.752672 2098.61330817 -1141.67545197 2091.4462938 -1139.6137085 2084.08526611 C-1139.20964805 2082.62604228 -1138.80613706 2081.16666621 -1138.40312195 2079.70715332 C-1137.52237165 2076.5212985 -1136.63825394 2073.3364043 -1135.75158691 2070.15219116 C-1134.30337383 2064.9504483 -1132.8631894 2059.74650445 -1131.42474365 2054.54205322 C-1131.17432941 2053.63605157 -1130.92391518 2052.73004992 -1130.66591263 2051.79659367 C-1130.14664274 2049.9177539 -1129.62740577 2048.03890504 -1129.10820007 2046.16004753 C-1128.29522025 2043.21893296 -1127.48154686 2040.27801089 -1126.66778564 2037.33711243 C-1119.82932838 2012.61442259 -1113.07553359 1987.86854955 -1106.31467056 1963.12455368 C-1103.54891573 1953.00330061 -1100.78134897 1942.88254272 -1098.01414299 1932.76168633 C-1097.00744672 1929.07968987 -1096.00082526 1925.39767296 -1094.99421692 1921.71565247 C-1089.55208074 1901.80978204 -1084.10324917 1881.90575236 -1078.64886475 1862.00323486 C-1078.45275352 1861.28762012 -1078.2566423 1860.57200539 -1078.05458832 1859.83470535 C-1076.31684047 1853.49362042 -1074.57898208 1847.15256579 -1072.84091187 1840.81156921 C-1070.04181221 1830.59961029 -1067.24354525 1820.38742343 -1064.44573975 1810.17510986 C-1064.23815474 1809.41740232 -1064.03056973 1808.65969479 -1063.81669426 1807.87902641 C-1062.76504374 1804.04037631 -1061.71340536 1800.20172289 -1060.66177368 1796.36306763 C-1058.77871902 1789.48957313 -1056.89558811 1782.61609953 -1055.01244926 1775.7426281 C-1054.59538121 1774.22032634 -1054.178314 1772.69802434 -1053.76124763 1771.17572212 C-1050.8795032 1760.65729388 -1047.99757612 1750.13891568 -1045.1155262 1739.62057114 C-1036.31354086 1707.4967211 -1027.51319918 1675.3724209 -1018.71591187 1643.24728394 C-1017.73159047 1639.65284229 -1016.74719454 1636.05842108 -1015.76272583 1632.46401978 C-1015.52851834 1631.60866984 -1015.29431086 1630.75331991 -1015.05300617 1629.87205029 C-1014.5867413 1628.17003081 -1014.12003891 1626.46813114 -1013.6528883 1624.76635456 C-1012.52361474 1620.65015254 -1011.402 1616.53219277 -1010.29777527 1612.40919495 C-1008.39063675 1605.31618 -1006.44200875 1598.25981011 -1004.18049717 1591.27030182 C-1003.22221464 1588.29795974 -1002.30435106 1585.31379634 -1001.38883018 1582.32804871 C-1000.95424989 1580.95327079 -1000.49942918 1579.58468212 -1000.02198219 1578.22419739 C-997.94443873 1572.29794988 -996.34176158 1567.15673328 -998.86988831 1561.19429016 C-1000.77860832 1557.3637415 -1003.05519019 1553.8306601 -1005.39886475 1550.25323486 C-1006.47561066 1548.32445482 -1007.53809779 1546.38750595 -1008.574646 1544.43682861 C-1009.08237549 1543.50886475 -1009.59010498 1542.58090088 -1010.11322021 1541.62481689 C-1052.22220474 1464.31565466 -1084.1630213 1381.99994998 -1095.66778564 751.75201416 C-1092.13166515 739.84823057 -1088.3020468 728.040851 -1084.39886475 716.25323486 C-1083.90809735 714.76317798 -1083.41737435 713.27310648 -1082.92669678 711.78302002 C-1056.89636008 632.9634365 -1021.06509903 557.00894164 -940.39886475 433.25323486 C-939.86422607 432.51572998 -939.3295874 431.7782251 -938.77874756 431.01837158 C-926.6235187 414.27985353 -913.93544743 397.99037405 -900.82269287 381.99298096 C-899.5466017 380.43375159 -898.27699093 378.86922387 -897.00823975 377.30401611 C-888.27753348 366.54766037 -879.25067051 356.08257302 -869.84417725 345.91339111 C-867.84725682 343.7410224 -865.89057741 341.54784323 -863.96136475 339.31573486 C-852.90303944 326.62590938 -841.0434574 314.7398142 -829.13421631 302.85821533 C-826.63428263 300.36401732 -824.13892194 297.86529965 -821.64483261 295.36525917 C-819.69393635 293.41072478 -817.74063457 291.45860828 -815.78662872 289.50718307 C-814.42505469 288.14658242 -813.06546174 286.78400016 -811.70593262 285.4213562 C-807.30719756 281.0390968 -802.85543255 276.78748057 -798.13545227 272.75170898 C-795.20054544 270.21922394 -792.40558282 267.53784383 -789.58636475 264.87823486 C-784.54320656 260.15450377 -779.37195499 255.68489196 -773.97698975 251.36260986 C-771.37460185 249.2333834 -768.88310973 247.01874129 -766.39886475 244.75323486 C-761.22371658 240.04855471 -755.83683635 235.64887143 -750.39886475 231.25323486 C-749.16766387 230.24240719 -747.93723856 229.23063437 -746.7074585 228.21807861 C-738.14206913 221.18165425 -729.42834512 214.3972189 -720.51019287 207.81427002 C-718.32738366 206.20038449 -716.15188322 204.57698717 -713.97698975 202.95245361 C-696.83603458 190.18830022 -679.31345347 177.90950919 -661.39886475 166.25323486 C-660.65539795 165.7677417 -659.91193115 165.28224854 -659.14593506 164.78204346 C-615.24024033 136.20358823 -569.14922217 110.79406119 -521.39886475 89.25323486 C-520.37969971 88.78997803 -519.36053467 88.32672119 -518.31048584 87.84942627 C-439.94667498 52.30387775 -356.93616695 27.11934331 -219.39886475 4.25323486 C-218.61847839 4.15375549 -217.83809204 4.05427612 -217.03405762 3.95178223 C-206.30277781 2.59587301 -195.55903325 1.45461988 -184.78723145 0.4732666 C-182.41886223 0.25507716 -180.05173132 0.02598175 -177.68450928 -0.20428467 C-119.42055107 -5.74702999 -58.24840423 -5.70085974 0 0 Z M-203.08117676 178.95782471 C-205.40176471 179.25360449 -207.72342965 179.53853248 -210.0458374 179.81964111 C-210.77873993 179.90886841 -211.51164246 179.9980957 -212.26675415 180.09002686 C-214.24260741 180.32991099 -216.21867734 180.56800861 -218.19476318 180.80596924 C-221.333808 181.24415349 -224.27447155 181.90209821 -227.3168335 182.75714111 C-230.13572792 183.42881014 -232.96561745 183.7973482 -235.83636475 184.19073486 C-241.25070702 184.93353852 -246.63960509 185.75822459 -252.02386475 186.69073486 C-252.67927246 186.80086914 -253.33468018 186.91100342 -254.00994873 187.0244751 C-259.05577832 187.91134788 -263.9865 189.13436909 -268.949646 190.39898682 C-272.83173886 191.36044229 -276.72652112 192.24775391 -280.6293335 193.12042236 C-281.35592163 193.2836348 -282.08250977 193.44684723 -282.83111572 193.61500549 C-285.82731764 194.28769367 -288.82368073 194.95948988 -291.82196045 195.62286377 C-301.54987455 197.77893549 -311.11252319 200.24156302 -320.65106201 203.12432861 C-325.00532097 204.43591049 -329.38294937 205.63498009 -333.77386475 206.81573486 C-339.5265865 208.38606241 -345.10971189 210.15439448 -350.684021 212.28448486 C-355.03462194 213.83692952 -359.48552174 215.017136 -363.9418335 216.22589111 C-367.03486919 217.14506443 -370.02693903 218.20692641 -373.03826904 219.36236572 C-375.84935181 220.42324493 -378.67935704 221.42362747 -381.512146 222.42510986 C-401.50717774 229.55556721 -420.98712856 237.67081287 -440.39886475 246.25323486 C-442.09535156 247.00298584 -442.09535156 247.00298584 -443.82611084 247.7678833 C-473.66092087 261.01844773 -502.41663813 276.45670552 -530.39886475 293.25323486 C-531.45847412 293.88874268 -532.5180835 294.52425049 -533.60980225 295.17901611 C-548.88921021 304.37932471 -563.79534215 314.01447802 -578.39886475 324.25323486 C-579.38668945 324.94425293 -579.38668945 324.94425293 -580.39447021 325.64923096 C-584.42539902 328.47728631 -588.41759052 331.35585124 -592.39886475 334.25323486 C-593.11606689 334.77208252 -593.83326904 335.29093018 -594.57220459 335.82550049 C-604.49070683 343.00807843 -614.18318456 350.38259226 -623.63323975 358.17120361 C-627.1910257 361.10044738 -630.8184105 363.93122805 -634.46136475 366.75323486 C-645.08027112 375.0298242 -655.12113897 383.97461838 -664.96844482 393.14874268 C-667.81697383 395.80245875 -670.69430136 398.40575444 -673.64886475 400.94073486 C-677.26503908 404.06310388 -680.60437496 407.41891462 -683.93011475 410.84698486 C-685.95321409 412.8188665 -688.00715187 414.66440387 -690.1449585 416.50714111 C-694.60933834 420.38265147 -698.79373831 424.50047878 -702.96136475 428.69073486 C-703.67743896 429.40294189 -704.39351318 430.11514893 -705.13128662 430.84893799 C-709.15331635 434.87828715 -712.99187804 439.00533356 -716.70819092 443.31744385 C-719.47399234 446.48423655 -722.38190439 449.51462127 -725.27386475 452.56573486 C-730.19380248 457.79272146 -734.85261157 463.11186348 -739.3324585 468.72198486 C-741.39999257 471.25461639 -743.55999816 473.66054647 -745.77386475 476.06573486 C-749.7549833 480.43945508 -753.41552794 484.99652264 -757.0355835 489.6675415 C-760.01226614 493.50473554 -763.05070123 497.27994828 -766.14276123 501.02471924 C-773.11812842 509.48578431 -779.59075905 518.24131283 -785.92913818 527.18682861 C-787.23292794 529.01993102 -788.5494695 530.8423915 -789.87542725 532.65948486 C-802.90333649 550.61098522 -814.93572146 569.2710648 -826.39886475 588.25323486 C-826.93076416 589.13156982 -827.46266357 590.00990479 -828.01068115 590.91485596 C-864.29253774 651.00702132 -893.44554058 715.91076581 -913.39886475 783.25323486 C-913.62702881 784.01619873 -913.85519287 784.7791626 -914.090271 785.56524658 C-915.93727409 791.77364975 -917.68140019 798.00790919 -919.39886475 804.25323486 C-919.68987061 805.29737549 -919.98087646 806.34151611 -920.28070068 807.41729736 C-933.78652551 856.23835303 -941.56152161 905.91614454 -946.39886475 956.25323486 C-946.57095459 958.02803223 -946.57095459 958.02803223 -946.746521 959.83868408 C-947.03494541 962.85116758 -947.31433884 965.86423018 -947.58636475 968.87823486 C-947.65814941 969.66158203 -947.72993408 970.4449292 -947.80389404 971.25201416 C-949.28102393 988.59074827 -949.55975291 1005.92096031 -949.52923584 1023.31451416 C-949.52389771 1026.91847997 -949.52920437 1030.52231978 -949.5355835 1034.12628174 C-949.54439874 1057.33493903 -948.61142609 1080.38392454 -946.58636475 1103.50323486 C-946.49827545 1104.52081879 -946.41018616 1105.53840271 -946.31942749 1106.58682251 C-944.92912482 1122.53541814 -943.26319373 1138.38055559 -940.72827148 1154.19390869 C-940.36060956 1156.49239181 -939.99862318 1158.79173861 -939.63665771 1161.09112549 C-936.18202391 1182.94758745 -932.49275789 1204.70980883 -927.39886475 1226.25323486 C-927.17456787 1227.20235748 -927.17456787 1227.20235748 -926.94573975 1228.1706543 C-922.70763561 1246.05179793 -918.09264163 1263.77287943 -912.39886475 1281.25323486 C-912.18725708 1281.90312378 -911.97564941 1282.5530127 -911.75762939 1283.22259521 C-896.83671427 1328.98624669 -879.47251077 1372.95569663 -858.39886475 1416.25323486 C-857.96960693 1417.14043213 -857.54034912 1418.02762939 -857.0980835 1418.94171143 C-842.36407256 1449.33353239 -824.58846483 1478.33387152 -806.3168335 1506.71417236 C-805.58666016 1507.86997803 -805.58666016 1507.86997803 -804.84173584 1509.0491333 C-803.88980287 1510.50328743 -802.88725939 1511.92568523 -801.8348999 1513.30889893 C-798.36575191 1518.06157318 -798.36575191 1518.06157318 -798.45941162 1521.43218994 C-798.96755051 1523.76917333 -799.64746821 1525.98350248 -800.39886475 1528.25323486 C-800.7593369 1529.72019697 -801.10701005 1531.19036319 -801.4418335 1532.66339111 C-803.91714072 1542.80124631 -806.69415929 1552.8174151 -809.66668701 1562.82012939 C-811.95196741 1570.57021075 -814.0240743 1578.3625 -816.02386475 1586.19073486 C-818.04936251 1594.11439766 -820.13400418 1601.99879513 -822.48529053 1609.83184814 C-826.89589571 1624.5326711 -830.98012246 1639.32073718 -834.62982178 1654.22833252 C-836.06453227 1660.04108027 -837.67738175 1665.77918015 -839.39471436 1671.51397705 C-845.06207047 1690.45266194 -850.13041477 1709.56810016 -855.26971436 1728.65524292 C-860.30626359 1747.3576461 -865.43038772 1766.03615757 -870.55828857 1784.71368408 C-871.46446726 1788.01453609 -872.37015561 1791.31552238 -873.27581787 1794.61651611 C-873.57217133 1795.69590454 -873.86852478 1796.77529297 -874.17385864 1797.88739014 C-874.75810489 1800.01617761 -875.34163619 1802.14516144 -875.92440796 1804.27435303 C-877.24097678 1809.07712465 -878.57043559 1813.87498459 -879.94525146 1818.66143799 C-880.18094345 1819.48790833 -880.41663544 1820.31437866 -880.6594696 1821.16589355 C-881.0921569 1822.67869509 -881.53001802 1824.19003154 -881.97431946 1825.69946289 C-883.00323066 1829.30828773 -883.63952525 1832.49547349 -883.39886475 1836.25323486 C-874.89902873 1835.23255062 -866.94055571 1833.05586214 -858.75140381 1830.64190674 C-852.36070742 1828.77333498 -845.94748134 1827.13051228 -839.46136475 1825.62823486 C-833.87702182 1824.33264705 -828.335989 1823.00469016 -822.83636475 1821.37823486 C-815.74465684 1819.28392497 -808.5764371 1817.52792728 -801.39886475 1815.75323486 C-790.85642924 1813.16121806 -790.85642924 1813.16121806 -780.39886475 1810.25323486 C-772.21370986 1807.83109719 -763.90999367 1805.86934233 -755.62542725 1803.81964111 C-749.8534567 1802.38587871 -744.10188591 1800.94086357 -738.39886475 1799.25323486 C-731.59907608 1797.24166653 -724.72048282 1795.5754577 -717.83636475 1793.87823486 C-708.37756349 1791.54494305 -698.99472066 1789.05168978 -689.64544678 1786.31451416 C-683.67363278 1784.57949955 -677.67748608 1783.09107673 -671.61419678 1781.71466064 C-666.72755272 1780.59525824 -661.90745645 1779.31380284 -657.08636475 1777.94073486 C-649.16867726 1775.68969726 -641.20044096 1773.67233751 -633.21136475 1771.69073486 C-622.21825493 1768.96261859 -611.2500475 1766.18876751 -600.3480835 1763.11260986 C-595.7045394 1761.80309376 -591.05471662 1760.51829929 -586.39886475 1759.25323486 C-585.39919678 1758.98124268 -584.39952881 1758.70925049 -583.36956787 1758.42901611 C-580.15412775 1757.56294388 -576.93372246 1756.71816852 -573.71136475 1755.87823486 C-572.69566406 1755.60318115 -571.67996338 1755.32812744 -570.63348389 1755.04473877 C-569.66531738 1754.79643311 -568.69715088 1754.54812744 -567.699646 1754.29229736 C-566.84540039 1754.06751709 -565.99115479 1753.84273682 -565.11102295 1753.61114502 C-558.87858251 1752.78868056 -554.38729186 1754.46197935 -549.10980225 1757.64776611 C-548.53321365 1757.99105453 -547.95662506 1758.33434296 -547.36256409 1758.68803406 C-546.13163715 1759.42271075 -544.90383614 1760.16264655 -543.6789856 1760.90740967 C-541.74321324 1762.08437117 -539.79959025 1763.2472303 -537.85321045 1764.40655518 C-535.24018172 1765.96357041 -532.62980208 1767.52486916 -530.02142334 1769.08966064 C-454.86467022 1814.08438533 -372.39014698 1848.35413076 -252.52911377 1874.8404541 C-249.35090338 1875.45629952 -246.17603724 1876.08898128 -243.00042725 1876.71807861 C-212.72757838 1882.62178556 -182.10502188 1885.67462162 -151.39886475 1888.25323486 C-150.66019165 1888.31595581 -149.92151855 1888.37867676 -149.16046143 1888.44329834 C-98.58272728 1892.69624711 -46.76070213 1891.51231647 3.60113525 1885.25323486 C4.41173401 1885.15355408 5.22233276 1885.05387329 6.05749512 1884.95117188 C39.35657418 1880.8502162 72.15805954 1875.7591733 104.80328369 1867.91290283 C108.17028265 1867.11904322 111.54860588 1866.38952457 114.93170166 1865.66802979 C122.78858943 1863.98784869 130.46932106 1861.94269563 138.15386963 1859.60064697 C141.5957738 1858.55338156 145.04488049 1857.53452912 148.4995575 1856.53033447 C213.61267748 1837.57813019 277.00298427 1811.50251363 335.60113525 1777.25323486 C336.67750244 1776.62658936 337.75386963 1775.99994385 338.862854 1775.35430908 C361.40076483 1762.20827508 383.3702188 1748.42998879 404.60113525 1733.25323486 C406.14019363 1732.16078113 407.67925606 1731.06833312 409.21832275 1729.97589111 C419.19085018 1722.8650922 428.90705756 1715.4607306 438.52740479 1707.88165283 C440.44968917 1706.37215944 442.38048599 1704.87463869 444.315979 1703.38214111 C452.46569625 1697.07918013 460.28492237 1690.44847921 468.01959229 1683.64385986 C469.97740104 1681.92239048 471.94603868 1680.2134999 473.91363525 1678.50323486 C477.647638 1675.22892576 481.33783722 1671.90654397 485.02301025 1668.57745361 C486.73658942 1667.03263603 488.45532769 1665.49352129 490.17926025 1663.96026611 C494.83525066 1659.81129307 499.32434081 1655.56807753 503.6987915 1651.12432861 C505.46229618 1649.38979321 507.27520614 1647.78676205 509.16363525 1646.19073486 C518.06131053 1638.52884782 526.49197437 1629.97584737 534.065979 1621.00714111 C535.82725014 1618.99490005 537.69593364 1617.12951501 539.60113525 1615.25323486 C542.81548256 1612.08207456 545.81864488 1608.79740734 548.7612915 1605.37432861 C550.79622344 1603.02832428 552.88404492 1600.73587036 554.97613525 1598.44073486 C558.87476922 1594.12062696 562.57617383 1589.67252105 566.23394775 1585.14776611 C568.28523695 1582.63950655 570.37580853 1580.17185053 572.48858643 1577.71539307 C579.00243262 1570.12777183 585.05893138 1562.22567929 591.08599854 1554.24884033 C592.44316928 1552.46129381 593.81211085 1550.68422179 595.190979 1548.91339111 C605.92859795 1535.11285331 616.0503965 1520.89820409 625.60113525 1506.25323486 C626.02572021 1505.60596436 626.45030518 1504.95869385 626.88775635 1504.29180908 C639.52064108 1485.0267768 651.49241375 1465.43851735 662.60113525 1445.25323486 C663.19152588 1444.18218506 663.7819165 1443.11113525 664.39019775 1442.00762939 C679.32686074 1414.79986217 692.86521662 1386.99946326 704.60113525 1358.25323486 C705.07583252 1357.09050049 705.55052979 1355.92776611 706.03961182 1354.72979736 C734.66782989 1283.96254565 754.85421332 1209.62059187 763.41363525 1133.69073486 C763.55348846 1132.45800842 763.55348846 1132.45800842 763.69616699 1131.20037842 C764.27965792 1125.97382587 764.80084585 1120.74305538 765.29159546 1115.50701904 C765.51364598 1113.17289442 765.74400719 1110.8395547 765.97976685 1108.5067749 C768.4381248 1084.15597449 769.13011873 1059.9763348 769.04776382 1035.50948334 C769.03848143 1032.57968325 769.03409653 1029.64990484 769.03042603 1026.72009277 C768.97969076 997.62352348 768.28031933 968.76994422 764.90185547 939.83984375 C764.59738687 937.22099356 764.3061563 934.60093752 764.01763916 931.98028564 C761.52602085 909.5572866 757.97062874 887.38352771 753.60113525 865.25323486 C753.32487305 863.84074463 753.32487305 863.84074463 753.04302979 862.39971924 C750.53117614 849.66645921 747.47076303 837.05793743 744.38336182 824.45391846 C743.61292077 821.30145836 742.85277041 818.14663991 742.09332275 814.99151611 C739.44200032 804.07420413 736.5079321 793.33474113 733.019104 782.65557861 C731.90647873 779.2450597 730.88701653 775.819365 729.91412354 772.36676025 C707.87954589 694.5386445 669.64195608 619.14368769 624.16070557 552.53741455 C622.69306265 550.38787367 621.2357499 548.23170648 619.78082275 546.07354736 C602.99022518 521.27802404 584.45109637 497.7355781 565.0425415 474.94903564 C563.5991391 473.2508864 562.16232103 471.54733294 560.72613525 469.84307861 C554.45910728 462.43478083 547.97807752 455.2688678 541.315979 448.21417236 C538.79177689 445.54100792 536.30909161 442.83345821 533.83914185 440.11012268 C527.90665339 433.58202157 521.77888652 427.27595555 515.52960205 421.05133057 C513.90056953 419.42771257 512.27702797 417.79873883 510.65386963 416.16925049 C505.70755144 411.21978534 500.72857784 406.35998023 495.40509033 401.81207275 C492.27086392 399.10371768 489.29444478 396.22725432 486.28863525 393.37823486 C481.06164865 388.45829713 475.74250664 383.79948804 470.13238525 379.31964111 C467.59975372 377.25210704 465.19382365 375.09210145 462.78863525 372.87823486 C457.22906541 367.81928979 451.33487014 363.24322284 445.39361572 358.64727783 C443.67365248 357.30963276 441.96540685 355.95864564 440.2612915 354.60089111 C403.22857896 325.13008789 363.46300154 299.23876527 321.9541626 276.54522705 C319.43045844 275.15952022 316.9160638 273.75776276 314.4019165 272.35479736 C301.37398031 265.1180954 288.14129538 258.47702604 274.60113525 252.25323486 C273.55860596 251.77386475 272.51607666 251.29449463 271.44195557 250.80059814 C248.15514572 240.15409615 224.46572301 230.53766719 200.33551025 221.97198486 C197.07262268 220.80957067 193.86382615 219.55700792 190.659729 218.24151611 C185.49718387 216.15623705 180.24999896 214.51819152 174.91363525 212.94073486 C172.88361084 212.33291739 170.85366517 211.72483686 168.8237915 211.11651611 C167.7939917 210.80923584 166.76419189 210.50195557 165.70318604 210.18536377 C162.68413328 209.27817477 159.67113363 208.35343582 156.659729 207.42120361 C136.99279684 201.33711746 117.24274666 196.42050011 97.13946533 192.019104 C95.99175659 191.76758575 95.99175659 191.76758575 94.82086182 191.51098633 C93.38452525 191.19672877 91.94793913 190.88360855 90.51104736 190.57189941 C87.14806147 189.83724763 83.80537778 189.0587731 80.4710083 188.20294189 C77.20297833 187.4009334 74.02059159 186.77381502 70.69488525 186.28839111 C69.61980713 186.12790283 68.544729 185.96741455 67.43707275 185.80206299 C66.33621338 185.64157471 65.235354 185.48108643 64.10113525 185.31573486 C57.0158252 184.27854791 49.97424896 183.15119931 42.94488525 181.78057861 C27.50892979 178.80890277 11.82278562 177.24805866 -3.79321289 175.53894043 C-5.44984026 175.35729388 -7.10624214 175.17356973 -8.7623291 174.98706055 C-72.68818627 167.80334339 -139.43540694 170.74054268 -203.08117676 178.95782471 Z " fill="#FEFEFE" transform="translate(1144.3988647460938,2.74676513671875)"/>
<path d="M0 0 C1.37132806 -0.00322073 2.74265578 -0.00658539 4.11398315 -0.01008606 C6.98354893 -0.01605439 9.85308471 -0.01792848 12.72265625 -0.01733398 C16.36339359 -0.01723283 20.00393384 -0.03084651 23.64462471 -0.04810619 C26.47772061 -0.05934042 29.3107707 -0.06124968 32.14388657 -0.06072426 C34.12711796 -0.06244753 36.11033505 -0.07321889 38.09353638 -0.08427429 C56.18528149 -0.03930364 71.28894704 3.13235518 84.9296875 15.54296875 C92.90504565 23.91392998 98.39515332 34.52983628 103.2578125 44.921875 C103.83465034 46.14848343 103.83465034 46.14848343 104.42314148 47.39987183 C108.78895647 56.76290501 112.81353896 66.26567704 116.8046875 75.79296875 C117.62765951 77.74968543 118.45065826 79.70639086 119.27368164 81.66308594 C127.81896761 102.01677864 136.14197729 122.46109132 144.44970703 142.91259766 C148.74386646 153.48164181 153.05593828 164.04338712 157.3671875 174.60546875 C157.99332443 176.13966965 157.99332443 176.13966965 158.6321106 177.7048645 C163.73711093 190.21249516 168.84739305 202.7179354 173.98565674 215.21194458 C174.55819665 216.60412872 175.13043874 217.9964354 175.70233154 219.3888855 C179.11854411 227.70666093 179.11854411 227.70666093 182.63378906 235.98291016 C182.90442169 236.60950027 183.17505432 237.23609039 183.45388794 237.88166809 C184.19960547 239.60246124 184.94950562 241.32144012 185.69970703 243.0402832 C190.29899023 254.17013154 191.61226294 267.85362383 187.04321289 279.28857422 C185.83907508 281.90928467 184.53733329 284.45999289 183.16064453 286.99414062 C181.84757288 289.43701358 180.62076873 291.91479489 179.39453125 294.40234375 C174.40096469 304.40547334 169.20647979 313.58418368 161.9921875 322.16796875 C161.56969727 322.67166992 161.14720703 323.17537109 160.71191406 323.69433594 C158.89177662 325.86015325 157.06567066 328.02041911 155.22314453 330.16723633 C151.8180882 334.14177736 148.57140191 338.2179553 145.3671875 342.35546875 C141.44758501 347.40426037 137.36952646 352.23080779 133.0390625 356.9375 C131.14547563 359.00093149 129.31392586 361.10371456 127.4921875 363.23046875 C124.97615037 366.1358234 122.32120341 368.81326367 119.5546875 371.48046875 C111.18901865 379.78903405 103.20624715 389.71204406 102.4296875 401.91796875 C104.27916137 434.35874017 140.82198445 473.82566557 159.9296875 499.16796875 C160.42782959 499.82966064 160.92597168 500.49135254 161.43920898 501.1730957 C169.14839574 511.37933299 177.06699585 521.36399734 185.37890625 531.0859375 C187.78300063 533.90431904 190.10986744 536.77968828 192.4296875 539.66796875 C197.14748033 545.46604331 202.21545822 550.90266923 207.32250977 556.35473633 C209.25115301 558.44919946 211.13183528 560.58340622 213.01953125 562.71484375 C218.39939561 568.70480163 224.06577434 574.39229219 229.76733398 580.07348633 C231.558947 581.85971545 233.34511805 583.65126222 235.13085938 585.44335938 C240.91690711 591.23276873 246.74454503 596.87260092 252.9921875 602.16796875 C254.59987123 603.62242392 256.20458465 605.0801777 257.8046875 606.54296875 C262.06964058 610.3872512 266.440796 614.0632378 270.90625 617.671875 C273.14158567 619.47995031 275.36406955 621.29909638 277.578125 623.1328125 C287.76666752 631.54217722 298.26397853 639.46104393 308.9921875 647.16796875 C309.81267578 647.75755371 310.63316406 648.34713867 311.47851562 648.95458984 C323.38063658 657.47172526 335.52356674 665.50611635 347.9921875 673.16796875 C348.92345459 673.74442139 348.92345459 673.74442139 349.87353516 674.33251953 C380.59621664 693.31404885 412.82542484 709.01026281 445.85922241 723.47042847 C452.63910975 726.44145786 459.3826856 729.49157796 466.09765625 732.60668945 C476.66608585 737.43295534 489.09648518 739.87532539 500.3984375 736 C503.10495869 734.55379568 505.53398112 733.00061007 507.9921875 731.16796875 C509.0234375 730.44609375 510.0546875 729.72421875 511.1171875 728.98046875 C514.7034418 725.77333276 517.57674288 721.87589104 520.5703125 718.12890625 C522.95534657 715.21300976 525.43807366 712.43624741 527.9921875 709.66796875 C532.05202395 705.25156731 535.88542571 700.70633353 539.65234375 696.0390625 C542.17952184 692.93810108 544.76837644 689.89625137 547.3671875 686.85546875 C551.69389444 681.77889007 555.84701352 676.58730868 559.94140625 671.32226562 C562.84297823 667.60050498 565.81935934 663.95968558 568.8671875 660.35546875 C577.30241447 650.30271014 585.1278466 639.76126733 592.8671875 629.16796875 C593.76820585 627.93878499 594.66924658 626.70961764 595.5703125 625.48046875 C597.03037718 623.48844253 598.47732267 621.48956835 599.9140625 619.48046875 C606.07235595 611.1187492 613.80671714 604.40336541 624.33203125 602.59375 C648.05967762 601.84662541 670.89796692 615.29944279 691.85620117 625.16479492 C694.64218249 626.47324128 697.43327182 627.77055775 700.2245636 629.06762695 C720.23037921 638.36766449 740.07000812 648.00257436 759.88639832 657.69827271 C765.11820834 660.25658184 770.35673179 662.80053017 775.6015625 665.33203125 C790.38520769 672.46946873 805.11730026 679.69593963 819.78451538 687.07012939 C828.68095848 691.54262353 837.60912513 695.92310489 846.6171875 700.16796875 C879.9602912 715.96825681 879.9602912 715.96825681 883.9921875 727.16796875 C893.77468783 761.30570741 880.90321007 805.8319852 869.953125 838.31689453 C869.36208276 840.07050003 868.77732327 841.82625636 868.203125 843.58544922 C858.89531652 872.02668542 836.42576303 895.38039198 812.73535156 912.87792969 C810.96194718 914.19034828 809.20705669 915.5249823 807.453125 916.86328125 C781.29624828 936.64516979 752.10621763 952.48268285 721.0546875 963.04296875 C720.25135986 963.31737793 719.44803223 963.59178711 718.62036133 963.87451172 C706.19937954 967.93121723 693.37974632 969.92726625 680.4296875 971.35546875 C679.65149658 971.44135254 678.87330566 971.52723633 678.0715332 971.61572266 C647.53600953 974.8752187 616.19686838 975.06623774 585.9921875 969.16796875 C585.31973999 969.03739075 584.64729248 968.90681274 583.95446777 968.77227783 C568.49409477 965.75772165 553.18472809 962.35007379 537.9921875 958.16796875 C536.76564453 957.83394043 535.53910156 957.49991211 534.27539062 957.15576172 C484.43334811 943.48711494 435.93739366 926.07320871 387.8671875 907.16796875 C386.56861313 906.65885956 386.56861313 906.65885956 385.24380493 906.13946533 C318.59542891 879.94678541 256.34299031 843.28379576 199.9921875 799.16796875 C198.81774106 798.25256218 197.64326085 797.33719893 196.46875 796.421875 C184.75171682 787.2713695 173.29460674 777.82507913 161.9921875 768.16796875 C161.3935791 767.65717773 160.7949707 767.14638672 160.17822266 766.62011719 C152.6082609 760.14866713 145.16156211 753.57267161 137.91040039 746.74462891 C135.01914477 744.02567643 132.08946856 741.37552512 129.08203125 738.78515625 C124.13297729 734.48013696 119.58259641 729.80897159 114.9921875 725.12890625 C111.06822325 721.15895805 107.05261306 717.38101086 102.80883789 713.75366211 C98.54165917 710.02898454 94.65493267 705.98311128 90.9921875 701.66796875 C87.36960045 697.45259472 83.43836242 693.57633314 79.4921875 689.66796875 C75.09927276 685.31269999 70.77721558 680.97313698 66.78515625 676.2421875 C64.80974034 673.95690243 62.75982215 671.75403799 60.69775391 669.54711914 C55.66521016 664.16088256 50.88605673 658.66593602 46.26953125 652.9140625 C43.77390108 649.90475202 41.15412191 647.02898631 38.4921875 644.16796875 C33.40834786 638.69043993 28.67236407 632.99185406 23.9921875 627.16796875 C22.99598904 625.9508419 21.99851486 624.73475848 21 623.51953125 C14.26552049 615.30954847 7.72762703 606.97401861 1.30859375 598.515625 C-1.50670053 594.81067431 -4.36795992 591.14392745 -7.2409668 587.48364258 C-14.76054391 577.8942855 -21.94960896 568.10050361 -29.0078125 558.16796875 C-29.49958984 557.47912598 -29.99136719 556.7902832 -30.49804688 556.08056641 C-37.26329167 546.60335265 -43.84818584 537.01225943 -50.3815918 527.37402344 C-54.22164341 521.72875269 -58.1544745 516.17067546 -62.1953125 510.66796875 C-76.59322786 490.9518021 -90.04003764 470.4466645 -102.0078125 449.16796875 C-102.50684082 448.28270508 -103.00586914 447.39744141 -103.52001953 446.48535156 C-107.10481263 440.09271957 -110.58875187 433.65064312 -114.0078125 427.16796875 C-114.49604492 426.2435498 -114.98427734 425.31913086 -115.48730469 424.36669922 C-137.47647696 382.39593566 -154.06234184 337.12926147 -161.0078125 290.16796875 C-161.15879395 289.1713623 -161.30977539 288.17475586 -161.46533203 287.14794922 C-164.16720965 268.77693021 -164.39986662 250.67759688 -164.0078125 232.16796875 C-163.99766113 231.26030762 -163.98750977 230.35264648 -163.97705078 229.41748047 C-163.72689705 208.04030807 -160.10184632 185.47126644 -153.61083984 165.11425781 C-153.00240219 163.15050682 -152.46022877 161.17854337 -151.93359375 159.19140625 C-139.76328928 113.92593631 -113.67845399 75.20009375 -81.96875 41.359375 C-80.03827215 39.29513274 -78.15061706 37.20367306 -76.296875 35.0703125 C-56.18013348 12.05971311 -30.56176479 0.02613855 0 0 Z " fill="#FEFEFE" transform="translate(693.0078125,555.83203125)"/>
<path d="M0 0 C9.10342229 1.49875107 17.83057945 4.22027508 26.625 6.9375 C27.41277832 7.17987396 28.20055664 7.42224792 29.01220703 7.67196655 C101.97936776 30.16070216 172.99821301 60.52720487 239 99 C239.89654297 99.51981445 240.79308594 100.03962891 241.71679688 100.57519531 C261.53017076 112.07996309 281.07776588 124.07520507 300 137 C300.62745117 137.42700195 301.25490234 137.85400391 301.90136719 138.29394531 C306.6172908 141.50583368 311.31214787 144.74731905 316 148 C316.66725098 148.46100098 317.33450195 148.92200195 318.02197266 149.39697266 C329.48666672 157.32982354 340.59937274 165.68492496 351.64550781 174.18896484 C353.70506511 175.77314112 355.76892053 177.35136075 357.8359375 178.92578125 C364.67656692 184.14346099 371.36639976 189.52218077 378 195 C379.77075782 196.43759302 381.54159226 197.87509167 383.3125 199.3125 C392.67102013 206.97311719 401.82525856 214.8688223 410.78125 222.99609375 C412.79308393 224.81311982 414.82660434 226.59944392 416.875 228.375 C421.76856527 232.64468444 426.54922077 237.03615421 431.31640625 241.44580078 C432.42604241 242.47015458 433.53797312 243.4920292 434.65234375 244.51123047 C444.54505821 253.56146492 454.07405891 262.9675982 463.5625 272.4375 C464.17504639 273.04745819 464.78759277 273.65741638 465.41870117 274.28585815 C477.49805353 286.32493791 477.49805353 286.32493791 482.59936523 292.38500977 C484.15465745 294.17832648 485.80554384 295.83829052 487.5 297.5 C490.51413582 300.46735323 493.29917333 303.57345292 496.05859375 306.77734375 C498.28804061 309.32976883 500.58001382 311.81887514 502.875 314.3125 C506.92521292 318.75250784 510.75534122 323.31934281 514.52734375 327.99609375 C517.40883633 331.49667478 520.38744562 334.90257325 523.375 338.3125 C528.98644643 344.74238376 534.31759539 351.34182856 539.52832031 358.09863281 C541.1110899 360.14352491 542.70679524 362.1778432 544.3046875 364.2109375 C561.4919534 386.11485503 577.74743546 408.70595128 593 432 C593.63470215 432.96655518 593.63470215 432.96655518 594.28222656 433.95263672 C612.56798943 461.84147047 629.34756153 490.55462286 645 520 C645.50096191 520.93875977 646.00192383 521.87751953 646.51806641 522.84472656 C687.32297567 599.46506675 716.80861988 681.51591428 760.78710938 912.61022949 C760.9987847 914.98635789 761.2244531 917.36080401 761.453125 919.73535156 C766.93500311 977.66858567 767.04469367 1038.53138641 761.25323486 1096.44311523 C760.98508175 1099.15062798 760.73147053 1101.85925027 760.47998047 1104.56835938 C756.65799471 1145.36569439 750.56090147 1185.92425393 742 1226 C741.74246948 1227.20671356 741.74246948 1227.20671356 741.47973633 1228.43780518 C732.34551578 1271.01462312 720.46616266 1312.92849187 706 1354 C705.77159424 1354.65043274 705.54318848 1355.30086548 705.30786133 1355.9710083 C691.49394777 1395.25447888 674.96228658 1433.30628386 656.62841797 1470.68017578 C655.5902352 1472.79669891 654.55508057 1474.91471197 653.52392578 1477.03466797 C647.0062526 1490.43274098 639.92672075 1503.42522011 632.51074219 1516.34570312 C630.72025393 1519.49149956 628.97953665 1522.66244516 627.24462891 1525.83911133 C617.65095599 1543.37599671 607.00559959 1560.31982322 596 1577 C595.53416504 1577.70898438 595.06833008 1578.41796875 594.58837891 1579.1484375 C586.62205351 1591.26091602 578.38616317 1603.17487264 570 1615 C569.4519873 1615.77375977 568.90397461 1616.54751953 568.33935547 1617.34472656 C556.65199121 1633.80609984 544.2234765 1649.64491409 531.42822266 1665.25585938 C530.13995352 1666.82908924 528.85677275 1668.40648248 527.57421875 1669.984375 C519.38323773 1680.05215273 511.04529497 1689.95211556 502.26953125 1699.515625 C500.29677727 1701.67512849 498.35720821 1703.85593884 496.4375 1706.0625 C492.34604497 1710.75869665 488.19752848 1715.39826508 484 1720 C483.54318848 1720.50337891 483.08637695 1721.00675781 482.61572266 1721.52539062 C473.23025792 1731.82977739 463.40701442 1741.70005764 453.5625 1751.5625 C452.90488678 1752.22270142 452.24727356 1752.88290283 451.56973267 1753.56311035 C438.54615802 1766.62705591 438.54615802 1766.62705591 432.57983398 1771.63452148 C430.79638942 1773.17598424 429.15016719 1774.81738571 427.5 1776.5 C424.51127663 1779.53594925 421.38293521 1782.34508659 418.15625 1785.125 C415.80037042 1787.17359094 413.4949254 1789.27203002 411.1875 1791.375 C406.91689849 1795.23022386 402.51226331 1798.87582515 398.0390625 1802.4921875 C394.52941389 1805.38832427 391.10995408 1808.37695826 387.6875 1811.375 C381.25904756 1816.98509406 374.66119693 1822.31467385 367.90576172 1827.52392578 C365.84672715 1829.11871479 363.7997111 1830.72812291 361.75390625 1832.33984375 C352.08096444 1839.94387138 342.23892047 1847.25858232 332.22363281 1854.40429688 C330.04247865 1855.96951686 327.87480405 1857.5516128 325.7109375 1859.140625 C255.22719115 1910.79624796 176.41065846 1952.41021536 56 1998 C55.18573547 1998.27908203 54.37147095 1998.55816406 53.53253174 1998.84570312 C27.64606862 2007.69660585 1.5246072 2015.30961964 -25 2022 C-25.80052795 2022.20260437 -26.60105591 2022.40520874 -27.42584229 2022.61395264 C-81.19075483 2036.19128319 -135.80733479 2044.88004284 -191 2050 C-191.89245422 2050.08463501 -192.78490845 2050.16927002 -193.70440674 2050.25646973 C-252.39659878 2055.77951478 -313.32195891 2055.53420455 -372 2050 C-372.92601013 2049.91514343 -373.85202026 2049.83028687 -374.80609131 2049.74285889 C-471.25799351 2040.89984331 -566.87169696 2019.57910159 -683 1974 C-683.64588074 1973.7305658 -684.29176147 1973.46113159 -684.95721436 1973.18353271 C-699.28749104 1967.19274227 -713.46670966 1960.87555963 -727.54074097 1954.30587769 C-729.69667875 1953.30825269 -731.86216382 1952.33405447 -734.02954102 1951.36157227 C-741.50674846 1947.95191538 -748.23947213 1944.28568716 -754.89453125 1939.453125 C-766.06240507 1931.60671941 -776.75011082 1925.66546079 -790.76657104 1927.75532532 C-803.00821425 1930.12575227 -814.8895428 1934.02472721 -826.740448 1937.84992981 C-837.93552116 1941.45050388 -849.22191478 1944.56950213 -860.6015625 1947.53125 C-861.50244535 1947.76590784 -862.40332821 1948.00056568 -863.33151054 1948.24233437 C-867.05657548 1949.2114065 -870.78221532 1950.17821702 -874.50874233 1951.14165211 C-884.25549152 1953.66174129 -893.98727474 1956.23761807 -903.71946526 1958.81324196 C-929.02440469 1965.50596911 -954.3548088 1972.10077104 -979.6875 1978.6875 C-987.73835899 1980.78095114 -995.78917582 1982.87456421 -1003.83984375 1984.96875 C-1004.82117279 1985.2240127 -1005.80250183 1985.4792754 -1006.81356812 1985.74227333 C-1027.1332761 1991.02858137 -1047.44336721 1996.351213 -1067.75 2001.6875 C-1068.56141197 2001.90071899 -1069.37282394 2002.11393799 -1070.20882416 2002.33361816 C-1074.29796055 2003.40815614 -1078.38707975 2004.48275952 -1082.47619629 2005.55737305 C-1083.28413132 2005.76969574 -1084.09206635 2005.98201843 -1084.92448425 2006.20077515 C-1086.55456473 2006.62916421 -1088.18464083 2007.05756995 -1089.81471252 2007.48599243 C-1102.26158587 2010.75722678 -1114.71020086 2014.02176571 -1127.16015625 2017.28125 C-1128.00461052 2017.50233429 -1128.84906479 2017.72341858 -1129.71910858 2017.95120239 C-1134.02037614 2019.07726376 -1138.32167343 2020.20321154 -1142.62298584 2021.32910156 C-1178.19597287 2030.64052721 -1213.76345977 2039.97279222 -1249.32778931 2049.31723022 C-1250.33110574 2049.58084886 -1251.33442217 2049.84446749 -1252.36814213 2050.11607456 C-1254.3688948 2050.64178697 -1256.36963935 2051.16753027 -1258.37037563 2051.69330502 C-1263.22537185 2052.96906804 -1268.0805473 2054.24414035 -1272.93614197 2055.5176239 C-1281.65819647 2057.80559813 -1290.37896899 2060.09799847 -1299.09446144 2062.41086483 C-1303.01995223 2063.45204793 -1306.94640241 2064.48958308 -1310.87298203 2065.52665138 C-1312.72732929 2066.01746072 -1314.5812139 2066.51002172 -1316.43460464 2067.00443077 C-1318.97852861 2067.68292147 -1321.52396475 2068.35542596 -1324.06982422 2069.02661133 C-1325.19342157 2069.32882693 -1325.19342157 2069.32882693 -1326.33971786 2069.6371479 C-1329.71566905 2070.52115695 -1332.47969209 2071 -1336 2071 C-1335.35380725 2063.3600733 -1333.27658723 2056.19305894 -1331.21484375 2048.83203125 C-1330.8107833 2047.37280742 -1330.40727231 2045.91343134 -1330.0042572 2044.45391846 C-1329.1235069 2041.26806363 -1328.2393892 2038.08316944 -1327.35272217 2034.8989563 C-1325.90450909 2029.69721344 -1324.46432466 2024.49326958 -1323.02587891 2019.28881836 C-1322.77546467 2018.38281671 -1322.52505043 2017.47681505 -1322.26704788 2016.5433588 C-1321.74777799 2014.66451904 -1321.22854102 2012.78567017 -1320.70933533 2010.90681267 C-1319.89635551 2007.9656981 -1319.08268212 2005.02477602 -1318.2689209 2002.08387756 C-1311.43046364 1977.36118773 -1304.67666885 1952.61531469 -1297.91580582 1927.87131882 C-1295.15005098 1917.75006575 -1292.38248423 1907.62930785 -1289.61527824 1897.50845146 C-1288.60858197 1893.826455 -1287.60196051 1890.1444381 -1286.59535217 1886.4624176 C-1281.15321599 1866.55654717 -1275.70438442 1846.6525175 -1270.25 1826.75 C-1270.05388878 1826.03438526 -1269.85777756 1825.31877052 -1269.65572357 1824.58147049 C-1267.91797572 1818.24038556 -1266.18011733 1811.89933093 -1264.44204712 1805.55833435 C-1261.64294747 1795.34637542 -1258.8446805 1785.13418856 -1256.046875 1774.921875 C-1255.83928999 1774.16416746 -1255.63170498 1773.40645992 -1255.41782951 1772.62579155 C-1254.36617899 1768.78714145 -1253.31454061 1764.94848803 -1252.26290894 1761.10983276 C-1250.37985428 1754.23633827 -1248.49672336 1747.36286467 -1246.61358452 1740.48939323 C-1246.19651647 1738.96709147 -1245.77944926 1737.44478948 -1245.36238289 1735.92248726 C-1242.48063845 1725.40405901 -1239.59871138 1714.88568082 -1236.71666145 1704.36733627 C-1227.91467611 1672.24348623 -1219.11433444 1640.11918604 -1210.31704712 1607.99404907 C-1209.33272572 1604.39960743 -1208.34832979 1600.80518621 -1207.36386108 1597.21078491 C-1207.1296536 1596.35543498 -1206.89544611 1595.50008505 -1206.65414143 1594.61881542 C-1206.18787656 1592.91679595 -1205.72117416 1591.21489627 -1205.25402355 1589.5131197 C-1204.12475 1585.39691767 -1203.00313525 1581.27895791 -1201.89891052 1577.15596008 C-1199.991772 1570.06294514 -1198.043144 1563.00657525 -1195.78163242 1556.01706696 C-1194.8233499 1553.04472487 -1193.90548632 1550.06056148 -1192.98996544 1547.07481384 C-1192.55538515 1545.70003593 -1192.10056444 1544.33144726 -1191.62311745 1542.97096252 C-1189.54557399 1537.04471502 -1187.94289684 1531.90349841 -1190.47102356 1525.9410553 C-1192.37974358 1522.11050664 -1194.65632544 1518.57742524 -1197 1515 C-1198.07674592 1513.07121995 -1199.13923304 1511.13427108 -1200.17578125 1509.18359375 C-1200.68351074 1508.25562988 -1201.19124023 1507.32766602 -1201.71435547 1506.37158203 C-1243.82333999 1429.0624198 -1275.76415656 1346.74671511 -1287.2689209 716.4987793 C-1283.7328004 704.5949957 -1279.90318205 692.78761614 -1276 681 C-1275.50923261 679.50994312 -1275.01850961 678.01987162 -1274.52783203 676.52978516 C-1248.49749534 597.71020164 -1212.66623429 521.75570677 -1132 398 C-1131.46536133 397.26249512 -1130.93072266 396.52499023 -1130.37988281 395.76513672 C-1118.22465396 379.02661867 -1105.53658269 362.73713919 -1092.42382812 346.73974609 C-1091.14773696 345.18051673 -1089.87812619 343.615989 -1088.609375 342.05078125 C-1079.87866873 331.2944255 -1070.85180576 320.82933816 -1061.4453125 310.66015625 C-1059.44839207 308.48778754 -1057.49171266 306.29460837 -1055.5625 304.0625 C-1044.5041747 291.37267452 -1032.64459265 279.48657934 -1020.73535156 267.60498047 C-1018.23541788 265.11078246 -1015.74005719 262.61206479 -1013.24596786 260.11202431 C-1011.29507161 258.15748991 -1009.34176982 256.20537342 -1007.38776398 254.25394821 C-1006.02618995 252.89334755 -1004.66659699 251.5307653 -1003.30706787 250.16812134 C-998.90833282 245.78586193 -994.4565678 241.53424571 -989.73658752 237.49847412 C-986.8016807 234.96598908 -984.00671807 232.28460896 -981.1875 229.625 C-976.14434182 224.90126891 -970.97309024 220.43165709 -965.578125 216.109375 C-962.9757371 213.98014854 -960.48424498 211.76550643 -958 209.5 C-952.82485184 204.79531985 -947.4379716 200.39563657 -942 196 C-940.76879913 194.98917233 -939.53837382 193.97739951 -938.30859375 192.96484375 C-929.74320439 185.92841939 -921.02948038 179.14398403 -912.11132812 172.56103516 C-909.92851891 170.94714962 -907.75301848 169.3237523 -905.578125 167.69921875 C-888.43716983 154.93506536 -870.91458872 142.65627433 -853 131 C-852.2565332 130.51450684 -851.51306641 130.02901367 -850.74707031 129.52880859 C-806.84137558 100.95035337 -760.75035742 75.54082633 -713 54 C-711.98083496 53.53674316 -710.96166992 53.07348633 -709.91162109 52.59619141 C-686.49791629 41.9758174 -662.58723347 32.38014296 -638.4375 23.5625 C-637.39722656 23.17884277 -636.35695313 22.79518555 -635.28515625 22.39990234 C-634.34414063 22.06297363 -633.403125 21.72604492 -632.43359375 21.37890625 C-631.21240845 20.93913452 -631.21240845 20.93913452 -629.96655273 20.49047852 C-628 20 -628 20 -626 21 C-632.14101081 23.99755603 -638.35795811 26.53117772 -644.82421875 28.734375 C-653.82188095 31.85955801 -662.59965132 35.42796874 -671.375 39.125 C-672.14969635 39.44981354 -672.9243927 39.77462708 -673.7225647 40.10928345 C-696.78204912 49.77823009 -719.54518309 59.99324156 -742 71 C-742.9684082 71.47324707 -743.93681641 71.94649414 -744.93457031 72.43408203 C-756.59419427 78.14552219 -768.08391671 84.08026199 -779.3671875 90.50390625 C-782.40617705 92.23080981 -785.45332857 93.94293708 -788.5 95.65625 C-803.93357196 104.35980443 -819.0770549 113.43998829 -834 123 C-834.8971875 123.57379395 -835.794375 124.14758789 -836.71875 124.73876953 C-847.96206293 131.94565045 -859.05471473 139.3486107 -870 147 C-870.67063477 147.46728516 -871.34126953 147.93457031 -872.03222656 148.41601562 C-888.36776035 159.81003117 -904.47333076 171.52122193 -920 184 C-920.6403418 184.5141748 -921.28068359 185.02834961 -921.94042969 185.55810547 C-929.51372483 191.65078298 -937.02248253 197.81215478 -944.41821289 204.11938477 C-947.73698236 206.94686695 -951.10184014 209.70622288 -954.5 212.4375 C-959.88573414 216.81684878 -964.94816799 221.50044838 -970.01953125 226.234375 C-972.26598689 228.32910924 -974.54473428 230.37329669 -976.875 232.375 C-989.75154495 243.55562709 -1001.79974159 255.64044568 -1013.83691406 267.70654297 C-1016.52033856 270.39537958 -1019.20913792 273.07875956 -1021.8984375 275.76171875 C-1023.63052943 277.49447075 -1025.36231154 279.22753253 -1027.09375 280.9609375 C-1028.28139954 282.14555069 -1028.28139954 282.14555069 -1029.49304199 283.35409546 C-1033.64311632 287.5215683 -1037.6405666 291.76391933 -1041.46829224 296.23017883 C-1044.01537205 299.17321789 -1046.70459311 301.98183599 -1049.375 304.8125 C-1054.10196376 309.85910944 -1058.57509143 315.03334148 -1062.8984375 320.43359375 C-1064.98001427 322.97559363 -1067.1503838 325.39529335 -1069.375 327.8125 C-1073.4369798 332.27008131 -1077.15488971 336.9316341 -1080.84765625 341.69335938 C-1083.78028518 345.46911913 -1086.78564952 349.16235981 -1089.875 352.8125 C-1105.36429975 371.28239056 -1119.55115041 391.00744924 -1133 411 C-1133.73025391 412.08249023 -1134.46050781 413.16498047 -1135.21289062 414.28027344 C-1145.80320222 429.98914864 -1156.2327247 445.76150713 -1166 462 C-1166.51014648 462.84304688 -1167.02029297 463.68609375 -1167.54589844 464.5546875 C-1188.46863605 499.1961872 -1207.45168989 535.06863709 -1224 572 C-1224.51594727 573.14629883 -1225.03189453 574.29259766 -1225.56347656 575.47363281 C-1247.74226672 624.97912148 -1267.49443473 676.87636321 -1279.97265625 729.7578125 C-1280.78276606 733.18205169 -1281.71621206 736.55207965 -1282.70825195 739.92749023 C-1299.64164459 798.00731655 -1307.22485299 859.31476615 -1312.203125 919.453125 C-1312.26954193 920.23728287 -1312.33595886 921.02144073 -1312.40438843 921.82936096 C-1313.68187503 937.67852405 -1314.16990336 953.50228333 -1314.203125 969.3984375 C-1314.20595238 970.33984211 -1314.20877975 971.28124672 -1314.21169281 972.25117874 C-1314.22656285 977.25681062 -1314.23586273 982.2624147 -1314.24023438 987.26806641 C-1314.24456768 991.29290081 -1314.25827492 995.31751462 -1314.28125 999.34228516 C-1314.48645867 1036.09441141 -1312.97651941 1072.67027766 -1308.625 1109.1875 C-1308.40849568 1111.0603709 -1308.19210923 1112.93325543 -1307.97583008 1114.80615234 C-1303.08871086 1156.61735039 -1295.81459663 1198.05860503 -1286 1239 C-1285.74508789 1240.07717285 -1285.49017578 1241.1543457 -1285.22753906 1242.26416016 C-1282.16511688 1255.15699735 -1278.63794813 1267.83919103 -1274.69140625 1280.48828125 C-1273.64105809 1283.86819538 -1272.63756711 1287.25104306 -1271.71484375 1290.66796875 C-1251.82676815 1364.30571693 -1219.8998255 1438.46049312 -1181.10302734 1504.06933594 C-1180.73902832 1504.70645508 -1180.3750293 1505.34357422 -1180 1506 C-1179.6181958 1506.6604834 -1179.2363916 1507.3209668 -1178.84301758 1508.00146484 C-1176.05570264 1514.60933048 -1180.35244097 1524.59567217 -1182.1875 1531.125 C-1182.82773652 1533.44766503 -1183.46704222 1535.77058681 -1184.10546875 1538.09375 C-1184.42563965 1539.25390625 -1184.74581055 1540.4140625 -1185.07568359 1541.609375 C-1186.43650469 1546.60120897 -1187.71617421 1551.61294062 -1189 1556.625 C-1191.26561137 1565.4068908 -1193.75288172 1574.10953471 -1196.32202148 1582.80688477 C-1200.61004172 1597.38097166 -1204.47811478 1612.07149962 -1208.26708984 1626.78222656 C-1210.77604862 1636.51384416 -1213.47501477 1646.16886728 -1216.32202148 1655.80688477 C-1220.61004172 1670.38097166 -1224.47811478 1685.07149962 -1228.26708984 1699.78222656 C-1230.77604862 1709.51384416 -1233.47501477 1719.16886728 -1236.32202148 1728.80688477 C-1240.61004172 1743.38097166 -1244.47811478 1758.07149962 -1248.26708984 1772.78222656 C-1250.77604862 1782.51384416 -1253.47501477 1792.16886728 -1256.32202148 1801.80688477 C-1260.33078963 1815.43185203 -1263.98479831 1829.15715128 -1267.52734375 1842.91015625 C-1270.27465608 1853.57571234 -1273.18656399 1864.16445774 -1276.31982422 1874.72338867 C-1278.92295312 1883.56929919 -1281.23080115 1892.48065631 -1283.51318359 1901.41381836 C-1285.26810331 1908.25582767 -1287.12828263 1915.04595636 -1289.16333008 1921.80932617 C-1291.0755293 1928.18151497 -1292.82327315 1934.59444221 -1294.56103516 1941.01611328 C-1295.99566286 1946.31619031 -1297.4436078 1951.61207878 -1298.9140625 1956.90234375 C-1302.27366285 1968.99363531 -1305.57086082 1981.09356515 -1308.6875 1993.25 C-1310.70790875 2001.12790578 -1312.79618724 2008.96577651 -1315.14819336 2016.7512207 C-1317.25568096 2023.75031173 -1319.14596248 2030.80725056 -1321.03344727 2037.8684082 C-1321.39587524 2039.2155188 -1321.39587524 2039.2155188 -1321.765625 2040.58984375 C-1321.97993164 2041.39284912 -1322.19423828 2042.19585449 -1322.41503906 2043.02319336 C-1323 2045 -1323 2045 -1324 2047 C-1323.24138672 2046.75620605 -1322.48277344 2046.51241211 -1321.70117188 2046.26123047 C-1313.71410303 2043.74325272 -1305.67979822 2041.59888021 -1297.54299927 2039.62194824 C-1286.64618182 2036.97135783 -1275.81404478 2034.17385617 -1265.05249023 2031.01269531 C-1259.05441144 2029.2632808 -1253.02639015 2027.77714555 -1246.93530273 2026.39086914 C-1242.79057453 2025.44133176 -1238.70530271 2024.38284208 -1234.625 2023.1875 C-1228.0336441 2021.2594163 -1221.40045577 2019.52494181 -1214.75 2017.8125 C-1204.88089892 2015.27058505 -1195.02268768 2012.69203438 -1185.17279053 2010.07687378 C-1165.38152404 2004.82231171 -1145.58017686 1999.6136943 -1125.70166016 1994.69775391 C-1121.27200908 1993.59420764 -1116.88008161 1992.41453955 -1112.5 1991.125 C-1104.34092002 1988.73721238 -1096.08294645 1986.74454552 -1087.82617188 1984.72509766 C-1080.50228493 1982.92118974 -1073.23067709 1980.97485009 -1065.96879578 1978.9393158 C-1057.52403393 1976.57607884 -1049.04524371 1974.34727681 -1040.5625 1972.125 C-1038.87311066 1971.68138212 -1037.18373922 1971.23769605 -1035.49438477 1970.79394531 C-1025.46690699 1968.16177967 -1015.4333383 1965.55396536 -1005.39453125 1962.96533203 C-997.4351507 1960.90618296 -989.48617692 1958.80905661 -981.5390625 1956.703125 C-979.84666946 1956.25472763 -979.84666946 1956.25472763 -978.12008667 1955.79727173 C-976.39799484 1955.34098892 -976.39799484 1955.34098892 -974.64111328 1954.87548828 C-972.28157914 1954.25031187 -969.92204136 1953.62514918 -967.5625 1953 C-966.39732849 1952.69124939 -965.23215698 1952.38249878 -964.03167725 1952.06439209 C-949.87698179 1948.3158862 -935.72143669 1944.58686565 -921.49243164 1941.12890625 C-916.47488124 1939.90371533 -911.50094646 1938.58764128 -906.5390625 1937.15234375 C-897.34135879 1934.49515952 -888.07665208 1932.1006531 -878.8125 1929.6875 C-876.91801727 1929.19267135 -875.02356778 1928.69771544 -873.12915039 1928.20263672 C-865.41390235 1926.18747018 -857.69738623 1924.1773048 -849.9765625 1922.18359375 C-848.45567017 1921.79083252 -848.45567017 1921.79083252 -846.90405273 1921.39013672 C-844.92207757 1920.87894339 -842.93981662 1920.36885683 -840.95727539 1919.85986328 C-834.29804011 1918.14125248 -827.65402302 1916.37201715 -821.01490784 1914.57739258 C-816.55206854 1913.37151913 -812.08755266 1912.17190726 -807.62307739 1910.97210693 C-805.38870693 1910.36957144 -803.1551908 1909.76385816 -800.9225769 1909.15484619 C-797.76816232 1908.2945701 -794.61099505 1907.44514612 -791.453125 1906.59765625 C-790.50319168 1906.33552841 -789.55325836 1906.07340057 -788.57453918 1905.80332947 C-780.16631543 1903.56637205 -774.43589322 1903.1951116 -766.609375 1907.48046875 C-765.91610611 1907.84463394 -765.22283722 1908.20879913 -764.50856018 1908.58399963 C-763.02247849 1909.36620173 -761.53968785 1910.15468301 -760.05996704 1910.94885254 C-756.12756856 1913.05747803 -752.16883563 1915.11583852 -748.21484375 1917.18359375 C-747.4235759 1917.59916534 -746.63230804 1918.01473694 -745.81706238 1918.44290161 C-703.35190193 1940.72045533 -658.51247314 1958.87836187 -613.03076172 1973.98876953 C-610.26546753 1974.91142529 -607.50855381 1975.8547156 -604.75390625 1976.80859375 C-556.37274296 1993.45715407 -506.33758424 2005.10888504 -456 2014 C-455.32739136 2014.11914764 -454.65478271 2014.23829529 -453.96179199 2014.36105347 C-441.02261645 2016.63626142 -428.03166422 2018.40840812 -415 2020.0625 C-413.45011887 2020.26051208 -413.45011887 2020.26051208 -411.868927 2020.46252441 C-397.17526218 2022.33187588 -382.5345946 2023.88511567 -367.74853516 2024.81005859 C-362.23999208 2025.19073425 -356.74478775 2025.74541839 -351.25170898 2026.30371094 C-335.58425189 2027.81451852 -319.85103035 2028.16089094 -304.12109375 2028.16796875 C-302.37264482 2028.17120323 -300.62419613 2028.17456868 -298.87574768 2028.17805481 C-295.23462298 2028.18398023 -291.59352175 2028.1859019 -287.95239258 2028.18530273 C-284.30260194 2028.18522206 -280.6529384 2028.19208283 -277.00317383 2028.20581055 C-246.6206812 2028.31832146 -216.3915424 2027.46138566 -186.14990234 2024.32275391 C-183.1519701 2024.01557158 -180.1526734 2023.72525245 -177.15286255 2023.43710327 C-141.17001773 2019.95180405 -105.37449338 2014.46534984 -70 2007 C-68.77877441 2006.74283203 -67.55754883 2006.48566406 -66.29931641 2006.22070312 C18.35021107 1988.18154369 100.0688345 1958.95562129 221.55224609 1897.40527344 C224.5629369 1895.6768138 227.60782196 1894.01717894 230.65844727 1892.3605957 C256.35848559 1878.36437173 281.71999781 1862.56272743 305.30712891 1845.23046875 C307.86421668 1843.37184135 310.45625603 1841.56394446 313.0456543 1839.75073242 C328.01698458 1829.26073274 342.74953946 1818.45308963 357 1807 C357.6403418 1806.4858252 358.28068359 1805.97165039 358.94042969 1805.44189453 C366.51372483 1799.34921702 374.02248253 1793.18784522 381.41821289 1786.88061523 C384.73698236 1784.05313305 388.10184014 1781.29377712 391.5 1778.5625 C396.2549105 1774.69609833 400.76661645 1770.61471132 405.234375 1766.42407227 C408.01570479 1763.81657559 410.83053557 1761.26412782 413.71264648 1758.76806641 C417.83423041 1755.1679794 421.85339799 1751.47161602 425.8359375 1747.71875 C426.5629184 1747.0338147 427.28989929 1746.34887939 428.03890991 1745.64318848 C435.91990625 1738.18104185 443.61524004 1730.53601271 451.27880859 1722.8515625 C453.65476675 1720.47016511 456.03613331 1718.09426757 458.41796875 1715.71875 C459.95865462 1714.17740441 461.49903084 1712.63574924 463.0390625 1711.09375 C463.73705963 1710.3977771 464.43505676 1709.7018042 465.15420532 1708.98474121 C469.06447914 1705.05594202 472.80299034 1701.03074628 476.41369629 1696.82441711 C479.13885065 1693.69020125 482.01835421 1690.70135556 484.875 1687.6875 C489.79493773 1682.4605134 494.45374682 1677.14137138 498.93359375 1671.53125 C501.00112782 1668.99861847 503.16113341 1666.5926884 505.375 1664.1875 C509.41274015 1659.75720178 513.10163509 1655.1231995 516.76855469 1650.38793945 C519.95245587 1646.29063308 523.24421922 1642.31086084 526.625 1638.375 C531.21237727 1633.00982935 535.51632628 1627.48660665 539.68798828 1621.7890625 C541.19061702 1619.74007415 542.70247446 1617.69805894 544.21484375 1615.65625 C547.24002738 1611.56915131 550.24999226 1607.47107784 553.25634766 1603.37011719 C554.82179523 1601.24223074 556.39904205 1599.12382844 557.98046875 1597.0078125 C585.48881822 1559.9008634 609.31866843 1519.7217575 631 1479 C631.4429541 1478.17193848 631.8859082 1477.34387695 632.34228516 1476.49072266 C635.26965396 1471.01497979 638.14847445 1465.51558055 641 1460 C641.44102051 1459.15195801 641.88204102 1458.30391602 642.33642578 1457.43017578 C682.43978689 1380.00625108 711.12570589 1295.24240679 730.4375 1203.8125 C730.74263016 1202.35435883 730.74263016 1202.35435883 731.05392456 1200.86676025 C734.08476022 1186.30433788 736.65543986 1171.68762678 739 1157 C739.11475677 1156.28544647 739.22951355 1155.57089294 739.3477478 1154.83468628 C739.96226642 1150.99713375 740.55337033 1147.1566633 741.125 1143.3125 C741.29112793 1142.19584961 741.45725586 1141.07919922 741.62841797 1139.92871094 C742.76246854 1132.10744179 743.6705804 1124.28802208 744.31689453 1116.41137695 C744.71533927 1111.60711171 745.28511154 1106.85646694 745.95703125 1102.08203125 C747.07316774 1093.87955857 747.76380713 1085.66792232 748.37768555 1077.41430664 C748.5605315 1074.963881 748.75144053 1072.51418296 748.94335938 1070.06445312 C749.33011487 1065.04512533 749.67616468 1060.02375964 750 1055 C750.05192505 1054.20588715 750.1038501 1053.41177429 750.15734863 1052.59359741 C751.25198417 1035.0858757 751.15411774 1017.556956 751.13037109 1000.02319336 C751.12466959 995.78544715 751.12807782 991.54776359 751.13379002 987.31001949 C751.1638601 961.40663297 750.17761325 935.86670106 747.8125 910.0625 C747.70462158 908.8765625 747.59674316 907.690625 747.4855957 906.46875 C745.29332266 882.55652777 742.44348569 858.76314276 739 835 C738.88978516 834.23747925 738.77957031 833.4749585 738.66601562 832.68933105 C735.89440509 813.61666115 732.24692014 794.79760963 728 776 C727.54908256 773.97534871 727.09854726 771.95061226 726.6484375 769.92578125 C724.57850814 760.66639662 722.42193142 751.43436149 720.0703125 742.2421875 C719.28156863 739.15060639 718.53565339 736.05104872 717.8046875 732.9453125 C705.58218436 681.61621947 687.17334617 631.26700662 666 583 C665.73699097 582.39986084 665.47398193 581.79972168 665.20300293 581.18139648 C651.48497585 549.92786846 636.72166223 518.95341933 619.45166016 489.49316406 C617.97904716 486.96401439 616.53811563 484.41916531 615.10546875 481.8671875 C600.38582046 455.67912943 584.01377877 430.73309779 567 406 C566.3601416 405.06736328 565.7202832 404.13472656 565.06103516 403.17382812 C557.33866608 391.94883778 549.10393438 381.12682572 540.79345703 370.33251953 C539.26107308 368.33954427 537.73546434 366.34179552 536.21484375 364.33984375 C526.65329233 351.79322262 516.63434969 339.61393503 506.38574219 327.62402344 C504.94270908 325.93285779 503.50625183 324.23625381 502.0703125 322.5390625 C496.14315374 315.55355151 490.06743433 308.73962108 483.8203125 302.0390625 C481.23804839 299.26772413 478.70782308 296.45288793 476.1875 293.625 C473.14852982 290.23011439 470.01620065 286.983148 466.76269531 283.79516602 C465.09941044 282.10124168 463.5677149 280.35497808 462.03515625 278.54296875 C457.47883854 273.3058496 452.57292637 268.42289043 447.6574707 263.52709961 C446.06541034 261.94040054 444.4787701 260.34842258 442.89257812 258.75585938 C437.93755981 253.79794073 432.93815231 248.94680626 427.60717773 244.38891602 C425.63641894 242.68579483 423.80871127 240.8733081 422 239 C418.87154036 235.82910002 415.63144648 232.8743004 412.25390625 229.97265625 C410.04045963 228.03541094 407.87813509 226.04915068 405.72216797 224.04833984 C400.59369376 219.29189622 395.35389246 214.75892564 389.90234375 210.37109375 C386.61037112 207.68168946 383.39992018 204.90832914 380.1875 202.125 C374.43887465 197.16181328 368.54500613 192.42634671 362.546875 187.76953125 C360.16176827 185.91627439 357.79917008 184.03917847 355.453125 182.13671875 C348.62385417 176.59872375 341.70219498 171.21862551 334.625 166 C333.91964111 165.47946045 333.21428223 164.9589209 332.48754883 164.42260742 C318.64761968 154.28664599 304.53315216 144.56080001 290.25 135.0625 C289.46596802 134.5405304 288.68193604 134.01856079 287.87414551 133.48077393 C275.73240298 125.40405252 263.53554204 117.45625598 251 110 C250.06365723 109.44199707 249.12731445 108.88399414 248.16259766 108.30908203 C226.51171745 95.45022184 204.39708723 83.50272941 182 72 C181.04931641 71.51031738 180.09863281 71.02063477 179.11914062 70.51611328 C125.43767337 42.95756721 68.17278304 20.83763829 10.09692383 4.46020508 C9.05560303 4.16267334 8.01428223 3.8651416 6.94140625 3.55859375 C6.03076416 3.30392334 5.12012207 3.04925293 4.18188477 2.78686523 C2 2 2 2 0 0 Z " fill="#E0E0E0" transform="translate(1336,38)"/>
</svg>
